<svg xmlns="http://www.w3.org/2000/svg" width="34.869" height="21.144" viewBox="0 0 34.869 21.144">
  <g id="Group_377" data-name="Group 377" transform="translate(-686 -1868.631)">
    <g id="Group_372" data-name="Group 372" transform="translate(686 1868.631)">
      <g id="Union_1" data-name="Union 1" transform="translate(2.473 0)" fill="none">
        <path d="M0,15.27a3.4,3.4,0,0,1,1.911-3.058A9.094,9.094,0,0,1,10.448,0H23.307a9.088,9.088,0,1,1,0,18.176H10.448a9.051,9.051,0,0,1-4.21-1.032A3.4,3.4,0,0,1,0,15.27Z" stroke="none"/>
        <path d="M 3.400200128555298 17.67049980163574 C 4.208250045776367 17.67049980163574 4.957340240478516 17.26736068725586 5.404020309448242 16.59210014343262 L 5.902090072631836 15.83913993835449 L 6.701879978179932 16.25786972045898 C 7.864910125732422 16.86676979064941 9.125320434570313 17.17549896240234 10.44810009002686 17.17549896240234 L 23.30730056762695 17.17549896240234 C 27.76715087890625 17.17549896240234 31.39550018310547 13.54755020141602 31.39550018310547 9.088199615478516 C 31.39550018310547 4.628349781036377 27.76715087890625 0.9999998807907104 23.30730056762695 0.9999998807907104 L 10.44810009002686 0.9999998807907104 C 5.988250255584717 0.9999998807907104 2.359899997711182 4.628349781036377 2.359899997711182 9.088199615478516 C 2.359899997711182 10.04463958740234 2.524890184402466 10.98017024993896 2.850290060043335 11.86882019042969 L 3.160470008850098 12.71587944030762 L 2.34975004196167 13.11141014099121 C 1.517190098762512 13.51760005950928 1.00000011920929 14.34484004974365 1.00000011920929 15.27029991149902 C 1.00000011920929 16.59376907348633 2.076730012893677 17.67049980163574 3.400200128555298 17.67049980163574 M 3.400200128555298 18.67049980163574 C 1.522800087928772 18.67049980163574 9.155273517080786e-08 17.1476993560791 9.155273517080786e-08 15.27029991149902 C 9.155273517080786e-08 13.92622947692871 0.7798100709915161 12.76468944549561 1.911270141601563 12.21267032623291 C 1.554500102996826 11.23835945129395 1.359900116920471 10.18616962432861 1.359900116920471 9.088199615478516 C 1.359900116920471 4.068900108337402 5.428800106048584 -9.918213095261308e-08 10.44810009002686 -9.918213095261308e-08 L 23.30730056762695 -9.918213095261308e-08 C 28.32660102844238 -9.918213095261308e-08 32.39550018310547 4.068900108337402 32.39550018310547 9.088199615478516 C 32.39550018310547 14.10750007629395 28.32660102844238 18.17549896240234 23.30730056762695 18.17549896240234 L 10.44810009002686 18.17549896240234 C 8.928890228271484 18.17549896240234 7.496660232543945 17.80273056030273 6.238059997558594 17.14380073547363 C 5.629600048065186 18.06364059448242 4.585949897766113 18.67049980163574 3.400200128555298 18.67049980163574 Z" stroke="none" fill="#b9a687"/>
      </g>
      <g id="Ellipse_37" data-name="Ellipse 37" transform="translate(0 17.681)" fill="#fff" stroke="#b9a687" stroke-width="1">
        <circle cx="1.731" cy="1.731" r="1.731" stroke="none"/>
        <circle cx="1.731" cy="1.731" r="1.231" fill="none"/>
      </g>
    </g>
    <g id="Ellipse_38" data-name="Ellipse 38" transform="translate(696.757 1875.679)" fill="none" stroke="#b9a687" stroke-width="1">
      <circle cx="2.164" cy="2.164" r="2.164" stroke="none"/>
      <circle cx="2.164" cy="2.164" r="1.664" fill="none"/>
    </g>
    <g id="Ellipse_38-2" data-name="Ellipse 38" transform="translate(703.311 1875.679)" fill="none" stroke="#b9a687" stroke-width="1">
      <circle cx="2.164" cy="2.164" r="2.164" stroke="none"/>
      <circle cx="2.164" cy="2.164" r="1.664" fill="none"/>
    </g>
    <g id="Ellipse_38-3" data-name="Ellipse 38" transform="translate(709.864 1875.679)" fill="none" stroke="#b9a687" stroke-width="1">
      <circle cx="2.164" cy="2.164" r="2.164" stroke="none"/>
      <circle cx="2.164" cy="2.164" r="1.664" fill="none"/>
    </g>
    <g id="Union_1-2" data-name="Union 1" transform="translate(688.473 1868.631)" fill="none">
      <path d="M0,15.27a3.4,3.4,0,0,1,1.911-3.058A9.094,9.094,0,0,1,10.448,0H23.307a9.088,9.088,0,1,1,0,18.176H10.448a9.051,9.051,0,0,1-4.21-1.032A3.4,3.4,0,0,1,0,15.27Z" stroke="none"/>
      <path d="M 3.400200128555298 17.67049980163574 C 4.208250045776367 17.67049980163574 4.957340240478516 17.26736068725586 5.404020309448242 16.59210014343262 L 5.902090072631836 15.83913993835449 L 6.701879978179932 16.25786972045898 C 7.864910125732422 16.86676979064941 9.125320434570313 17.17549896240234 10.44810009002686 17.17549896240234 L 23.30730056762695 17.17549896240234 C 27.76715087890625 17.17549896240234 31.39550018310547 13.54755020141602 31.39550018310547 9.088199615478516 C 31.39550018310547 4.628349781036377 27.76715087890625 0.9999998807907104 23.30730056762695 0.9999998807907104 L 10.44810009002686 0.9999998807907104 C 5.988250255584717 0.9999998807907104 2.359899997711182 4.628349781036377 2.359899997711182 9.088199615478516 C 2.359899997711182 10.04463958740234 2.524890184402466 10.98017024993896 2.850290060043335 11.86882019042969 L 3.160470008850098 12.71587944030762 L 2.34975004196167 13.11141014099121 C 1.517190098762512 13.51760005950928 1.00000011920929 14.34484004974365 1.00000011920929 15.27029991149902 C 1.00000011920929 16.59376907348633 2.076730012893677 17.67049980163574 3.400200128555298 17.67049980163574 M 3.400200128555298 18.67049980163574 C 1.522800087928772 18.67049980163574 9.155273517080786e-08 17.1476993560791 9.155273517080786e-08 15.27029991149902 C 9.155273517080786e-08 13.92622947692871 0.7798100709915161 12.76468944549561 1.911270141601563 12.21267032623291 C 1.554500102996826 11.23835945129395 1.359900116920471 10.18616962432861 1.359900116920471 9.088199615478516 C 1.359900116920471 4.068900108337402 5.428800106048584 -9.918213095261308e-08 10.44810009002686 -9.918213095261308e-08 L 23.30730056762695 -9.918213095261308e-08 C 28.32660102844238 -9.918213095261308e-08 32.39550018310547 4.068900108337402 32.39550018310547 9.088199615478516 C 32.39550018310547 14.10750007629395 28.32660102844238 18.17549896240234 23.30730056762695 18.17549896240234 L 10.44810009002686 18.17549896240234 C 8.928890228271484 18.17549896240234 7.496660232543945 17.80273056030273 6.238059997558594 17.14380073547363 C 5.629600048065186 18.06364059448242 4.585949897766113 18.67049980163574 3.400200128555298 18.67049980163574 Z" stroke="none" fill="#b9a687"/>
    </g>
    <g id="Ellipse_37-2" data-name="Ellipse 37" transform="translate(686 1886.312)" fill="#fff" stroke="#b9a687" stroke-width="1">
      <circle cx="1.731" cy="1.731" r="1.731" stroke="none"/>
      <circle cx="1.731" cy="1.731" r="1.231" fill="none"/>
    </g>
    <circle id="Ellipse_38-4" data-name="Ellipse 38" cx="2.164" cy="2.164" r="2.164" transform="translate(696.757 1875.679)" fill="#b9a687"/>
    <circle id="Ellipse_38-5" data-name="Ellipse 38" cx="2.164" cy="2.164" r="2.164" transform="translate(703.311 1875.679)" fill="#b9a687"/>
    <circle id="Ellipse_38-6" data-name="Ellipse 38" cx="2.164" cy="2.164" r="2.164" transform="translate(709.864 1875.679)" fill="#b9a687"/>
  </g>
</svg>
