<svg xmlns="http://www.w3.org/2000/svg" width="102.324" height="70.166" viewBox="0 0 102.324 70.166">
  <g id="Group_471" data-name="Group 471" transform="translate(-909 -4941.725)">
    <g id="Group_368" data-name="Group 368" transform="translate(909 4941.725)">
      <g id="Group_367" data-name="Group 367" transform="translate(0 0)">
        <path id="Path_240" data-name="Path 240" d="M13.866,13.669H10.355a15.526,15.526,0,0,1-2.869-3.437c-.418-.6-.837-1.165-1.285-1.7a7.879,7.879,0,0,0-.911-1,1.356,1.356,0,0,0-.777-.179H3.99v2.9a17.71,17.71,0,0,0,.075,2.017,1,1,0,0,0,.388.7,2.2,2.2,0,0,0,1.2.239h.628v.448H0v-.448H.418A2.4,2.4,0,0,0,1.584,13a.918.918,0,0,0,.4-.657,14.384,14.384,0,0,0,.09-2.092V3.822A13.536,13.536,0,0,0,1.987,1.8.857.857,0,0,0,1.6,1.177,3.558,3.558,0,0,0,.314,1.028H.09V.579L1.972.49C3.228.43,4.214.4,4.946.4A11.268,11.268,0,0,1,7.994.744a4.175,4.175,0,0,1,1.9,1.136,2.756,2.756,0,0,1,.717,1.9,2.963,2.963,0,0,1-.941,2.2A4.766,4.766,0,0,1,6.888,7.109,10.382,10.382,0,0,1,9.533,9.963a12.931,12.931,0,0,0,2.331,2.615,3.524,3.524,0,0,0,2,.657ZM3.975,6.915c.478-.015.986-.03,1.494-.06a5.773,5.773,0,0,0,1.345-.209,2.4,2.4,0,0,0,.926-.508,2.221,2.221,0,0,0,.553-.867A3.82,3.82,0,0,0,8.5,3.941,3.32,3.32,0,0,0,7.815,1.73c-.463-.553-1.464-.837-3-.837-.239,0-.508.015-.822.045V6.915Z" transform="translate(0 -0.325)" fill="#b9a689"/>
        <path id="Path_241" data-name="Path 241" d="M101.717,8.842H96.741l-.344.837a8.134,8.134,0,0,0-.747,2.361,1.069,1.069,0,0,0,.4.9,1.624,1.624,0,0,0,1.031.3v.448H93.2v-.448a2.131,2.131,0,0,0,1.3-.613,7.079,7.079,0,0,0,1.016-2.017c.03-.09.179-.463.463-1.121L99.79.4h.374l4.363,10.4.6,1.375a1.734,1.734,0,0,0,.553.732,1.951,1.951,0,0,0,1.031.329v.448h-5.14v-.448a4.05,4.05,0,0,0,1.285-.134.538.538,0,0,0,.329-.553,5.723,5.723,0,0,0-.448-1.27Zm-.164-.433L99.237,2.836l-2.3,5.573Z" transform="translate(-79.274 -0.325)" fill="#b9a689"/>
        <path id="Path_242" data-name="Path 242" d="M197.361,8.412h.418V13h-.418a3.515,3.515,0,0,0-.628-1.375,5.644,5.644,0,0,1-4.408,1.957,6.261,6.261,0,0,1-4.632-1.793A6.423,6.423,0,0,1,185.9,7.038a8.321,8.321,0,0,1,.837-3.661,5.654,5.654,0,0,1,2.316-2.54A6.567,6.567,0,0,1,192.31,0a5.8,5.8,0,0,1,2.66.6,5.461,5.461,0,0,1,1.778,1.33,4.757,4.757,0,0,0,.508-1.7h.418l.12,4.961h-.418A5.556,5.556,0,0,0,195.6,1.509,4.827,4.827,0,0,0,192.579.478a3.82,3.82,0,0,0-3.272,1.674,8.072,8.072,0,0,0-1.21,4.782,6.75,6.75,0,0,0,1.33,4.513,4.144,4.144,0,0,0,3.287,1.569,5.028,5.028,0,0,0,2.152-.508,3.771,3.771,0,0,0,1.748-1.733A6.553,6.553,0,0,0,197.361,8.412Z" transform="translate(-158.122 0.015)" fill="#b9a689"/>
        <path id="Path_243" data-name="Path 243" d="M292.461,8.412h.418V13h-.418a3.515,3.515,0,0,0-.628-1.375,5.644,5.644,0,0,1-4.408,1.957,6.26,6.26,0,0,1-4.632-1.793A6.423,6.423,0,0,1,281,7.038a8.322,8.322,0,0,1,.837-3.661,5.655,5.655,0,0,1,2.316-2.54A6.567,6.567,0,0,1,287.41,0a5.8,5.8,0,0,1,2.66.6,5.46,5.46,0,0,1,1.778,1.33,4.756,4.756,0,0,0,.508-1.7h.418l.12,4.961h-.418A5.556,5.556,0,0,0,290.7,1.509,4.827,4.827,0,0,0,287.679.478a3.82,3.82,0,0,0-3.272,1.674,8.072,8.072,0,0,0-1.21,4.782,6.831,6.831,0,0,0,1.33,4.513,4.123,4.123,0,0,0,3.287,1.569,5.028,5.028,0,0,0,2.152-.508,3.772,3.772,0,0,0,1.748-1.733A6.553,6.553,0,0,0,292.461,8.412Z" transform="translate(-239.012 0.015)" fill="#b9a689"/>
        <path id="Path_244" data-name="Path 244" d="M376,6.609a6.241,6.241,0,0,1,2.032-4.871A7.235,7.235,0,0,1,383.1-.1a7.4,7.4,0,0,1,5.11,1.808,6.235,6.235,0,0,1,2.047,4.946,6.549,6.549,0,0,1-1.957,4.931,7.958,7.958,0,0,1-10.28,0A6.442,6.442,0,0,1,376,6.609Zm2.211.075a7.5,7.5,0,0,0,1.255,4.737A4.529,4.529,0,0,0,383.247,13a4.235,4.235,0,0,0,3.5-1.584A7.414,7.414,0,0,0,388.029,6.7a7.449,7.449,0,0,0-1.27-4.677,4.958,4.958,0,0,0-7.307-.045A7.592,7.592,0,0,0,378.211,6.684Z" transform="translate(-319.817 0.1)" fill="#b9a689"/>
        <path id="Path_245" data-name="Path 245" d="M484.9,6.609a6.241,6.241,0,0,1,2.032-4.871A7.235,7.235,0,0,1,492-.1a7.4,7.4,0,0,1,5.11,1.808,6.235,6.235,0,0,1,2.047,4.946,6.549,6.549,0,0,1-1.957,4.931,7.958,7.958,0,0,1-10.28,0A6.391,6.391,0,0,1,484.9,6.609Zm2.211.075a7.5,7.5,0,0,0,1.255,4.737A4.529,4.529,0,0,0,492.147,13a4.235,4.235,0,0,0,3.5-1.584A7.414,7.414,0,0,0,496.928,6.7a7.448,7.448,0,0,0-1.27-4.677,4.958,4.958,0,0,0-7.307-.045A7.592,7.592,0,0,0,487.111,6.684Z" transform="translate(-412.445 0.1)" fill="#b9a689"/>
        <path id="Path_246" data-name="Path 246" d="M600.949,14.988,591.685,2.721v9.085a6.393,6.393,0,0,0,.1,1.494,1.245,1.245,0,0,0,.628.657,3.274,3.274,0,0,0,1.569.3V14.7H589.1v-.448a3.6,3.6,0,0,0,1.434-.344,1.106,1.106,0,0,0,.583-.6,7.443,7.443,0,0,0,.09-1.509V4.872a9.661,9.661,0,0,0-.135-2.017.935.935,0,0,0-.448-.657,3.714,3.714,0,0,0-1.36-.149V1.6h3.855l7.77,10.25V4.021a2.833,2.833,0,0,0-.179-1.21,1.216,1.216,0,0,0-.732-.553,3.882,3.882,0,0,0-1.33-.209V1.6H603.4v.448a3.611,3.611,0,0,0-1.315.314,1.25,1.25,0,0,0-.613.6,3.711,3.711,0,0,0-.134,1.2V14.988Z" transform="translate(-501.075 -1.346)" fill="#b9a689"/>
      </g>
    </g>
    <g id="Group_383" data-name="Group 383" transform="translate(931 4981.241)">
      <g id="Group_380" data-name="Group 380" transform="translate(0 24.848)">
        <path id="Path_247" data-name="Path 247" d="M1.448,238.71v.147H.923v1.521c0,.273,0,.441.01.514a.2.2,0,0,0,.084.157.464.464,0,0,0,.273.052h.136v.147H.063v-.157a.635.635,0,0,0,.294-.042.245.245,0,0,0,.1-.126,4.484,4.484,0,0,0,.021-.546v-1.521H0v-.147H.472v-.231a4.169,4.169,0,0,1,.031-.587,1.14,1.14,0,0,1,.178-.43,1.12,1.12,0,0,1,.357-.346A1.006,1.006,0,0,1,1.553,237a1.082,1.082,0,0,1,.588.147c.147.1.22.2.22.3a.19.19,0,0,1-.063.147.207.207,0,0,1-.147.063c-.1,0-.21-.084-.3-.252a.437.437,0,0,0-.388-.273.459.459,0,0,0-.336.136.614.614,0,0,0-.178.346,7.805,7.805,0,0,0-.031.9v.189Z" transform="translate(0 -236.979)" fill="#b9a689"/>
        <path id="Path_248" data-name="Path 248" d="M18.1,236.821V240.2c0,.273,0,.441.01.514a.2.2,0,0,0,.084.157.464.464,0,0,0,.273.052h.073v.147H17.2v-.157h.084a.518.518,0,0,0,.262-.052.2.2,0,0,0,.094-.147c.01-.063.01-.241.01-.535v-2.5a1.031,1.031,0,0,0-.073-.5c-.052-.073-.157-.1-.346-.1v-.147a2.38,2.38,0,0,0,.441-.042,1.638,1.638,0,0,0,.346-.084H18.1Z" transform="translate(-15.396 -236.8)" fill="#b9a689"/>
        <path id="Path_249" data-name="Path 249" d="M33.2,253.753a1.35,1.35,0,0,1,2.3-.965,1.433,1.433,0,0,1-.01,1.972,1.425,1.425,0,0,1-1.909,0A1.4,1.4,0,0,1,33.2,253.753Zm.514.021a1.52,1.52,0,0,0,.22.944.827.827,0,0,0,1.227,0,1.529,1.529,0,0,0,.21-.944,1.691,1.691,0,0,0-.21-.955.818.818,0,0,0-1.238,0A1.667,1.667,0,0,0,33.714,253.774Z" transform="translate(-29.717 -250.763)" fill="#b9a689"/>
        <path id="Path_250" data-name="Path 250" d="M63.621,255.833h-.136l-.755-2-.766,2h-.136l-.766-2a1.4,1.4,0,0,0-.2-.409.379.379,0,0,0-.262-.063v-.147h1.154v.147a.722.722,0,0,0-.262.031.119.119,0,0,0-.073.126,1.932,1.932,0,0,0,.115.357l.514,1.353.787-2.014h.115l.755,2.014.556-1.437a1.137,1.137,0,0,0,.094-.273c0-.1-.1-.157-.315-.168V253.2h.818v.147a.469.469,0,0,0-.231.052.524.524,0,0,0-.157.241l-.063.178Z" transform="translate(-54.242 -251.479)" fill="#b9a689"/>
        <path id="Path_251" data-name="Path 251" d="M105.287,253.355h-1.763c-.01.126-.01.21-.01.273a1.931,1.931,0,0,0,.21,1,.687.687,0,0,0,.619.336.814.814,0,0,0,.8-.5h.147a.864.864,0,0,1-.388.493,1.246,1.246,0,0,1-1.248.021A1.281,1.281,0,0,1,103,253.8a1.417,1.417,0,0,1,.357-1,1.127,1.127,0,0,1,.881-.4.972.972,0,0,1,.766.3A1.046,1.046,0,0,1,105.287,253.355Zm-.546-.126a.6.6,0,0,0,.01-.126.546.546,0,0,0-.157-.42.514.514,0,0,0-.388-.147c-.378,0-.6.231-.671.692Z" transform="translate(-92.194 -250.763)" fill="#b9a689"/>
        <path id="Path_252" data-name="Path 252" d="M129.671,252.95a1.119,1.119,0,0,1,.336-.462.753.753,0,0,1,.462-.189.435.435,0,0,1,.325.126.4.4,0,0,1,.115.262.214.214,0,0,1-.063.157.191.191,0,0,1-.147.063c-.1,0-.178-.073-.231-.231-.042-.1-.094-.157-.168-.157a.515.515,0,0,0-.315.178.83.83,0,0,0-.241.378,2.279,2.279,0,0,0-.052.535v.451c0,.273,0,.441.01.514a.2.2,0,0,0,.084.157.464.464,0,0,0,.273.052h.084v.147H128.8v-.147h.063a.518.518,0,0,0,.262-.052.2.2,0,0,0,.094-.147c.01-.063.01-.241.01-.535v-.713c0-.273,0-.441-.01-.514a.2.2,0,0,0-.084-.157.464.464,0,0,0-.273-.052H128.8v-.136a4.407,4.407,0,0,0,.755-.178A1.806,1.806,0,0,1,129.671,252.95Z" transform="translate(-115.287 -250.674)" fill="#b9a689"/>
        <path id="Path_253" data-name="Path 253" d="M151.911,255.017v-.829h.115c.136.483.388.713.745.713a.414.414,0,0,0,.346-.147.506.506,0,0,0,.115-.315.435.435,0,0,0-.126-.325,1.939,1.939,0,0,0-.493-.3,1.938,1.938,0,0,1-.546-.367A.593.593,0,0,1,151.9,253a.757.757,0,0,1,.178-.472.609.609,0,0,1,.5-.231.681.681,0,0,1,.546.273.662.662,0,0,0,.115-.22h.115v.776h-.115a1.1,1.1,0,0,0-.241-.483.536.536,0,0,0-.42-.2.438.438,0,0,0-.3.115.376.376,0,0,0-.115.262.359.359,0,0,0,.126.283,1.706,1.706,0,0,0,.472.283,1.34,1.34,0,0,1,.64.462,1.022,1.022,0,0,1,.115.441.7.7,0,0,1-.22.535.77.77,0,0,1-.546.21.833.833,0,0,1-.619-.283.683.683,0,0,0-.136.262Z" transform="translate(-135.964 -250.674)" fill="#b9a689"/>
        <path id="Path_254" data-name="Path 254" d="M188.861,238.983V238c0-.273,0-.441-.01-.514a.2.2,0,0,0-.084-.157.464.464,0,0,0-.273-.052h-.063v-.147a4.1,4.1,0,0,0,.818-.126h.063v3.4c0,.294,0,.472.01.535a.2.2,0,0,0,.094.147.688.688,0,0,0,.3.042v.147a4.433,4.433,0,0,0-.8.084,2.216,2.216,0,0,1-.042-.462,1.755,1.755,0,0,1-.472.346,1.181,1.181,0,0,1-.5.115,1.126,1.126,0,0,1-.85-.4A1.349,1.349,0,0,1,186.7,240a1.389,1.389,0,0,1,.367-1,1.168,1.168,0,0,1,.871-.378,1.237,1.237,0,0,1,.483.094A1.01,1.01,0,0,1,188.861,238.983Zm0,.178a1.492,1.492,0,0,0-.409-.262.954.954,0,0,0-.409-.084.726.726,0,0,0-.577.273,1.311,1.311,0,0,0-.231.871,1.46,1.46,0,0,0,.241.913.72.72,0,0,0,.588.294.851.851,0,0,0,.43-.115,1.217,1.217,0,0,0,.367-.336Z" transform="translate(-167.113 -236.979)" fill="#b9a689"/>
        <path id="Path_255" data-name="Path 255" d="M220.587,253.355h-1.762c-.01.126-.01.21-.01.273a1.931,1.931,0,0,0,.21,1,.687.687,0,0,0,.619.336.814.814,0,0,0,.8-.5h.147a.864.864,0,0,1-.388.493,1.246,1.246,0,0,1-1.248.021,1.281,1.281,0,0,1-.65-1.175,1.417,1.417,0,0,1,.357-1,1.127,1.127,0,0,1,.881-.4.972.972,0,0,1,.766.3A.992.992,0,0,1,220.587,253.355Zm-.535-.126a.6.6,0,0,0,.01-.126.546.546,0,0,0-.157-.42.514.514,0,0,0-.388-.147c-.378,0-.6.231-.671.692Z" transform="translate(-195.398 -250.763)" fill="#b9a689"/>
        <path id="Path_256" data-name="Path 256" d="M243.9,236.821V240.2c0,.273,0,.441.011.514a.2.2,0,0,0,.084.157.464.464,0,0,0,.273.052h.073v.147H243v-.157h.084a.518.518,0,0,0,.262-.052.2.2,0,0,0,.094-.147c.01-.063.01-.241.01-.535v-2.5a1.031,1.031,0,0,0-.073-.5c-.052-.073-.157-.1-.346-.1v-.147a2.38,2.38,0,0,0,.441-.042,1.638,1.638,0,0,0,.346-.084h.084Z" transform="translate(-217.507 -236.8)" fill="#b9a689"/>
        <path id="Path_257" data-name="Path 257" d="M258.634,238.605v1.763c0,.273,0,.441.01.514a.205.205,0,0,0,.094.157.464.464,0,0,0,.273.052h.063v.147h-1.364v-.147h.1a.428.428,0,0,0,.283-.063.22.22,0,0,0,.073-.147c.01-.063.01-.231.01-.514V239.6a1.9,1.9,0,0,0-.042-.546.229.229,0,0,0-.115-.126.687.687,0,0,0-.241-.021H257.7v-.147a3.881,3.881,0,0,0,.85-.168h.084Zm-.6-1.28a.326.326,0,0,1,.094-.231.308.308,0,0,1,.231-.094.286.286,0,0,1,.22.094.329.329,0,0,1,0,.462.3.3,0,0,1-.22.094.322.322,0,0,1-.325-.325Z" transform="translate(-230.665 -236.979)" fill="#b9a689"/>
        <path id="Path_258" data-name="Path 258" d="M273.342,255.844h-.178l-.9-2.025a1.53,1.53,0,0,0-.21-.378.346.346,0,0,0-.252-.084v-.147h1.143v.147a.761.761,0,0,0-.262.031.129.129,0,0,0-.073.115,1.117,1.117,0,0,0,.126.325l.682,1.532.608-1.364a1.524,1.524,0,0,0,.147-.43c0-.136-.1-.21-.3-.22V253.2h.85v.147a.414.414,0,0,0-.262.126,2.5,2.5,0,0,0-.294.546Z" transform="translate(-243.285 -251.479)" fill="#b9a689"/>
        <path id="Path_259" data-name="Path 259" d="M302.887,253.355h-1.762c-.011.126-.011.21-.011.273a1.932,1.932,0,0,0,.21,1,.687.687,0,0,0,.619.336.814.814,0,0,0,.8-.5h.147a.864.864,0,0,1-.388.493,1.246,1.246,0,0,1-1.248.021,1.281,1.281,0,0,1-.65-1.175,1.417,1.417,0,0,1,.357-1,1.127,1.127,0,0,1,.881-.4.972.972,0,0,1,.766.3A.992.992,0,0,1,302.887,253.355Zm-.535-.126a.6.6,0,0,0,.01-.126.546.546,0,0,0-.157-.42.514.514,0,0,0-.388-.147c-.378,0-.6.231-.671.692Z" transform="translate(-269.064 -250.763)" fill="#b9a689"/>
        <path id="Path_260" data-name="Path 260" d="M327.271,252.95a1.118,1.118,0,0,1,.336-.462.753.753,0,0,1,.462-.189.435.435,0,0,1,.325.126.4.4,0,0,1,.115.262.213.213,0,0,1-.063.157.19.19,0,0,1-.147.063c-.1,0-.178-.073-.231-.231-.042-.1-.094-.157-.168-.157a.515.515,0,0,0-.315.178.83.83,0,0,0-.241.378,2.279,2.279,0,0,0-.052.535v.451c0,.273,0,.441.01.514a.2.2,0,0,0,.084.157.464.464,0,0,0,.273.052h.084v.147H326.4v-.147h.063a.518.518,0,0,0,.262-.052.2.2,0,0,0,.094-.147c.01-.063.01-.241.01-.535v-.713c0-.273,0-.441-.01-.514a.2.2,0,0,0-.084-.157.464.464,0,0,0-.273-.052H326.4v-.136a4.407,4.407,0,0,0,.755-.178A1.605,1.605,0,0,1,327.271,252.95Z" transform="translate(-292.157 -250.674)" fill="#b9a689"/>
        <path id="Path_261" data-name="Path 261" d="M348.658,255.256l.587-1.406a2.124,2.124,0,0,0,.126-.346q0-.157-.346-.157V253.2h.892v.147a.477.477,0,0,0-.3.1,1.5,1.5,0,0,0-.241.441l-1.112,2.728a1.869,1.869,0,0,1-.283.525.347.347,0,0,1-.273.136c-.136,0-.2-.063-.2-.178,0-.136.1-.262.325-.357a.824.824,0,0,0,.252-.147.606.606,0,0,0,.126-.21l.241-.6-.955-2.035a1.083,1.083,0,0,0-.21-.336.4.4,0,0,0-.283-.073V253.2h1.154v.147c-.2.01-.3.052-.3.126a1.525,1.525,0,0,0,.115.3Z" transform="translate(-310.596 -251.479)" fill="#b9a689"/>
        <path id="Path_262" data-name="Path 262" d="M392.21,255.017v-.829h.115c.136.483.388.713.745.713a.414.414,0,0,0,.346-.147.506.506,0,0,0,.115-.315.435.435,0,0,0-.126-.325,1.938,1.938,0,0,0-.493-.3,1.94,1.94,0,0,1-.546-.367A.593.593,0,0,1,392.2,253a.757.757,0,0,1,.178-.472.609.609,0,0,1,.5-.231.681.681,0,0,1,.546.273.663.663,0,0,0,.115-.22h.115v.776h-.115a1.1,1.1,0,0,0-.241-.483.535.535,0,0,0-.42-.2.438.438,0,0,0-.3.115.376.376,0,0,0-.115.262.359.359,0,0,0,.126.283,1.707,1.707,0,0,0,.472.283,1.341,1.341,0,0,1,.64.462,1.022,1.022,0,0,1,.115.441.7.7,0,0,1-.22.535.77.77,0,0,1-.546.21.833.833,0,0,1-.619-.283.682.682,0,0,0-.136.262Z" transform="translate(-351.054 -250.674)" fill="#b9a689"/>
        <path id="Path_263" data-name="Path 263" d="M414.487,253.355h-1.763c-.01.126-.01.21-.01.273a1.931,1.931,0,0,0,.21,1,.687.687,0,0,0,.619.336.814.814,0,0,0,.8-.5h.147a.864.864,0,0,1-.388.493,1.246,1.246,0,0,1-1.248.021,1.281,1.281,0,0,1-.65-1.175,1.417,1.417,0,0,1,.357-1,1.127,1.127,0,0,1,.881-.4.972.972,0,0,1,.766.3A.992.992,0,0,1,414.487,253.355Zm-.535-.126a.6.6,0,0,0,.01-.126.546.546,0,0,0-.157-.42.514.514,0,0,0-.388-.147c-.378,0-.6.231-.671.692Z" transform="translate(-368.956 -250.763)" fill="#b9a689"/>
        <path id="Path_264" data-name="Path 264" d="M438.871,252.95a1.119,1.119,0,0,1,.336-.462.753.753,0,0,1,.462-.189.435.435,0,0,1,.325.126.4.4,0,0,1,.115.262.214.214,0,0,1-.063.157.191.191,0,0,1-.147.063c-.1,0-.178-.073-.231-.231-.042-.1-.094-.157-.168-.157a.515.515,0,0,0-.315.178.83.83,0,0,0-.241.378,2.279,2.279,0,0,0-.052.535v.451c0,.273,0,.441.01.514a.2.2,0,0,0,.084.157.464.464,0,0,0,.273.052h.084v.147H438v-.147h.063a.518.518,0,0,0,.262-.052.2.2,0,0,0,.094-.147c.01-.063.01-.241.01-.535v-.713c0-.273,0-.441-.01-.514a.2.2,0,0,0-.084-.157.464.464,0,0,0-.273-.052H438v-.136a4.407,4.407,0,0,0,.755-.178A1.446,1.446,0,0,1,438.871,252.95Z" transform="translate(-392.049 -250.674)" fill="#b9a689"/>
        <path id="Path_265" data-name="Path 265" d="M459.742,255.844h-.178l-.9-2.025a1.53,1.53,0,0,0-.21-.378.346.346,0,0,0-.252-.084v-.147h1.144v.147a.76.76,0,0,0-.262.031.129.129,0,0,0-.073.115,1.117,1.117,0,0,0,.126.325l.682,1.532.609-1.364a1.524,1.524,0,0,0,.147-.43c0-.136-.1-.21-.3-.22V253.2h.85v.147a.414.414,0,0,0-.262.126,2.5,2.5,0,0,0-.294.546Z" transform="translate(-410.13 -251.479)" fill="#b9a689"/>
        <path id="Path_266" data-name="Path 266" d="M487.634,238.605v1.763c0,.273,0,.441.01.514a.205.205,0,0,0,.094.157.464.464,0,0,0,.273.052h.063v.147h-1.364v-.147h.1a.428.428,0,0,0,.283-.063.22.22,0,0,0,.073-.147c.01-.063.01-.231.01-.514V239.6a1.9,1.9,0,0,0-.042-.546.229.229,0,0,0-.115-.126.687.687,0,0,0-.241-.021H486.7v-.147a3.882,3.882,0,0,0,.85-.168h.084Zm-.6-1.28a.325.325,0,0,1,.094-.231.308.308,0,0,1,.231-.094.286.286,0,0,1,.22.094.329.329,0,0,1,0,.462.3.3,0,0,1-.22.094.322.322,0,0,1-.325-.325Z" transform="translate(-435.64 -236.979)" fill="#b9a689"/>
        <path id="Path_267" data-name="Path 267" d="M505.193,254.225h.136a.963.963,0,0,1-1.049.713,1.276,1.276,0,0,1-.913-.367A1.321,1.321,0,0,1,503,253.6a1.368,1.368,0,0,1,.4-1.007,1.325,1.325,0,0,1,.944-.388,1.261,1.261,0,0,1,.6.147c.178.094.273.21.273.346a.251.251,0,0,1-.052.147.176.176,0,0,1-.147.063c-.136,0-.22-.084-.252-.241a.47.47,0,0,0-.115-.252.46.46,0,0,0-.315-.073.717.717,0,0,0-.619.283,1.485,1.485,0,0,0-.21.86,1.708,1.708,0,0,0,.22.934.77.77,0,0,0,.682.336A.683.683,0,0,0,505.193,254.225Z" transform="translate(-450.23 -250.584)" fill="#b9a689"/>
        <path id="Path_268" data-name="Path 268" d="M531.187,253.355h-1.763c-.011.126-.011.21-.011.273a1.931,1.931,0,0,0,.21,1,.687.687,0,0,0,.619.336.814.814,0,0,0,.8-.5h.147a.864.864,0,0,1-.388.493,1.246,1.246,0,0,1-1.248.021,1.281,1.281,0,0,1-.651-1.175,1.417,1.417,0,0,1,.357-1,1.127,1.127,0,0,1,.881-.4.972.972,0,0,1,.766.3A.992.992,0,0,1,531.187,253.355Zm-.546-.126a.6.6,0,0,0,.01-.126.546.546,0,0,0-.157-.42.514.514,0,0,0-.388-.147c-.378,0-.6.231-.671.692Z" transform="translate(-473.413 -250.763)" fill="#b9a689"/>
      </g>
      <g id="Group_382" data-name="Group 382" transform="translate(0.034 0.006)">
        <g id="Group_381" data-name="Group 381">
          <path id="Path_269" data-name="Path 269" d="M421.679,30.226a8.551,8.551,0,0,0,.976-4.815,8.819,8.819,0,0,0-.8-3.011,8.893,8.893,0,0,1-1.658,7.06C420.714,29.7,421.207,29.964,421.679,30.226Z" transform="translate(-376.15 -20.051)" fill="none"/>
          <path id="Path_270" data-name="Path 270" d="M216.222,115.632a3.749,3.749,0,0,0,.871,1.972,1.673,1.673,0,0,0,.136.136l.031.031a1.114,1.114,0,0,0,.126.1.229.229,0,0,1,.052.042c.031.021.052.042.084.063a.708.708,0,0,0,.115.073c.01.01.021.01.042.021.063.031.126.063.178.094h0a1.411,1.411,0,0,1-.4-1,1.1,1.1,0,1,1,2.161,0,1.472,1.472,0,0,1-.084.493l-.094.22.01-.01.126-.126h0c.042-.052.084-.1.126-.168a.01.01,0,0,1,.01-.01,1.04,1.04,0,0,0,.115-.178.01.01,0,0,1,.01-.01,1.2,1.2,0,0,0,.1-.2,3.8,3.8,0,0,0,.262-2.14,3.748,3.748,0,0,0-.871-1.972,1.8,1.8,0,0,0-1.563-.682C216.683,112.558,215.991,114.016,216.222,115.632Z" transform="translate(-193.532 -100.588)" fill="none"/>
          <path id="Path_271" data-name="Path 271" d="M123.174,16.236a27.327,27.327,0,0,1,3.7-1.29.465.465,0,0,1-.052-.157,9.085,9.085,0,0,0-1.637-4.564,5.067,5.067,0,0,0-3.42-2.025,7.934,7.934,0,0,0,1.091,8.173C122.964,16.331,123.069,16.289,123.174,16.236Z" transform="translate(-108.426 -7.34)" fill="none"/>
          <path id="Path_272" data-name="Path 272" d="M109.178,29.46a8.893,8.893,0,0,1-1.658-7.06,8.839,8.839,0,0,0,.178,7.826C108.182,29.964,108.675,29.7,109.178,29.46Z" transform="translate(-95.532 -20.051)" fill="none"/>
          <path id="Path_273" data-name="Path 273" d="M64.437,76.715c-.892.388-1.763.829-2.591,1.29-.063.042-.136.073-.2.115A37.993,37.993,0,0,0,55.1,82.936a53.189,53.189,0,0,1,10.271-5.2c3.032-1.091,5.508-1.49,7.27-1.2-.7-.556-1.427-1.1-2.151-1.637A28.358,28.358,0,0,0,64.437,76.715Z" transform="translate(-49.353 -67.043)" fill="none"/>
          <path id="Path_274" data-name="Path 274" d="M378.518,16.473A7.937,7.937,0,0,0,379.609,8.3a5.045,5.045,0,0,0-3.42,2.025,8.913,8.913,0,0,0-1.637,4.553.4.4,0,0,1-.052.157,28.845,28.845,0,0,1,3.7,1.29C378.308,16.378,378.413,16.42,378.518,16.473Z" transform="translate(-335.245 -7.43)" fill="none"/>
          <path id="Path_275" data-name="Path 275" d="M339.285,78.005a27.078,27.078,0,0,0-8.634-3.105c-.724.535-1.448,1.081-2.151,1.637,1.762-.294,4.238.1,7.27,1.2a53.188,53.188,0,0,1,10.271,5.2,38.833,38.833,0,0,0-6.546-4.815C339.421,78.079,339.348,78.047,339.285,78.005Z" transform="translate(-294.071 -67.043)" fill="none"/>
          <path id="Path_276" data-name="Path 276" d="M297.924,112.361a1.743,1.743,0,0,0-1.563.682,4.059,4.059,0,0,0-.608,4.112,1.2,1.2,0,0,0,.1.2.01.01,0,0,0,.01.01,1.039,1.039,0,0,0,.115.178.01.01,0,0,0,.01.01c.042.063.084.115.126.168h0a1.422,1.422,0,0,0,.126.126l.01.01a.821.821,0,0,1-.094-.22,1.569,1.569,0,0,1-.084-.493,1.1,1.1,0,1,1,2.161,0,1.411,1.411,0,0,1-.4,1h0a.583.583,0,0,0,.178-.094c.01-.01.021-.01.042-.021.042-.021.073-.052.115-.073s.052-.042.084-.063a.229.229,0,0,0,.052-.042c.042-.031.084-.073.126-.1l.031-.031.136-.136a3.832,3.832,0,0,0,.871-1.972C299.728,113.987,299.026,112.528,297.924,112.361Z" transform="translate(-264.481 -100.559)" fill="none"/>
          <path id="Path_277" data-name="Path 277" d="M249.026,162c-.042.063-.084.115-.126.168" transform="translate(-222.822 -145.005)" fill="none" stroke="#cebb9c" stroke-linecap="round" stroke-linejoin="round" stroke-width="1"/>
          <path id="Path_278" data-name="Path 278" d="M250.215,160.2a1.039,1.039,0,0,1-.115.178" transform="translate(-223.896 -143.394)" fill="none" stroke="#cebb9c" stroke-linecap="round" stroke-linejoin="round" stroke-width="1"/>
          <path id="Path_279" data-name="Path 279" d="M251.4,158.2a1.193,1.193,0,0,1-.1.2" transform="translate(-224.97 -141.604)" fill="none" stroke="#cebb9c" stroke-linecap="round" stroke-linejoin="round" stroke-width="1"/>
          <path id="Path_280" data-name="Path 280" d="M229,165.9a.7.7,0,0,0,.115.073" transform="translate(-205.009 -148.496)" fill="none" stroke="#cebb9c" stroke-linecap="round" stroke-linejoin="round" stroke-width="1"/>
          <path id="Path_281" data-name="Path 281" d="M226.231,163.631l-.031-.031" transform="translate(-202.503 -146.437)" fill="none" stroke="#cebb9c" stroke-linecap="round" stroke-linejoin="round" stroke-width="1"/>
          <path id="Path_282" data-name="Path 282" d="M227.752,164.942a.229.229,0,0,1-.052-.042" transform="translate(-203.846 -147.601)" fill="none" stroke="#cebb9c" stroke-linecap="round" stroke-linejoin="round" stroke-width="1"/>
          <path id="Path_283" data-name="Path 283" d="M57.908,18.186c-.273-.378-.881-.388-2.182-.031a41.032,41.032,0,0,0-9.138-7.543A9.579,9.579,0,0,0,45.665.173L45.549.026,45.36.016a5.73,5.73,0,0,0-4.773,2.371,9.9,9.9,0,0,0-1.8,4.983v.052c-.766-.189-1.521-.336-2.245-.462h-.031a59.95,59.95,0,0,0-7.281-.546h-.1a59.812,59.812,0,0,0-7.281.546h-.031c-.724.126-1.479.273-2.245.462V7.37a9.941,9.941,0,0,0-1.8-4.983A5.684,5.684,0,0,0,13,.016l-.189.01-.115.147a9.579,9.579,0,0,0-.923,10.439A41.062,41.062,0,0,0,2.63,18.155c-1.3-.357-1.9-.336-2.182.031a.7.7,0,0,0-.084.64c.231.745,1.637,2.13,3.693,3.63H5.515c-.084-.052-.157-.115-.231-.157a16.068,16.068,0,0,1-4.039-3.556,7.1,7.1,0,0,1,1.49.315l2.035.6-1.364-1.1c.1-.115.231-.262.4-.43l.094.031a43.012,43.012,0,0,0,9.61,2.13,30.8,30.8,0,0,0,3.242.147,44.693,44.693,0,0,0,6.914-.546c.462-.073.955-.168,1.448-.294l-.136.157a4.045,4.045,0,0,0-1.29,2.654H24.84a7.075,7.075,0,0,1,1-1.888c.409-.567.535-.556,1.06-1.206a8.112,8.112,0,0,0,1.469-2.465,5.289,5.289,0,0,0,.367-1.888A5.838,5.838,0,0,0,27.525,11.7,10.019,10.019,0,0,0,25.71,9.709a20.47,20.47,0,0,0-2.654-2.088c.1-.01.21-.031.325-.042-.01-.01-.021-.01-.031-.021.01,0,.021.01.031.021C24.8,7.4,27.169,7.318,29.194,7.3c2.014.031,4.4.115,5.812.283.01-.01.021-.01.031-.021-.01,0-.021.01-.031.021.1.01.21.031.325.042a21.428,21.428,0,0,0-2.654,2.088A10.019,10.019,0,0,0,30.862,11.7a5.838,5.838,0,0,0-1.206,3.252,5.289,5.289,0,0,0,.367,1.888,8.112,8.112,0,0,0,1.469,2.465c.525.65.65.64,1.06,1.206a7.753,7.753,0,0,1,1,1.888H34.7a4.045,4.045,0,0,0-1.29-2.654l-.136-.157a13.127,13.127,0,0,0,1.448.294,44.6,44.6,0,0,0,6.914.546,30.568,30.568,0,0,0,3.242-.147,42.314,42.314,0,0,0,9.61-2.13l.094-.031c.168.178.294.315.4.43l-1.364,1.1,2.035-.6a7.1,7.1,0,0,1,1.49-.315A15.634,15.634,0,0,1,53.1,22.3c-.073.052-.157.1-.231.157H54.33c2.056-1.5,3.473-2.885,3.693-3.63A.79.79,0,0,0,57.908,18.186ZM13.667.866a5.045,5.045,0,0,1,3.42,2.025,9.185,9.185,0,0,1,1.637,4.564.4.4,0,0,0,.052.157,28.845,28.845,0,0,0-3.7,1.29c-.1.042-.21.094-.315.136A7.957,7.957,0,0,1,13.667.866Zm-2.151,4.5a8.818,8.818,0,0,1,.8-3.011,8.893,8.893,0,0,0,1.658,7.06c-.5.241-1,.5-1.479.776A8.766,8.766,0,0,1,11.516,5.366Zm13.072,6.442a1.743,1.743,0,0,1,1.563.682A4.059,4.059,0,0,1,26.76,16.6a1.2,1.2,0,0,1-.1.2.01.01,0,0,1-.01.01,1.04,1.04,0,0,1-.115.178.01.01,0,0,1-.01.01c-.042.063-.084.115-.126.168h0a1.424,1.424,0,0,1-.126.126l-.01.01a.822.822,0,0,0,.094-.22,1.57,1.57,0,0,0,.084-.493,1.1,1.1,0,1,0-2.161,0,1.411,1.411,0,0,0,.4,1h0a.583.583,0,0,1-.178-.094c-.01-.01-.021-.01-.042-.021-.042-.021-.073-.052-.115-.073s-.052-.042-.084-.063a.229.229,0,0,1-.052-.042c-.042-.031-.084-.073-.126-.1l-.031-.031-.136-.136a3.832,3.832,0,0,1-.871-1.972C22.783,13.434,23.476,11.976,24.588,11.808ZM23.6,9.5c-1.763-.294-4.238.1-7.27,1.2A53.188,53.188,0,0,0,6.061,15.9a38.833,38.833,0,0,1,6.546-4.815c.063-.042.136-.073.2-.115a27.078,27.078,0,0,1,8.634-3.105C22.185,8.4,22.9,8.944,23.6,9.5Zm22.43-7.144a8.709,8.709,0,0,1,.8,3.011,8.64,8.64,0,0,1-.976,4.815c-.483-.273-.976-.525-1.479-.776A8.86,8.86,0,0,0,46.032,2.355Zm-6.4,5.1A9.085,9.085,0,0,1,41.269,2.89,5.067,5.067,0,0,1,44.689.866,7.934,7.934,0,0,1,43.6,9.038c-.1-.042-.21-.094-.315-.136a27.327,27.327,0,0,0-3.7-1.29A.553.553,0,0,0,39.632,7.454Zm-4.3,7.6a3.748,3.748,0,0,1-.871,1.972,1.671,1.671,0,0,1-.136.136l-.031.031a1.111,1.111,0,0,1-.126.1.229.229,0,0,0-.052.042c-.031.021-.052.042-.084.063a.706.706,0,0,1-.115.073c-.01.01-.021.01-.042.021-.063.031-.126.063-.178.094h0a1.411,1.411,0,0,0,.4-1,1.1,1.1,0,1,0-2.161,0,1.472,1.472,0,0,0,.084.493l.094.22-.01-.01-.126-.126h0c-.042-.052-.084-.1-.126-.168a.01.01,0,0,0-.01-.01,1.039,1.039,0,0,1-.115-.178.01.01,0,0,0-.01-.01,1.2,1.2,0,0,1-.1-.2,3.8,3.8,0,0,1-.262-2.14,3.748,3.748,0,0,1,.871-1.972,1.8,1.8,0,0,1,1.563-.682C34.869,11.976,35.572,13.434,35.331,15.049ZM42.014,10.7c-3.032-1.091-5.508-1.49-7.27-1.2.713-.556,1.427-1.1,2.151-1.626a27.688,27.688,0,0,1,6.043,1.815c.892.388,1.762.829,2.591,1.29.063.042.136.073.2.115a37.993,37.993,0,0,1,6.546,4.815A52.046,52.046,0,0,0,42.014,10.7Z" transform="translate(-0.325 -0.006)" fill="#b9a689"/>
          <path id="Path_284" data-name="Path 284" d="M300.826,162.168c-.042-.052-.084-.1-.126-.168" transform="translate(-269.187 -145.005)" fill="none" stroke="#cebb9c" stroke-linecap="round" stroke-linejoin="round" stroke-width="1"/>
          <path id="Path_285" data-name="Path 285" d="M299.615,160.478a1.04,1.04,0,0,1-.115-.178" transform="translate(-268.113 -143.483)" fill="none" stroke="#cebb9c" stroke-linecap="round" stroke-linejoin="round" stroke-width="1"/>
          <path id="Path_286" data-name="Path 286" d="M298.5,158.4a1.2,1.2,0,0,1-.1-.2" transform="translate(-267.129 -141.604)" fill="none" stroke="#cebb9c" stroke-linecap="round" stroke-linejoin="round" stroke-width="1"/>
          <path id="Path_287" data-name="Path 287" d="M320.715,165.9a.7.7,0,0,1-.115.073" transform="translate(-287 -148.496)" fill="none" stroke="#cebb9c" stroke-linecap="round" stroke-linejoin="round" stroke-width="1"/>
          <path id="Path_288" data-name="Path 288" d="M324.231,163.6l-.031.031" transform="translate(-290.222 -146.437)" fill="none" stroke="#cebb9c" stroke-linecap="round" stroke-linejoin="round" stroke-width="1"/>
          <path id="Path_289" data-name="Path 289" d="M322.552,164.9a.229.229,0,0,0-.052.042" transform="translate(-288.7 -147.601)" fill="none" stroke="#cebb9c" stroke-linecap="round" stroke-linejoin="round" stroke-width="1"/>
          <path id="Path_290" data-name="Path 290" d="M256.227,199.46h0c-.021-.01-.031,0-.052,0h-.052v.01c-.934.073-2.088.451-2.193,1.133a.838.838,0,0,0,.042.388h4.385a.838.838,0,0,0,.042-.388C258.3,199.911,257.151,199.534,256.227,199.46Z" transform="translate(-227.316 -178.531)" fill="#b9a689"/>
        </g>
        <rect id="Rectangle_257" data-name="Rectangle 257" width="43.863" height="0.168" transform="translate(6.922 22.797)" fill="#b9a689"/>
      </g>
    </g>
  </g>
</svg>
