<?xml version="1.0" standalone="no"?>
<!DOCTYPE svg PUBLIC "-//W3C//DTD SVG 1.1//EN" "http://www.w3.org/Graphics/SVG/1.1/DTD/svg11.dtd" >
<svg xmlns="http://www.w3.org/2000/svg" xmlns:xlink="http://www.w3.org/1999/xlink" version="1.1">
<metadata>
Created by FontForge 20170731 at Sun Jul 29 05:06:30 2018
 By Aleksey,,,
</metadata>
<defs>
<font id="VelocityDEMORegular" horiz-adv-x="0" >
  <font-face 
    font-family="Velocity - DEMO"
    font-weight="400"
    font-stretch="normal"
    units-per-em="1000"
    panose-1="0 0 0 0 0 0 0 0 0 0"
    ascent="800"
    descent="-200"
    x-height="222"
    cap-height="785.5"
    bbox="-371.072 -434.882 1344.25 832.253"
    underline-thickness="0"
    underline-position="0"
    unicode-range="U+000A-F08B"
  />
<missing-glyph horiz-adv-x="525" 
 />
    <glyph glyph-name=".notdef" horiz-adv-x="525" 
 />
    <glyph glyph-name=".notdef" horiz-adv-x="525" 
 />
    <glyph glyph-name=".null" 
 />
    <glyph glyph-name="nonmarkingreturn" horiz-adv-x="333" 
 />
    <glyph glyph-name="controlLF" unicode="&#xa;" 
 />
    <glyph glyph-name="controlCR" unicode="&#xd;" 
 />
    <glyph glyph-name="space" unicode=" " horiz-adv-x="276" 
 />
    <glyph glyph-name="quotedbl" unicode="&#x22;" horiz-adv-x="155" 
d="M42 445q-3 8 3 13.5t14.5 4t10.5 -10.5q7 -19 1.5 -39t-21.5 -33q-7 -5 -15 -2t-10 10t5 13q20 17 12 44zM124 452q6 -19 1 -39t-21 -33q-7 -5 -15.5 -2t-10 10t4.5 13q20 17 12 44q-2 8 4 13.5t14 4t11 -10.5z" />
    <glyph glyph-name="numbersign" unicode="#" horiz-adv-x="687" 
d="M639 382q9 -1 12.5 -8.5t0 -14.5t-12.5 -6q-79 8 -170 6q-11 -1 -16 -11q-41 -89 -50 -110q-4 -9 1 -16.5t15 -7.5q71 -3 151 -11q9 -1 12.5 -9t0 -15t-12.5 -6q-95 10 -178 12q-12 0 -16 -11q-37 -88 -58 -161q-3 -8 -11 -9.5t-14 4t-4 13.5q19 64 50 140q3 8 -2 16
t-15 8q-47 -1 -92 -6q-11 -1 -15 -11q-36 -87 -59 -160q-2 -8 -10.5 -10t-14.5 3.5t-3 14.5q19 60 47 130q4 10 -2.5 17.5t-16.5 6.5q-57 -9 -110 -24q-9 -2 -14.5 4t-4 14t10.5 11q72 19 151 29q10 2 14 11q18 44 44 102q4 9 -2 17t-16 7q-32 -4 -93 -11t-69 -8
q-9 -1 -12.5 6t0 15t12.5 9q178 20 196 22q10 1 14 10q36 79 55 123q4 7 11 7t12.5 -7t1.5 -15q-16 -37 -38 -87q-4 -9 1.5 -17t15.5 -7q49 4 92 6q11 0 15 10q30 65 49 114q3 9 11.5 10.5t14.5 -4t2 -13.5q-16 -41 -38 -91q-4 -9 1.5 -17t14.5 -8q75 1 141 -6zM413 331
q5 9 -0.5 17t-15.5 8q-44 -3 -94 -8q-10 0 -14 -10q-28 -61 -46 -103q-3 -9 2.5 -16.5t15.5 -7.5q43 3 89 4q11 0 16 10q15 36 47 106z" />
    <glyph glyph-name="dollar" unicode="$" horiz-adv-x="372" 
d="M319 362q2 -15 -13 -18q-13 -4 -15 10q-4 25 -21 41q-8 7 -18.5 3.5t-12.5 -13.5q-12 -43 -28 -101q-4 -16 11 -23q43 -21 53 -29q26 -24 24.5 -51t-21 -50t-48.5 -34q-27 -10 -59 -11q-15 0 -18 -14q-10 -36 -18 -66q-2 -9 -10 -10.5t-14 4t-4 14.5q7 26 15 58
q2 8 -1.5 14.5t-11.5 9.5q-51 17 -70 60q-4 8 1 15t12.5 7t11.5 -7q15 -31 50 -46q8 -3 16 1t10 12q10 35 28 101q4 15 -9 22q-66 39 -60 91q4 39 36 62.5t74 26.5q14 0 18 14q3 12 5 22q1 5 -1 11q-3 6 0 12q13 23 18 49q2 8 10 10t14 -3.5t4 -14.5q-8 -39 -21 -88
q-4 -16 12 -23q44 -20 51 -68zM157 298q8 -7 18 -3.5t12 13.5q12 41 21 74q3 12 -6 20t-20 4q-30 -11 -46 -36q-24 -38 21 -72zM221 230q-9 5 -17.5 1t-10.5 -13q-12 -44 -21 -76q-3 -10 4 -18t18 -6q7 1 13 3q24 6 44 22t20 38q0 7 -3.5 13.5t-6.5 10.5t-12 10t-11.5 7
t-13.5 7q-2 1 -3 1z" />
    <glyph glyph-name="percent" unicode="%" horiz-adv-x="491" 
d="M212 292q-11 -9 -23 -13.5t-25 -2t-20 14.5q-10 14 -5 37t16 45.5t29.5 38.5t35.5 15q3 7 12 7q26 -1 35 -19.5t1 -43.5q-16 -47 -56 -79zM175 342q-17 -41 2 -37l6 2q27 13 50 57q13 24 9 34q-7 -11 -18 -3q-12 9 -27 -12t-22 -41zM436 429q5 -9 -1.5 -16.5t-15.5 -5.5
q-10 -9 -21 -21.5t-23.5 -29.5t-17.5 -24q-48 -58 -99 -124q-131 -169 -187 -263q-5 -8 -13 -7.5t-12.5 7.5t0.5 14q58 97 195 275q58 74 106 132q5 6 15 19t16.5 20.5t16 17.5t18.5 17q5 3 11.5 1t8.5 -7q1 -1 2 -2.5t1 -2.5zM316 160q48 13 52 -36q5 -46 -23 -91
q-11 -17 -23 -24q-27 -15 -39.5 7t-7.5 49q10 45 35 71q-6 5 -4.5 13.5t10.5 10.5zM314 40q8 9 19 39t7 45q-19 -7 -34 -58q-9 -32 0 -31q3 0 8 5z" />
    <glyph glyph-name="ampersand" unicode="&#x26;" horiz-adv-x="389" 
d="M329 205q8 5 14.5 1t7 -12t-6.5 -14q-17 -13 -36.5 -29t-42.5 -36t-37 -31q-5 -4 -5.5 -11t4.5 -12q36 -33 77 -47q9 -2 10.5 -10.5t-4 -14.5t-13.5 -3q-52 17 -97 60q-9 9 -20 1q-45 -33 -85 -52q-63 -29 -61 23q1 42 31 88q21 30 50 66q5 6 3 14q-13 45 -11 87
q3 78 58 122q11 9 24.5 17t30 15t33 6.5t28.5 -8.5q14 -11 19 -25t-0.5 -31.5t-12 -32.5t-22.5 -35.5t-24.5 -30.5t-25.5 -28.5t-18 -19.5q-34 -38 -37 -42q-6 -7 -3 -16q12 -28 28 -53q4 -5 10.5 -6.5t12.5 3.5q10 7 53.5 43t67.5 54zM235 400q-37 -5 -60.5 -31.5
t-31.5 -59.5t-5 -70q1 -10 11 -13t17 5q2 2 7 7.5t7 8.5q81 91 86 133q4 26 -31 20zM158 70q13 9 4 22q-11 15 -20 32q-4 8 -12.5 9t-13.5 -6q-20 -27 -35 -50q-33 -54 -23 -63q5 -4 49 22q24 15 51 34z" />
    <glyph glyph-name="parenleft" unicode="(" horiz-adv-x="306" 
d="M236 470q8 3 13.5 -2.5t4 -14t-9.5 -11.5q-82 -32 -134 -205q-10 -33 -15 -52.5t-11.5 -56t-2 -64.5t18.5 -47q9 -11 -2 -22q-11 -9 -19 2q-17 22 -23.5 54t-1.5 69.5t11 64t17 60.5q56 187 154 225z" />
    <glyph glyph-name="parenright" unicode=")" horiz-adv-x="244" 
d="M143 447q32 -30 42.5 -77t3 -94.5t-26.5 -101.5t-39.5 -94t-42.5 -77q-5 -7 -13.5 -6.5t-12 7t0.5 14.5q56 92 85 197q8 30 12.5 54t6 55t-7.5 57.5t-29 44.5q-6 6 -3.5 14t10 10t14.5 -3z" />
    <glyph glyph-name="asterisk" unicode="*" horiz-adv-x="256" 
d="M189 413q9 1 12.5 -6t0 -14.5t-12.5 -8.5q-16 -1 -36 -3q10 -12 19 -22q6 -6 3 -14t-10 -10t-14 4q-10 10 -20 22q-6 -24 -11 -41q-4 -14 -18 -10t-10 18q0 2 5 20q-6 -6 -9 -10q-6 -7 -14 -4.5t-10 10t3 14.5q8 9 19 20q-16 -1 -19 -1q-9 0 -13 7.5t0 14.5t13 8h32
q-8 13 -14 24q-4 8 1 15t12 7t13 -7q2 -5 9 -17q5 18 10 33q2 8 10.5 10t14.5 -3.5t3 -14.5q-1 -2 -6 -19q7 6 13 11q7 6 15 3t10 -10t-4 -14q-7 -6 -16 -13q17 1 19 1z" />
    <glyph glyph-name="plus" unicode="+" horiz-adv-x="447" 
d="M380 213q9 0 13 -7.5t0 -15t-13 -7.5q-48 0 -139 1q-14 0 -19 -13q-13 -39 -55 -168q-3 -8 -11.5 -10t-14.5 3.5t-3 14.5q37 112 49 148q3 9 -2.5 17.5t-15.5 8.5h-102q-9 0 -13 7.5t0 15t13 7.5q43 -1 126 -1q13 0 18 13q27 74 53 134q5 8 12 8t12 -7.5t2 -15.5
q-22 -48 -43 -107q-4 -9 2 -17.5t16 -8.5h115z" />
    <glyph glyph-name="comma" unicode="," horiz-adv-x="114" 
d="M72 452q7 -19 1.5 -39t-21.5 -33q-7 -5 -15 -2t-10 10t5 13q20 17 12 44q-3 8 3 13.5t14.5 4t10.5 -10.5z" />
    <glyph glyph-name="hyphen" unicode="-" horiz-adv-x="434" 
d="M367 218q9 0 12.5 -7.5t0 -14.5t-12.5 -7q-50 0 -150 -2t-150 -2q-9 0 -13 7.5t0 15t13 7.5q50 0 150 1.5t150 1.5z" />
    <glyph glyph-name="period" unicode="." horiz-adv-x="148" 
d="M80 52q12 -2 15 -14t-4 -23.5t-19 -11.5q-11 -1 -16.5 8.5t-1.5 19.5q4 14 14 20h1q2 1 4 1q1 1 4 1h1t1 -1h1z" />
    <glyph glyph-name="slash" unicode="/" horiz-adv-x="438" 
d="M357 472q6 7 14.5 6.5t12 -6.5t-0.5 -15q-170 -270 -303 -505q-5 -7 -12.5 -7t-12.5 7t0 15q120 212 274 459q-3 8 3 14q14 15 25 32z" />
    <glyph glyph-name="zero" unicode="0" horiz-adv-x="496" 
d="M228 461q37 16 75.5 19t71.5 -6.5t52.5 -40t15.5 -78.5q-6 -74 -58 -148t-123 -133q-118 -99 -177 -36q-54 58 -19 199q38 149 145 226q9 6 17 -2zM360 228q73 109 49 174q-10 28 -32 41.5t-49 12.5t-52.5 -8t-49.5 -20q-6 -3 -12 0q-93 -75 -123 -215q-5 -22 -7 -46
t-0.5 -53.5t15.5 -49t40 -21.5q30 -2 63.5 17t64.5 51.5t52.5 60t40.5 56.5z" />
    <glyph glyph-name="one" unicode="1" horiz-adv-x="290" 
d="M213 477q7 8 17.5 2t6.5 -16q-11 -34 -32 -90q-89 -249 -123 -354q-3 -9 -11.5 -10.5t-14 4t-3.5 13.5q34 105 129 368q1 3 -0.5 4t-3.5 -1q-8 -8 -14 -15q-10 -10 -20.5 0.5t-0.5 20.5q12 12 35 37t35 37z" />
    <glyph glyph-name="two" unicode="2" horiz-adv-x="440" 
d="M373 36q9 1 12.5 -6.5t0 -15t-12.5 -7.5q-39 -1 -306 0q-9 0 -12.5 6.5t-1.5 13.5q1 0 1 2h1q0 1 1 2v1h1q8 9 67 69t80.5 83.5t59.5 70.5t63 87q39 66 21 95q-16 29 -66 16q-12 -3 -31 -12.5t-38.5 -23.5t-26 -29.5t6.5 -29.5q6 -7 3 -15t-10 -10t-14 4q-40 39 7 90
q41 45 104 57q57 11 84 -20q17 -19 18 -43.5t-11.5 -51.5t-23.5 -45t-28 -40q-70 -92 -210 -237q-3 -3 -1 -7t6 -4q185 -1 256 0z" />
    <glyph glyph-name="three" unicode="3" horiz-adv-x="435" 
d="M349 245q31 -31 33 -82.5t-22 -87.5q-24 -37 -67 -60.5t-88.5 -27t-88 17t-62.5 64.5q-4 8 1 15t12.5 7t11.5 -7q23 -48 74.5 -62t103 6t77.5 62q24 35 17.5 81.5t-43.5 68.5q-34 19 -104 19q-11 0 -13.5 11t5.5 16q4 5 11 5q41 -4 85 37.5t40 82.5q-3 29 -29.5 41
t-53.5 1q-27 -12 -42.5 -37.5t-17.5 -56.5q0 -9 -7.5 -13t-14.5 0t-7 13q2 40 22.5 73.5t56.5 47.5q31 14 64 3.5t50 -41.5q16 -37 1.5 -74t-50.5 -68q-7 -6 -5.5 -15t10.5 -13q24 -10 40 -27z" />
    <glyph glyph-name="four" unicode="4" horiz-adv-x="522" 
d="M442 475q6 12 18.5 6.5t8.5 -17.5q-41 -106 -88 -230q8 -6 5.5 -16.5t-13.5 -10.5h-1q-37 -98 -75 -204q-3 -9 -11.5 -10.5t-14.5 4t-3 14.5q37 102 73 198q-131 8 -152 8q-10 0 -24 -1q-83 -70 -110 -30q-5 6 0 15q20 37 92 44q134 115 189 219q5 7 12.5 7t12.5 -7
t0 -15q-13 -26 -62.5 -89.5t-99.5 -112.5q23 0 48.5 -1.5t56.5 -4t48 -3.5q23 64 44 117q-7 2 -10.5 8t1.5 13q15 23 32 54q9 16 23 45z" />
    <glyph glyph-name="five" unicode="5" horiz-adv-x="489" 
d="M422 472q9 0 12.5 -7t0 -14.5t-12.5 -7.5q-159 0 -207 1q-18 0 -26 -16q-27 -62 -42 -104q-1 -4 2 -7.5t8 -2.5q48 9 101 3t94 -27.5t51.5 -60.5t-25.5 -95q-23 -35 -61 -65t-80.5 -45.5t-81.5 -14.5t-67.5 31.5t-34.5 88.5q-1 9 6 12.5t14.5 0t8.5 -12.5q5 -49 29.5 -72
t57 -20.5t68.5 18t67 41.5t49 52q55 82 -23 122q-60 31 -149 19q-30 -4 -51 -13q-13 -6 -21 7q-4 5 -2 12q17 61 66 167q2 12 14 12q46 -2 104 -2h43.5h44h43.5z" />
    <glyph glyph-name="six" unicode="6" horiz-adv-x="447" 
d="M390 452q6 -7 1.5 -14t-12.5 -7.5t-14 6.5q-18 25 -52.5 21.5t-66 -18.5t-51.5 -33q-43 -37 -77 -115q-6 -14 -12 -34q-2 -7 3.5 -10.5t10.5 1.5q36 37 80.5 50.5t94.5 -2.5q87 -33 71 -116q-12 -69 -80 -127q-73 -63 -139 -49q-44 8 -70 52q-22 36 -24.5 82.5t11 92
t33.5 86.5t45 74q26 35 71.5 62.5t95 33t81.5 -35.5zM312 253q-34 31 -73 26t-72 -29.5t-55 -62.5t-23 -73q12 -98 102 -77q40 10 83.5 47.5t60.5 83t-23 85.5z" />
    <glyph glyph-name="seven" unicode="7" horiz-adv-x="445" 
d="M368 492q7 5 14.5 1.5t9.5 -10t-4 -13.5q-1 0 -1.5 -0.5t-0.5 -1.5q-1 -1 -2 -1q-100 -92 -179.5 -211.5t-118.5 -242.5q-2 -9 -10.5 -10.5t-14.5 4t-3 13.5q34 110 100 218t152 197q4 4 1.5 9.5t-8.5 4.5q-34 -5 -87 -8q-32 -3 -76.5 -2.5t-76.5 9.5q-9 3 -10.5 11t4 14
t14.5 4q72 -17 149 -11.5t148 26.5z" />
    <glyph glyph-name="eight" unicode="8" horiz-adv-x="391" 
d="M246 205q-4 -4 -9 -5q40 -54 36 -97q-2 -28 -22 -54.5t-48 -40.5t-59 -16.5t-57 17.5q-37 31 -34.5 81t26.5 99.5t55 74.5q4 4 9 4q3 0 5 2.5t0 5.5q-7 16 -9 32q-11 71 28 134q18 28 51 46t66.5 11.5t47.5 -44.5q9 -22 6 -50.5t-11 -54.5t-22.5 -54t-29 -49.5
t-29.5 -41.5zM189 422q-53 -92 26 -194q2 -2 5.5 -3t4.5 1q60 75 78 158q15 71 -25 86q-25 9 -49.5 -6.5t-39.5 -41.5zM214 52q53 50 5 122q-8 13 -29.5 39.5t-30.5 41.5q2 -7 -5 -12q-23 -19 -45 -62t-27 -86t28 -66q27 -12 55 -4.5t49 27.5z" />
    <glyph glyph-name="nine" unicode="9" horiz-adv-x="406" 
d="M353 454v-2v-1v-3q-2 -91 -35.5 -193.5t-85.5 -176.5q-26 -38 -60.5 -63.5t-70.5 -16.5q-25 6 -37.5 30t-11.5 51t10 50q6 14 22 8q11 -5 7 -16q-5 -11 -7.5 -25t-1.5 -29t8.5 -26.5t20.5 -14.5q24 -5 61 26q46 40 86 138q12 28 21 54q2 5 -1 7t-7 -2q-9 -8 -18 -15
q-20 -15 -43.5 -22.5t-48.5 -3t-41 24.5q-43 51 -11 134q27 71 83 105q64 38 115 -12q6 -6 3.5 -14t-10 -10t-14.5 3q-41 41 -97 -5q-48 -40 -62 -102q-15 -64 26 -90q24 -15 53.5 -1.5t52.5 37.5q58 63 65 176q0 8 7.5 12t15 0.5t6.5 -12.5z" />
    <glyph glyph-name="colon" unicode=":" horiz-adv-x="162" 
d="M93 274q13 -2 16 -14.5t-4 -23.5t-19 -12q-11 0 -16.5 9.5t-1.5 19.5q4 14 14 19l1 1q2 1 4 1h4h1h1zM80 191q12 -2 15 -14.5t-4 -24t-19 -11.5q-11 0 -16.5 9t-1.5 20q4 14 14 19q1 0 1 1q2 1 4 1h4h1h1h1z" />
    <glyph glyph-name="semicolon" unicode=";" horiz-adv-x="173" 
d="M105 281q12 -2 15 -14.5t-4 -23.5t-19 -12q-10 0 -16 9.5t-2 19.5q4 14 14 19l1 1q2 1 4 1h4h1h1h1zM80 185q14 -1 20 -8.5t5 -18t-6 -22t-12 -21t-13 -14.5q-8 -5 -14.5 -0.5t-7 12t6.5 13.5q8 6 14 21q1 2 3 9q-11 4 -9.5 16.5t13.5 12.5z" />
    <glyph glyph-name="less" unicode="&#x3c;" horiz-adv-x="269" 
d="M210 137q7 -5 6.5 -13.5t-7 -12.5t-14.5 0q-77 53 -138 101q-6 5 -4.5 12t7.5 11q26 18 74 56t53 42q12 10 19 -5q6 -12 -4 -20q-15 -11 -45 -35t-46 -36q-7 -6 -7 -15t7 -15q45 -33 99 -70z" />
    <glyph glyph-name="equal" unicode="=" horiz-adv-x="390" 
d="M299 92q14 1 11 -13q-4 -15 -19 -16q-116 -6 -228 3q-13 1 -10 15q4 16 18 14q112 -9 228 -3zM327 194q14 1 10 -13q-4 -15 -18 -16q-117 -6 -229 3q-13 1 -10 15q4 15 18 14q112 -9 229 -3z" />
    <glyph glyph-name="greater" unicode="&#x3e;" horiz-adv-x="269" 
d="M209 241q6 -4 7 -11t-4 -12q-43 -34 -138 -107q-8 -5 -14.5 -0.5t-7 12t6.5 14.5q64 48 100 77q7 5 6.5 13.5t-6.5 12.5q-26 18 -94 65q-7 6 -6.5 14.5t7 12t14.5 -0.5q99 -69 129 -90z" />
    <glyph glyph-name="question" unicode="?" horiz-adv-x="323" 
d="M121 11q13 -3 16 -15t-4 -23.5t-19 -11.5q-11 0 -16.5 9t-2.5 19q5 14 15 20h1l4 2h4h1h1v0zM226 430q25 -16 36 -41.5t8.5 -52t-14.5 -53.5q-14 -30 -41.5 -73.5t-48.5 -83t-28 -79.5q-2 -9 -9.5 -10.5t-14 4t-4.5 14.5q7 41 30 83t51 86t41 78q7 18 7 39t-6.5 38.5
t-23.5 26.5t-41 3q-18 -5 -42.5 -22t-38 -39t5.5 -42q7 -6 4 -14t-10 -10t-15 4q-30 38 -9 78.5t74.5 64t88.5 1.5z" />
    <glyph glyph-name="at" unicode="@" horiz-adv-x="534" 
d="M452 387q24 -23 28 -62.5t-9.5 -78t-38 -72t-51.5 -46.5q-38 -15 -56 -3.5t-22 42.5q-2 12 -13.5 16.5t-20.5 -3.5q-20 -19 -39 -31q-21 -14 -35.5 -5t-8.5 34q10 50 62 90.5t97 22.5q1 0 3 1.5t3 2.5q8 5 14.5 0t6.5 -14q1 -4 -1 -7q7 -8 2 -17t-14 -8q-11 1 -17 -10
q-18 -32 -15 -54t15.5 -28t27 0.5t27.5 20.5q24 27 39 66t14 74q-2 31 -22 49t-47 18.5t-55 -6.5q-61 -20 -129 -90q-19 -18 -37 -40t-38 -54t-31 -61t-9.5 -60t21.5 -53q21 -23 55.5 -26t70.5 10t67 31t52 37q6 6 14.5 3t10 -10t-3.5 -14q-26 -23 -64 -44t-81 -34.5
t-84 -5.5t-65 40q-19 27 -21.5 60t7 64t28.5 64t38 57.5t40 46.5q27 29 59 54t72 46t81 19t73 -32zM303 254q3 3 1.5 6.5t-4.5 1.5q-19 -6 -39 -22q-19 -15 -32 -34q-3 -4 -7 -16q-1 -3 2 -5t5 0q14 12 33 29l20.5 20.5t20.5 19.5z" />
    <glyph glyph-name="A" unicode="A" horiz-adv-x="1296" 
d="M1330 170q9 1 12.5 -6t0 -15t-12.5 -9q-85 -8 -251 -20q-8 -1 -11 -3t-7 -11q-84 -204 -138 -316q-5 -8 -12 -8t-12 7t-1 15q72 149 132 302q5 11 -3 10q-232 -16 -318 -25q-19 -2 -28 -15q-82 -119 -137 -190q-3 -5 -24 -32.5t-30 -39t-31.5 -38t-36.5 -39t-37 -31.5
t-41.5 -28t-41 -15t-44.5 -4q-73 6 -136.5 44.5t-93.5 102.5q-15 34 -19.5 68.5t8 69t44.5 54.5q18 11 42 21t41.5 16t50 13t44.5 9.5t50.5 8.5t43.5 7q17 3 38 6t43.5 6t46 6.5t46.5 6t44 5.5t39 5t31 3.5t21 2.5l8 1q23 3 35 19q45 65 150 226t167 245q3 4 12.5 18
t18.5 26t22 29.5t26 31.5t27.5 29t28.5 25t28.5 16.5t28.5 6.5t25 -8q13 -8 19 -22.5t5 -38.5t-2 -32.5t-5 -32.5q-18 -106 -76 -278q-35 -104 -78 -217q-2 -5 -0.5 -7t9.5 -1q206 16 239 20zM643 72q5 8 3 10.5t-12 1.5q-173 -19 -279 -37q-9 -1 -64 -9.5t-78.5 -13.5
t-62.5 -17.5t-65 -28.5q-53 -35 -50 -86t36.5 -99t77.5 -72q120 -66 210 7q33 27 67.5 62.5t56 60t59.5 77t48.5 67.5t52.5 77zM1051 158q54 142 89 250q1 3 8.5 26.5t9 27.5t8.5 25.5t8.5 28.5t7.5 26.5t8 28.5t6 26t6 29l4.5 27t3.5 28q1 12 1.5 20t0.5 20t-2.5 18.5
t-7.5 11.5t-13.5 3t-20.5 -10q-24 -16 -50.5 -42.5t-39 -43.5t-39.5 -53q-62 -81 -157 -226q-20 -29 -76.5 -115.5t-87.5 -133.5q-3 -2 -1 -5.5t7 -2.5q218 17 310 24q12 1 17 12z" />
    <glyph glyph-name="A" unicode="&#xc5;" horiz-adv-x="1296" 
d="M1330 170q9 1 12.5 -6t0 -15t-12.5 -9q-85 -8 -251 -20q-8 -1 -11 -3t-7 -11q-84 -204 -138 -316q-5 -8 -12 -8t-12 7t-1 15q72 149 132 302q5 11 -3 10q-232 -16 -318 -25q-19 -2 -28 -15q-82 -119 -137 -190q-3 -5 -24 -32.5t-30 -39t-31.5 -38t-36.5 -39t-37 -31.5
t-41.5 -28t-41 -15t-44.5 -4q-73 6 -136.5 44.5t-93.5 102.5q-15 34 -19.5 68.5t8 69t44.5 54.5q18 11 42 21t41.5 16t50 13t44.5 9.5t50.5 8.5t43.5 7q17 3 38 6t43.5 6t46 6.5t46.5 6t44 5.5t39 5t31 3.5t21 2.5l8 1q23 3 35 19q45 65 150 226t167 245q3 4 12.5 18
t18.5 26t22 29.5t26 31.5t27.5 29t28.5 25t28.5 16.5t28.5 6.5t25 -8q13 -8 19 -22.5t5 -38.5t-2 -32.5t-5 -32.5q-18 -106 -76 -278q-35 -104 -78 -217q-2 -5 -0.5 -7t9.5 -1q206 16 239 20zM643 72q5 8 3 10.5t-12 1.5q-173 -19 -279 -37q-9 -1 -64 -9.5t-78.5 -13.5
t-62.5 -17.5t-65 -28.5q-53 -35 -50 -86t36.5 -99t77.5 -72q120 -66 210 7q33 27 67.5 62.5t56 60t59.5 77t48.5 67.5t52.5 77zM1051 158q54 142 89 250q1 3 8.5 26.5t9 27.5t8.5 25.5t8.5 28.5t7.5 26.5t8 28.5t6 26t6 29l4.5 27t3.5 28q1 12 1.5 20t0.5 20t-2.5 18.5
t-7.5 11.5t-13.5 3t-20.5 -10q-24 -16 -50.5 -42.5t-39 -43.5t-39.5 -53q-62 -81 -157 -226q-20 -29 -76.5 -115.5t-87.5 -133.5q-3 -2 -1 -5.5t7 -2.5q218 17 310 24q12 1 17 12z" />
    <glyph glyph-name="A" unicode="&#xc4;" horiz-adv-x="1296" 
d="M1330 170q9 1 12.5 -6t0 -15t-12.5 -9q-85 -8 -251 -20q-8 -1 -11 -3t-7 -11q-84 -204 -138 -316q-5 -8 -12 -8t-12 7t-1 15q72 149 132 302q5 11 -3 10q-232 -16 -318 -25q-19 -2 -28 -15q-82 -119 -137 -190q-3 -5 -24 -32.5t-30 -39t-31.5 -38t-36.5 -39t-37 -31.5
t-41.5 -28t-41 -15t-44.5 -4q-73 6 -136.5 44.5t-93.5 102.5q-15 34 -19.5 68.5t8 69t44.5 54.5q18 11 42 21t41.5 16t50 13t44.5 9.5t50.5 8.5t43.5 7q17 3 38 6t43.5 6t46 6.5t46.5 6t44 5.5t39 5t31 3.5t21 2.5l8 1q23 3 35 19q45 65 150 226t167 245q3 4 12.5 18
t18.5 26t22 29.5t26 31.5t27.5 29t28.5 25t28.5 16.5t28.5 6.5t25 -8q13 -8 19 -22.5t5 -38.5t-2 -32.5t-5 -32.5q-18 -106 -76 -278q-35 -104 -78 -217q-2 -5 -0.5 -7t9.5 -1q206 16 239 20zM643 72q5 8 3 10.5t-12 1.5q-173 -19 -279 -37q-9 -1 -64 -9.5t-78.5 -13.5
t-62.5 -17.5t-65 -28.5q-53 -35 -50 -86t36.5 -99t77.5 -72q120 -66 210 7q33 27 67.5 62.5t56 60t59.5 77t48.5 67.5t52.5 77zM1051 158q54 142 89 250q1 3 8.5 26.5t9 27.5t8.5 25.5t8.5 28.5t7.5 26.5t8 28.5t6 26t6 29l4.5 27t3.5 28q1 12 1.5 20t0.5 20t-2.5 18.5
t-7.5 11.5t-13.5 3t-20.5 -10q-24 -16 -50.5 -42.5t-39 -43.5t-39.5 -53q-62 -81 -157 -226q-20 -29 -76.5 -115.5t-87.5 -133.5q-3 -2 -1 -5.5t7 -2.5q218 17 310 24q12 1 17 12z" />
    <glyph glyph-name="A" unicode="&#xc3;" horiz-adv-x="1296" 
d="M1330 170q9 1 12.5 -6t0 -15t-12.5 -9q-85 -8 -251 -20q-8 -1 -11 -3t-7 -11q-84 -204 -138 -316q-5 -8 -12 -8t-12 7t-1 15q72 149 132 302q5 11 -3 10q-232 -16 -318 -25q-19 -2 -28 -15q-82 -119 -137 -190q-3 -5 -24 -32.5t-30 -39t-31.5 -38t-36.5 -39t-37 -31.5
t-41.5 -28t-41 -15t-44.5 -4q-73 6 -136.5 44.5t-93.5 102.5q-15 34 -19.5 68.5t8 69t44.5 54.5q18 11 42 21t41.5 16t50 13t44.5 9.5t50.5 8.5t43.5 7q17 3 38 6t43.5 6t46 6.5t46.5 6t44 5.5t39 5t31 3.5t21 2.5l8 1q23 3 35 19q45 65 150 226t167 245q3 4 12.5 18
t18.5 26t22 29.5t26 31.5t27.5 29t28.5 25t28.5 16.5t28.5 6.5t25 -8q13 -8 19 -22.5t5 -38.5t-2 -32.5t-5 -32.5q-18 -106 -76 -278q-35 -104 -78 -217q-2 -5 -0.5 -7t9.5 -1q206 16 239 20zM643 72q5 8 3 10.5t-12 1.5q-173 -19 -279 -37q-9 -1 -64 -9.5t-78.5 -13.5
t-62.5 -17.5t-65 -28.5q-53 -35 -50 -86t36.5 -99t77.5 -72q120 -66 210 7q33 27 67.5 62.5t56 60t59.5 77t48.5 67.5t52.5 77zM1051 158q54 142 89 250q1 3 8.5 26.5t9 27.5t8.5 25.5t8.5 28.5t7.5 26.5t8 28.5t6 26t6 29l4.5 27t3.5 28q1 12 1.5 20t0.5 20t-2.5 18.5
t-7.5 11.5t-13.5 3t-20.5 -10q-24 -16 -50.5 -42.5t-39 -43.5t-39.5 -53q-62 -81 -157 -226q-20 -29 -76.5 -115.5t-87.5 -133.5q-3 -2 -1 -5.5t7 -2.5q218 17 310 24q12 1 17 12z" />
    <glyph glyph-name="A" unicode="&#xc2;" horiz-adv-x="1296" 
d="M1330 170q9 1 12.5 -6t0 -15t-12.5 -9q-85 -8 -251 -20q-8 -1 -11 -3t-7 -11q-84 -204 -138 -316q-5 -8 -12 -8t-12 7t-1 15q72 149 132 302q5 11 -3 10q-232 -16 -318 -25q-19 -2 -28 -15q-82 -119 -137 -190q-3 -5 -24 -32.5t-30 -39t-31.5 -38t-36.5 -39t-37 -31.5
t-41.5 -28t-41 -15t-44.5 -4q-73 6 -136.5 44.5t-93.5 102.5q-15 34 -19.5 68.5t8 69t44.5 54.5q18 11 42 21t41.5 16t50 13t44.5 9.5t50.5 8.5t43.5 7q17 3 38 6t43.5 6t46 6.5t46.5 6t44 5.5t39 5t31 3.5t21 2.5l8 1q23 3 35 19q45 65 150 226t167 245q3 4 12.5 18
t18.5 26t22 29.5t26 31.5t27.5 29t28.5 25t28.5 16.5t28.5 6.5t25 -8q13 -8 19 -22.5t5 -38.5t-2 -32.5t-5 -32.5q-18 -106 -76 -278q-35 -104 -78 -217q-2 -5 -0.5 -7t9.5 -1q206 16 239 20zM643 72q5 8 3 10.5t-12 1.5q-173 -19 -279 -37q-9 -1 -64 -9.5t-78.5 -13.5
t-62.5 -17.5t-65 -28.5q-53 -35 -50 -86t36.5 -99t77.5 -72q120 -66 210 7q33 27 67.5 62.5t56 60t59.5 77t48.5 67.5t52.5 77zM1051 158q54 142 89 250q1 3 8.5 26.5t9 27.5t8.5 25.5t8.5 28.5t7.5 26.5t8 28.5t6 26t6 29l4.5 27t3.5 28q1 12 1.5 20t0.5 20t-2.5 18.5
t-7.5 11.5t-13.5 3t-20.5 -10q-24 -16 -50.5 -42.5t-39 -43.5t-39.5 -53q-62 -81 -157 -226q-20 -29 -76.5 -115.5t-87.5 -133.5q-3 -2 -1 -5.5t7 -2.5q218 17 310 24q12 1 17 12z" />
    <glyph glyph-name="A" unicode="&#xc1;" horiz-adv-x="1296" 
d="M1330 170q9 1 12.5 -6t0 -15t-12.5 -9q-85 -8 -251 -20q-8 -1 -11 -3t-7 -11q-84 -204 -138 -316q-5 -8 -12 -8t-12 7t-1 15q72 149 132 302q5 11 -3 10q-232 -16 -318 -25q-19 -2 -28 -15q-82 -119 -137 -190q-3 -5 -24 -32.5t-30 -39t-31.5 -38t-36.5 -39t-37 -31.5
t-41.5 -28t-41 -15t-44.5 -4q-73 6 -136.5 44.5t-93.5 102.5q-15 34 -19.5 68.5t8 69t44.5 54.5q18 11 42 21t41.5 16t50 13t44.5 9.5t50.5 8.5t43.5 7q17 3 38 6t43.5 6t46 6.5t46.5 6t44 5.5t39 5t31 3.5t21 2.5l8 1q23 3 35 19q45 65 150 226t167 245q3 4 12.5 18
t18.5 26t22 29.5t26 31.5t27.5 29t28.5 25t28.5 16.5t28.5 6.5t25 -8q13 -8 19 -22.5t5 -38.5t-2 -32.5t-5 -32.5q-18 -106 -76 -278q-35 -104 -78 -217q-2 -5 -0.5 -7t9.5 -1q206 16 239 20zM643 72q5 8 3 10.5t-12 1.5q-173 -19 -279 -37q-9 -1 -64 -9.5t-78.5 -13.5
t-62.5 -17.5t-65 -28.5q-53 -35 -50 -86t36.5 -99t77.5 -72q120 -66 210 7q33 27 67.5 62.5t56 60t59.5 77t48.5 67.5t52.5 77zM1051 158q54 142 89 250q1 3 8.5 26.5t9 27.5t8.5 25.5t8.5 28.5t7.5 26.5t8 28.5t6 26t6 29l4.5 27t3.5 28q1 12 1.5 20t0.5 20t-2.5 18.5
t-7.5 11.5t-13.5 3t-20.5 -10q-24 -16 -50.5 -42.5t-39 -43.5t-39.5 -53q-62 -81 -157 -226q-20 -29 -76.5 -115.5t-87.5 -133.5q-3 -2 -1 -5.5t7 -2.5q218 17 310 24q12 1 17 12z" />
    <glyph glyph-name="A" unicode="&#xc0;" horiz-adv-x="1296" 
d="M1330 170q9 1 12.5 -6t0 -15t-12.5 -9q-85 -8 -251 -20q-8 -1 -11 -3t-7 -11q-84 -204 -138 -316q-5 -8 -12 -8t-12 7t-1 15q72 149 132 302q5 11 -3 10q-232 -16 -318 -25q-19 -2 -28 -15q-82 -119 -137 -190q-3 -5 -24 -32.5t-30 -39t-31.5 -38t-36.5 -39t-37 -31.5
t-41.5 -28t-41 -15t-44.5 -4q-73 6 -136.5 44.5t-93.5 102.5q-15 34 -19.5 68.5t8 69t44.5 54.5q18 11 42 21t41.5 16t50 13t44.5 9.5t50.5 8.5t43.5 7q17 3 38 6t43.5 6t46 6.5t46.5 6t44 5.5t39 5t31 3.5t21 2.5l8 1q23 3 35 19q45 65 150 226t167 245q3 4 12.5 18
t18.5 26t22 29.5t26 31.5t27.5 29t28.5 25t28.5 16.5t28.5 6.5t25 -8q13 -8 19 -22.5t5 -38.5t-2 -32.5t-5 -32.5q-18 -106 -76 -278q-35 -104 -78 -217q-2 -5 -0.5 -7t9.5 -1q206 16 239 20zM643 72q5 8 3 10.5t-12 1.5q-173 -19 -279 -37q-9 -1 -64 -9.5t-78.5 -13.5
t-62.5 -17.5t-65 -28.5q-53 -35 -50 -86t36.5 -99t77.5 -72q120 -66 210 7q33 27 67.5 62.5t56 60t59.5 77t48.5 67.5t52.5 77zM1051 158q54 142 89 250q1 3 8.5 26.5t9 27.5t8.5 25.5t8.5 28.5t7.5 26.5t8 28.5t6 26t6 29l4.5 27t3.5 28q1 12 1.5 20t0.5 20t-2.5 18.5
t-7.5 11.5t-13.5 3t-20.5 -10q-24 -16 -50.5 -42.5t-39 -43.5t-39.5 -53q-62 -81 -157 -226q-20 -29 -76.5 -115.5t-87.5 -133.5q-3 -2 -1 -5.5t7 -2.5q218 17 310 24q12 1 17 12z" />
    <glyph glyph-name="B" unicode="B" horiz-adv-x="634" 
d="M659 165q9 0 12.5 -7t0 -14.5t-12.5 -8.5q-98 -8 -209 -38q-9 -2 -11 -12q-12 -57 -77 -130q-90 -100 -214.5 -179.5t-262.5 -133.5q-28 -11 -66.5 -21t-90 -17.5t-80 11t-15.5 65.5q5 21 17.5 39.5t36 38.5t34.5 28t39 28q109 76 285 158q209 97 356 141q12 4 11 17
q-5 48 -43 82t-88 46t-98 5q-8 -2 -12 -10q-8 -23 -29 -81.5t-33 -89.5q-3 -8 -11 -9.5t-14 3.5t-3 14q5 12 49 135q4 11 -6 19q-7 4 -7.5 12t6.5 13q4 2 11 6t10 5q2 4 7 6h1h1q57 155 102 257q5 12 17 6.5t10 -17.5t-5 -22q-1 -6 -5.5 -9t-5.5 -7q-29 -67 -59 -147
q-4 -10 4 -17t17 -2q134 75 182 104q101 61 160 108q26 21 38.5 31.5t31 33t25.5 42.5q14 40 -14 60.5t-83.5 19t-91.5 -5.5t-69 -10q-211 -42 -371 -125q-8 -4 -15 0.5t-7 12t7 12.5q165 86 378 128q39 8 53 10.5t53 7t61.5 3t51.5 -8.5t49 -22q25 -19 29.5 -46t-6 -51
t-30.5 -47q-24 -29 -52.5 -54.5t-69.5 -52.5t-61 -39.5t-70 -42.5q-46 -28 -136 -77q-9 -6 -7.5 -16.5t12.5 -12.5q60 -12 105 -51t58 -100q2 -6 2 -14q116 31 218 40zM317 -50q61 62 81 105q5 9 -1.5 16.5t-16.5 4.5q-141 -45 -353 -145q-110 -51 -215 -118
q-35 -22 -54 -34.5t-46 -37t-41 -48.5q-37 -62 42 -59q71 2 176 41q5 2 7 3q255 106 421 272z" />
    <glyph glyph-name="C" unicode="C" horiz-adv-x="850" 
d="M853 138q6 7 14 4t10 -10t-3 -15q-173 -192 -332 -311q-76 -56 -140.5 -91.5t-131.5 -46.5q-58 -9 -114.5 7.5t-91.5 58.5q-63 72 -62 224q1 135 60 270.5t154 254.5q42 52 87 94.5t101 81t119.5 55t125.5 5.5q60 -10 95 -45t43 -83t0 -99t-30 -100q-5 -8 -12 -8t-12 7
t-1 15q65 144 10 227q-22 34 -64.5 49t-85 12.5t-82.5 -16.5q-104 -36 -192.5 -124t-157.5 -202q-159 -261 -122 -483q11 -64 45 -109.5t93 -58.5q94 -21 213 41q122 65 232.5 163.5t231.5 232.5z" />
    <glyph glyph-name="C" unicode="&#xc7;" horiz-adv-x="850" 
d="M853 138q6 7 14 4t10 -10t-3 -15q-173 -192 -332 -311q-76 -56 -140.5 -91.5t-131.5 -46.5q-58 -9 -114.5 7.5t-91.5 58.5q-63 72 -62 224q1 135 60 270.5t154 254.5q42 52 87 94.5t101 81t119.5 55t125.5 5.5q60 -10 95 -45t43 -83t0 -99t-30 -100q-5 -8 -12 -8t-12 7
t-1 15q65 144 10 227q-22 34 -64.5 49t-85 12.5t-82.5 -16.5q-104 -36 -192.5 -124t-157.5 -202q-159 -261 -122 -483q11 -64 45 -109.5t93 -58.5q94 -21 213 41q122 65 232.5 163.5t231.5 232.5z" />
    <glyph glyph-name="D" unicode="D" horiz-adv-x="1131" 
d="M1163 161q9 1 14.5 -5.5t4 -14t-10.5 -9.5q-160 -24 -283 -50q-35 -7 -58 -35q-76 -91 -182 -180q-184 -155 -372 -236q-30 -13 -44 -18.5t-48 -17t-56 -14.5t-49 -0.5t-47 13.5q-23 14 -26 35t12 45.5t34 47.5t46.5 46.5t44 36.5t30.5 23q119 85 271 150q-6 5 -6 11l1 6
q0 6 5 10q1 1 2 3q17 59 39.5 120t59 148.5t47.5 117.5q14 35 40.5 102.5t38.5 99.5q3 6 13 34.5t17 43.5q4 9 -1.5 17.5t-16.5 8.5h-16q-314 -10 -494 -151q-1 -1 -0.5 -2t1.5 -1h13t12.5 0.5t13 2t12 2.5t13.5 3.5t12.5 3t13 3.5t12 4t12.5 4.5t12 3.5q8 3 13.5 -3
t4 -14.5t-9.5 -10.5q-29 -10 -44.5 -14.5t-41.5 -9.5t-48 -4.5t-43 6.5q-7 2 -9.5 10.5t3.5 13.5q110 100 272.5 144.5t328.5 37.5q1 0 4.5 -0.5t4.5 -0.5q10 9 20 -2q47 -4 87.5 -18t75 -38t57 -61.5t29.5 -85.5q25 -201 -126 -413q125 27 285 51zM679 -67q70 64 125 130
q-374 -90 -609 -255q-103 -72 -142 -137q-18 -26 -14.5 -40.5t37.5 -18.5q31 -4 66.5 2t76.5 23t63.5 28t64.5 33q179 94 332 235zM818 97q16 3 26 16q166 223 128 421q-27 141 -218 162l-3 -9q-4 -12 -16 -11q-2 1 -3 -1q-11 -20 -21 -46.5t-20.5 -58t-16.5 -46.5
q-59 -154 -70 -179q-6 -17 -29.5 -73t-34 -82.5t-27 -70.5t-28.5 -81q-4 -15 7 -25.5t26 -5.5q135 51 300 90z" />
    <glyph glyph-name="E" unicode="E" horiz-adv-x="758" 
d="M868 -171q8 4 13.5 -2t4 -14.5t-9.5 -11.5q-247 -98 -575 -156q-9 -1 -38.5 -7t-48.5 -9.5t-49 -7t-51.5 -1t-44 8.5t-38 20.5t-23.5 36.5q-19 55 35 155q54 98 155 180q52 43 113 80.5t151 85.5t122 66q-130 -7 -201 13q-43 12 -77 35.5t-43 59.5q-8 29 3.5 59.5
t30.5 53.5t51.5 49t53.5 39t50 30q188 111 313 95q37 -5 65.5 -26.5t35.5 -55.5q4 -24 -2 -48t-24 -49.5t-29 -38.5t-34 -38q-6 -6 -14 -3.5t-10 10t3 14.5q15 16 23.5 25.5t24 29t21.5 34.5t11 33t-1.5 34.5t-22.5 29.5q-42 35 -142 12q-105 -23 -213 -89q-15 -9 -24.5 -15
t-29 -19t-33 -24t-30.5 -26.5t-26.5 -29.5t-17.5 -30t-7.5 -32t8.5 -30q11 -22 30.5 -37.5t46.5 -23t52 -12t59.5 -4.5t56.5 1t56 4t46 3q11 1 13.5 -10.5t-6.5 -16.5q-50 -31 -177 -99.5t-191 -111.5q-114 -77 -178 -164q-87 -119 -71 -182q3 -12 9.5 -21.5t17.5 -14.5
t19.5 -9t25 -4.5t24.5 -1t27 1.5t23 2.5t21 3.5q88 13 191 34q269 54 476 136z" />
    <glyph glyph-name="E" unicode="&#xcb;" horiz-adv-x="758" 
d="M868 -171q8 4 13.5 -2t4 -14.5t-9.5 -11.5q-247 -98 -575 -156q-9 -1 -38.5 -7t-48.5 -9.5t-49 -7t-51.5 -1t-44 8.5t-38 20.5t-23.5 36.5q-19 55 35 155q54 98 155 180q52 43 113 80.5t151 85.5t122 66q-130 -7 -201 13q-43 12 -77 35.5t-43 59.5q-8 29 3.5 59.5
t30.5 53.5t51.5 49t53.5 39t50 30q188 111 313 95q37 -5 65.5 -26.5t35.5 -55.5q4 -24 -2 -48t-24 -49.5t-29 -38.5t-34 -38q-6 -6 -14 -3.5t-10 10t3 14.5q15 16 23.5 25.5t24 29t21.5 34.5t11 33t-1.5 34.5t-22.5 29.5q-42 35 -142 12q-105 -23 -213 -89q-15 -9 -24.5 -15
t-29 -19t-33 -24t-30.5 -26.5t-26.5 -29.5t-17.5 -30t-7.5 -32t8.5 -30q11 -22 30.5 -37.5t46.5 -23t52 -12t59.5 -4.5t56.5 1t56 4t46 3q11 1 13.5 -10.5t-6.5 -16.5q-50 -31 -177 -99.5t-191 -111.5q-114 -77 -178 -164q-87 -119 -71 -182q3 -12 9.5 -21.5t17.5 -14.5
t19.5 -9t25 -4.5t24.5 -1t27 1.5t23 2.5t21 3.5q88 13 191 34q269 54 476 136z" />
    <glyph glyph-name="E" unicode="&#xca;" horiz-adv-x="758" 
d="M868 -171q8 4 13.5 -2t4 -14.5t-9.5 -11.5q-247 -98 -575 -156q-9 -1 -38.5 -7t-48.5 -9.5t-49 -7t-51.5 -1t-44 8.5t-38 20.5t-23.5 36.5q-19 55 35 155q54 98 155 180q52 43 113 80.5t151 85.5t122 66q-130 -7 -201 13q-43 12 -77 35.5t-43 59.5q-8 29 3.5 59.5
t30.5 53.5t51.5 49t53.5 39t50 30q188 111 313 95q37 -5 65.5 -26.5t35.5 -55.5q4 -24 -2 -48t-24 -49.5t-29 -38.5t-34 -38q-6 -6 -14 -3.5t-10 10t3 14.5q15 16 23.5 25.5t24 29t21.5 34.5t11 33t-1.5 34.5t-22.5 29.5q-42 35 -142 12q-105 -23 -213 -89q-15 -9 -24.5 -15
t-29 -19t-33 -24t-30.5 -26.5t-26.5 -29.5t-17.5 -30t-7.5 -32t8.5 -30q11 -22 30.5 -37.5t46.5 -23t52 -12t59.5 -4.5t56.5 1t56 4t46 3q11 1 13.5 -10.5t-6.5 -16.5q-50 -31 -177 -99.5t-191 -111.5q-114 -77 -178 -164q-87 -119 -71 -182q3 -12 9.5 -21.5t17.5 -14.5
t19.5 -9t25 -4.5t24.5 -1t27 1.5t23 2.5t21 3.5q88 13 191 34q269 54 476 136z" />
    <glyph glyph-name="E" unicode="&#xc9;" horiz-adv-x="758" 
d="M868 -171q8 4 13.5 -2t4 -14.5t-9.5 -11.5q-247 -98 -575 -156q-9 -1 -38.5 -7t-48.5 -9.5t-49 -7t-51.5 -1t-44 8.5t-38 20.5t-23.5 36.5q-19 55 35 155q54 98 155 180q52 43 113 80.5t151 85.5t122 66q-130 -7 -201 13q-43 12 -77 35.5t-43 59.5q-8 29 3.5 59.5
t30.5 53.5t51.5 49t53.5 39t50 30q188 111 313 95q37 -5 65.5 -26.5t35.5 -55.5q4 -24 -2 -48t-24 -49.5t-29 -38.5t-34 -38q-6 -6 -14 -3.5t-10 10t3 14.5q15 16 23.5 25.5t24 29t21.5 34.5t11 33t-1.5 34.5t-22.5 29.5q-42 35 -142 12q-105 -23 -213 -89q-15 -9 -24.5 -15
t-29 -19t-33 -24t-30.5 -26.5t-26.5 -29.5t-17.5 -30t-7.5 -32t8.5 -30q11 -22 30.5 -37.5t46.5 -23t52 -12t59.5 -4.5t56.5 1t56 4t46 3q11 1 13.5 -10.5t-6.5 -16.5q-50 -31 -177 -99.5t-191 -111.5q-114 -77 -178 -164q-87 -119 -71 -182q3 -12 9.5 -21.5t17.5 -14.5
t19.5 -9t25 -4.5t24.5 -1t27 1.5t23 2.5t21 3.5q88 13 191 34q269 54 476 136z" />
    <glyph glyph-name="E" unicode="&#xc8;" horiz-adv-x="758" 
d="M868 -171q8 4 13.5 -2t4 -14.5t-9.5 -11.5q-247 -98 -575 -156q-9 -1 -38.5 -7t-48.5 -9.5t-49 -7t-51.5 -1t-44 8.5t-38 20.5t-23.5 36.5q-19 55 35 155q54 98 155 180q52 43 113 80.5t151 85.5t122 66q-130 -7 -201 13q-43 12 -77 35.5t-43 59.5q-8 29 3.5 59.5
t30.5 53.5t51.5 49t53.5 39t50 30q188 111 313 95q37 -5 65.5 -26.5t35.5 -55.5q4 -24 -2 -48t-24 -49.5t-29 -38.5t-34 -38q-6 -6 -14 -3.5t-10 10t3 14.5q15 16 23.5 25.5t24 29t21.5 34.5t11 33t-1.5 34.5t-22.5 29.5q-42 35 -142 12q-105 -23 -213 -89q-15 -9 -24.5 -15
t-29 -19t-33 -24t-30.5 -26.5t-26.5 -29.5t-17.5 -30t-7.5 -32t8.5 -30q11 -22 30.5 -37.5t46.5 -23t52 -12t59.5 -4.5t56.5 1t56 4t46 3q11 1 13.5 -10.5t-6.5 -16.5q-50 -31 -177 -99.5t-191 -111.5q-114 -77 -178 -164q-87 -119 -71 -182q3 -12 9.5 -21.5t17.5 -14.5
t19.5 -9t25 -4.5t24.5 -1t27 1.5t23 2.5t21 3.5q88 13 191 34q269 54 476 136z" />
    <glyph glyph-name="F" unicode="F" horiz-adv-x="502" 
d="M991 562q4 -13 0.5 -24.5t-15.5 -20t-21 -14t-28 -11.5t-25 -7.5l-22 -5.5q-9 -2 -14 4.5t-2.5 14.5t10.5 10q87 21 79 45q-3 10 -21 19q-12 7 -30.5 11t-30.5 5t-37 1.5t-30 0.5q-103 5 -254 -12q-34 -4 -91 -11q-21 -3 -29 -22q-53 -115 -135 -288q-2 -3 0.5 -6.5
t6.5 -2.5q27 2 62 9q10 2 27.5 6.5t29 7t29 4.5t27.5 -2q9 -3 9 -12.5t-8 -14.5q-4 -2 -11 -5t-9 -4q-14 -7 -20 8q-11 -2 -31.5 -8t-26.5 -7q-50 -9 -80 -12h-1q-24 -3 -34 -25q-97 -204 -238 -520q-4 -8 -12.5 -9t-13.5 4.5t-2 14.5q141 316 238 520q2 5 -0.5 9t-6.5 4
q-33 2 -63 10q-9 3 -9 12.5t8 14.5q13 8 42 16q10 3 14.5 -6t-0.5 -17q9 -1 20 -1q15 -1 21 13q86 182 141 302q-5 -1 -14 -2q-4 -15 -19 -11q-12 3 -27 5q-162 -18 -273 -14q-12 0 -13 13.5t11 15.5q166 34 274 15q28 3 64 8q12 2 17 13l1 2l1 2q-12 10 6 30q15 18 18.5 24
t8.5 19t20 38q15 24 26 16q8 -4 3 -16q-23 -52 -49 -109q-2 -4 0.5 -8t7.5 -3q216 28 339 22q3 -1 22.5 -1.5t30.5 -1.5t31.5 -3t34 -6t29 -9.5t24.5 -15t13 -21.5z" />
    <glyph glyph-name="G" unicode="G" horiz-adv-x="858" 
d="M781 169q7 7 18 2t7 -16q-5 -16 -42 -79t-83.5 -139t-91 -152t-67.5 -130.5t-10 -62.5q8 -4 8.5 -12t-6 -12.5t-14.5 -0.5q-14 7 -18.5 23t2 41.5t15 50t28.5 62.5t35 65.5t42 71.5t42 67t43 66q13 21 20 31q3 6 -2.5 10.5t-10.5 0.5q-113 -99 -188 -151
q-85 -60 -165 -97t-164 -41q-121 -6 -162 80q-34 74 -5 209q31 144 109 276t188 243q141 143 293 205q126 51 193 -10q37 -34 48 -85.5t-2 -103t-35.5 -97.5t-49.5 -77q-6 -6 -14 -3.5t-10.5 10t1.5 14.5q19 22 38.5 62.5t31 89.5t10.5 92.5t-28.5 72.5t-81.5 29
q-34 -1 -70.5 -12t-72.5 -31.5t-61.5 -38t-59.5 -43.5q-121 -92 -221 -228q-157 -213 -185 -418q-19 -137 40 -183q77 -62 253 14q51 22 99.5 51t98 67t84 67t90.5 78t83 72z" />
    <glyph glyph-name="H" unicode="H" horiz-adv-x="875" 
d="M930 709q7 10 18.5 1.5t6.5 -19.5q-32 -69 -96.5 -195.5t-80.5 -157.5q-5 -21 -7 -36q-6 -54 -17.5 -85.5t-42.5 -50.5q-15 -9 -22 -24q-88 -212 -155 -458q-2 -8 -10 -9.5t-14.5 3.5t-4.5 14q63 231 143 429q3 8 -3 15.5t-15 5.5q-32 -5 -69.5 -6.5t-83 -2t-68.5 -0.5
q-64 -3 -137 -3q-24 0 -33 -21q-80 -196 -136 -382q-3 -8 -11 -9.5t-14.5 4t-3.5 13.5q55 183 133 374q3 7 -2 14t-13 7q-78 1 -235 7q-14 1 -16 15q1 14 13 15q165 -7 254 -8q20 0 27 18q46 107 98 218h7q-2 0 -3.5 1.5t-0.5 3.5q30 63 65 133q2 3 -1.5 5t-5.5 -1
q-29 -38 -66 -87q-6 -7 -14 -4.5t-10.5 10t1.5 15.5q35 45 102 133.5t100 131.5q7 9 18.5 0.5t6.5 -18.5l-56 -105q-59 -113 -108 -216q-1 -2 -3 -2h2q-54 -113 -99 -218q-3 -6 1.5 -12t11.5 -6q56 0 102 2q18 1 84.5 1.5t109.5 4t82 12.5q14 3 20 17q22 50 41 91
q13 29 36 75q5 24 12 40q73 182 162 307z" />
    <glyph glyph-name="I" unicode="I" horiz-adv-x="344" 
d="M427 783q8 10 19.5 2.5t5.5 -18.5q-296 -585 -426 -1032q-2 -9 -10.5 -11t-14.5 2.5t-3 13.5q109 379 324 830q2 3 -1 5t-5 -1q-40 -56 -67 -94q-5 -7 -13 -5.5t-11 9t1 15.5q34 47 101 141.5t100 142.5z" />
    <glyph glyph-name="I" unicode="&#xcf;" horiz-adv-x="344" 
d="M427 783q8 10 19.5 2.5t5.5 -18.5q-296 -585 -426 -1032q-2 -9 -10.5 -11t-14.5 2.5t-3 13.5q109 379 324 830q2 3 -1 5t-5 -1q-40 -56 -67 -94q-5 -7 -13 -5.5t-11 9t1 15.5q34 47 101 141.5t100 142.5z" />
    <glyph glyph-name="I" unicode="&#xce;" horiz-adv-x="344" 
d="M427 783q8 10 19.5 2.5t5.5 -18.5q-296 -585 -426 -1032q-2 -9 -10.5 -11t-14.5 2.5t-3 13.5q109 379 324 830q2 3 -1 5t-5 -1q-40 -56 -67 -94q-5 -7 -13 -5.5t-11 9t1 15.5q34 47 101 141.5t100 142.5z" />
    <glyph glyph-name="I" unicode="&#xcd;" horiz-adv-x="344" 
d="M427 783q8 10 19.5 2.5t5.5 -18.5q-296 -585 -426 -1032q-2 -9 -10.5 -11t-14.5 2.5t-3 13.5q109 379 324 830q2 3 -1 5t-5 -1q-40 -56 -67 -94q-5 -7 -13 -5.5t-11 9t1 15.5q34 47 101 141.5t100 142.5z" />
    <glyph glyph-name="I" unicode="&#xcc;" horiz-adv-x="344" 
d="M427 783q8 10 19.5 2.5t5.5 -18.5q-296 -585 -426 -1032q-2 -9 -10.5 -11t-14.5 2.5t-3 13.5q109 379 324 830q2 3 -1 5t-5 -1q-40 -56 -67 -94q-5 -7 -13 -5.5t-11 9t1 15.5q34 47 101 141.5t100 142.5z" />
    <glyph glyph-name="J" unicode="J" horiz-adv-x="1008" 
d="M1043 171q9 0 12.5 -7t0 -14.5t-12.5 -8.5q-162 -12 -298 -28q-80 -178 -236.5 -316.5t-334.5 -193.5q-62 -18 -125 -24t-131.5 9t-112.5 55q-30 27 -35 73q-13 134 210 243q147 71 387 122q162 35 357 59q55 129 58 258q2 157 -110 210q-63 30 -138 34t-145.5 -15
t-133.5 -56q11 1 13.5 -12t-9.5 -17q-64 -22 -103 -46q-10 -7 -18 4t1 19q68 67 162.5 108t194.5 45t191 -39q133 -64 123 -264q-5 -112 -51 -225q130 15 284 27zM204 -355q158 58 294 182t211 281q-189 -23 -348 -58q-240 -52 -380 -124q-195 -99 -182 -209q4 -33 26 -53
q45 -40 116.5 -51.5t136.5 -1t126 33.5z" />
    <glyph glyph-name="K" unicode="K" horiz-adv-x="805" 
d="M918 707q6 6 13.5 3.5t10 -10t-2.5 -14.5q-54 -64 -128.5 -133t-130.5 -114.5t-145 -113.5q-148 -114 -255 -174q-73 -41 -112 -53q-4 -1 -5 -5t1 -7q21 -24 60.5 -72t59.5 -72q29 -34 47.5 -53.5t51.5 -42t65 -30.5q38 -8 77 3t72.5 36.5t61.5 52.5t58 57.5t47 42.5
q11 9 19.5 -2t-2.5 -20q-17 -15 -49 -47.5t-59 -57.5t-61.5 -50.5t-73 -38t-76.5 -8.5q-79 9 -161 95q-37 37 -98 112.5t-79 96.5q-1 0 -4 -1q-114 -282 -86 -293q8 -3 9.5 -11.5t-4 -14.5t-13.5 -3q-9 4 -15 11.5t-7 18.5t-1.5 20.5t3 24t5.5 22t6.5 21.5t4.5 15
q24 82 68 191q-9 5 -7 16.5t14 10.5q1 1 2.5 2t2.5 1q11 27 39 93q37 88 134 311q-4 -9 -7 -11q-9 -7 -18 1.5t-3 18.5q25 44 70.5 132t69.5 131q7 11 19 5.5t8 -17.5q-7 -26 -51 -128t-112.5 -259.5t-111.5 -262.5q-1 -2 -2.5 -6t-2.5 -6q0 -1 4.5 -0.5t7.5 1.5
q47 11 130 61q125 75 239 163q74 58 109.5 86.5t97 80t108.5 98.5t88 96z" />
    <glyph glyph-name="L" unicode="L" horiz-adv-x="494" 
d="M749 -185q8 0 12 -7.5t0 -15t-12 -7.5q-150 1 -451.5 -31.5t-455.5 -29.5q-13 0 -15 13t11 15q13 3 58 14.5t70 15.5q12 2 17 -9.5t-4 -16.5q25 1 42 2v2q28 71 60.5 146t79 177.5t64.5 144.5q18 40 57.5 125t68.5 152t52 129q-10 -6 -17.5 4t0.5 20q8 8 22.5 26.5
t22.5 27.5q7 8 17.5 2t7.5 -17q-23 -71 -52.5 -142.5t-79 -178.5t-62.5 -138q-21 -47 -66 -146.5t-78.5 -176t-61.5 -147.5q-1 -3 0.5 -5.5t4.5 -1.5q29 2 290 28.5t398 25.5z" />
    <glyph glyph-name="M" unicode="M" horiz-adv-x="907" 
d="M987 715q3 -2 4.5 -6t2 -9t0.5 -9t-1.5 -10t-2 -9.5t-2.5 -9.5t-2 -7q-12 -43 -51 -142q-54 -134 -169 -389.5t-166 -379.5q-3 -9 -11.5 -10.5t-14 4t-2.5 13.5q48 118 171 390.5t181 423.5q10 27 34 104q1 3 -2.5 5t-6.5 -1t-7 -6q-35 -35 -70 -75.5t-82 -99.5t-65 -81
q-7 -8 -32.5 -38.5t-35 -42t-32 -38t-36 -41t-34 -35.5t-39 -38.5t-37.5 -33.5q-107 -91 -153 -18q-12 19 -18 44t-8 46t0.5 54t5.5 50.5l9 52.5t7 44q3 17 11.5 66t12.5 75q0 4 -3 5t-6 -3q-54 -95 -105 -199t-118.5 -255.5t-92.5 -205.5q-5 -8 -12 -8t-12.5 7.5t-1.5 15.5
q150 321 204 434q64 132 99 199l11 25t21 39.5t20 18.5q49 18 13 -150q-2 -7 -2 -9q-23 -131 -26 -196q0 -3 -1 -15t-1 -17t-0.5 -17.5t0 -19.5t1.5 -18t3 -18t5 -15.5t8 -15t11 -10.5q10 -8 23 -8t27.5 6.5t29.5 16.5t31 24.5t30 28.5t28.5 30.5t25 29l21 25t14.5 16.5
q51 58 141 167.5t120 144.5q2 2 9 11t14 17.5t17.5 21t19.5 22t20.5 19.5t20.5 14t18.5 5.5t15.5 -6.5z" />
    <glyph glyph-name="N" unicode="N" horiz-adv-x="769" 
d="M870 691q5 8 12 8t12 -7t2 -16q-48 -101 -135.5 -306t-134.5 -305q-89 -186 -140 -266q-1 -2 -4 -7q-6 -9 -9.5 -14t-10.5 -14t-12 -14t-12.5 -11t-14.5 -8t-15.5 -1.5t-17.5 4.5q-17 8 -29 25t-18 42.5t-8 42t-4 43.5q-1 6 -1 9q-10 110 3 319q3 42 10.5 141t10.5 152
v10q-1 7 -8.5 9t-11.5 -5q-39 -74 -83 -164t-73 -152t-79.5 -171.5t-73.5 -157.5q-4 -8 -11.5 -8t-12.5 7.5t-1 15.5q130 278 171 365q12 25 37.5 79.5t40.5 86.5t38.5 76.5t45.5 80.5q10 16 21 23.5t19.5 1t10.5 -28.5q4 -21 2.5 -57.5t-3.5 -59t-6 -59t-5 -57.5
q-16 -213 -17 -326q0 -91 7 -147q0 -1 1 -11.5t1.5 -14t2 -13t3 -14.5t4 -13.5t5 -13.5t6 -10.5t7.5 -10.5q6 -6 13 -7.5t13.5 2t13.5 9t13.5 14.5t12.5 18t12 19.5t10 18.5t8.5 16.5t5.5 11.5q58 103 148 299q34 75 109 251.5t119 269.5z" />
    <glyph glyph-name="N" unicode="&#xd1;" horiz-adv-x="769" 
d="M870 691q5 8 12 8t12 -7t2 -16q-48 -101 -135.5 -306t-134.5 -305q-89 -186 -140 -266q-1 -2 -4 -7q-6 -9 -9.5 -14t-10.5 -14t-12 -14t-12.5 -11t-14.5 -8t-15.5 -1.5t-17.5 4.5q-17 8 -29 25t-18 42.5t-8 42t-4 43.5q-1 6 -1 9q-10 110 3 319q3 42 10.5 141t10.5 152
v10q-1 7 -8.5 9t-11.5 -5q-39 -74 -83 -164t-73 -152t-79.5 -171.5t-73.5 -157.5q-4 -8 -11.5 -8t-12.5 7.5t-1 15.5q130 278 171 365q12 25 37.5 79.5t40.5 86.5t38.5 76.5t45.5 80.5q10 16 21 23.5t19.5 1t10.5 -28.5q4 -21 2.5 -57.5t-3.5 -59t-6 -59t-5 -57.5
q-16 -213 -17 -326q0 -91 7 -147q0 -1 1 -11.5t1.5 -14t2 -13t3 -14.5t4 -13.5t5 -13.5t6 -10.5t7.5 -10.5q6 -6 13 -7.5t13.5 2t13.5 9t13.5 14.5t12.5 18t12 19.5t10 18.5t8.5 16.5t5.5 11.5q58 103 148 299q34 75 109 251.5t119 269.5z" />
    <glyph glyph-name="O" unicode="O" horiz-adv-x="856" 
d="M794 431q4 -146 -74.5 -295.5t-198.5 -263.5q-37 -35 -82.5 -66.5t-101 -55t-107 -29.5t-101 17t-81.5 77q-73 124 -16 338q22 84 63 161q3 6 -1 11q-47 69 -26 148q22 82 96 140t165 82q51 14 105 16t105 -7t96.5 -31t80 -54.5t55.5 -81t23 -106.5zM550 -56
q96 107 157 235t57 252q-1 64 -29 114t-72 79t-99.5 44.5t-114.5 14t-115 -16.5q-80 -22 -146 -71t-89 -119q-19 -58 5 -110q3 -6 10 -6t10 5q58 93 138 163q7 6 14.5 2.5t8.5 -11t-5 -14.5q-84 -74 -143 -175q-4 -7 1 -13q47 -50 129 -85q8 -3 8.5 -11.5t-5.5 -14t-14 -1.5
q-78 32 -127 80q-4 4 -10 2.5t-8 -6.5q-39 -78 -58 -163q-9 -44 -13 -86.5t-1.5 -90t21 -89t52.5 -67.5q40 -33 91 -36.5t98 13.5t96 49t85.5 65t67.5 68z" />
    <glyph glyph-name="O" unicode="&#xd8;" horiz-adv-x="856" 
d="M794 431q4 -146 -74.5 -295.5t-198.5 -263.5q-37 -35 -82.5 -66.5t-101 -55t-107 -29.5t-101 17t-81.5 77q-73 124 -16 338q22 84 63 161q3 6 -1 11q-47 69 -26 148q22 82 96 140t165 82q51 14 105 16t105 -7t96.5 -31t80 -54.5t55.5 -81t23 -106.5zM550 -56
q96 107 157 235t57 252q-1 64 -29 114t-72 79t-99.5 44.5t-114.5 14t-115 -16.5q-80 -22 -146 -71t-89 -119q-19 -58 5 -110q3 -6 10 -6t10 5q58 93 138 163q7 6 14.5 2.5t8.5 -11t-5 -14.5q-84 -74 -143 -175q-4 -7 1 -13q47 -50 129 -85q8 -3 8.5 -11.5t-5.5 -14t-14 -1.5
q-78 32 -127 80q-4 4 -10 2.5t-8 -6.5q-39 -78 -58 -163q-9 -44 -13 -86.5t-1.5 -90t21 -89t52.5 -67.5q40 -33 91 -36.5t98 13.5t96 49t85.5 65t67.5 68z" />
    <glyph glyph-name="O" unicode="&#xd6;" horiz-adv-x="856" 
d="M794 431q4 -146 -74.5 -295.5t-198.5 -263.5q-37 -35 -82.5 -66.5t-101 -55t-107 -29.5t-101 17t-81.5 77q-73 124 -16 338q22 84 63 161q3 6 -1 11q-47 69 -26 148q22 82 96 140t165 82q51 14 105 16t105 -7t96.5 -31t80 -54.5t55.5 -81t23 -106.5zM550 -56
q96 107 157 235t57 252q-1 64 -29 114t-72 79t-99.5 44.5t-114.5 14t-115 -16.5q-80 -22 -146 -71t-89 -119q-19 -58 5 -110q3 -6 10 -6t10 5q58 93 138 163q7 6 14.5 2.5t8.5 -11t-5 -14.5q-84 -74 -143 -175q-4 -7 1 -13q47 -50 129 -85q8 -3 8.5 -11.5t-5.5 -14t-14 -1.5
q-78 32 -127 80q-4 4 -10 2.5t-8 -6.5q-39 -78 -58 -163q-9 -44 -13 -86.5t-1.5 -90t21 -89t52.5 -67.5q40 -33 91 -36.5t98 13.5t96 49t85.5 65t67.5 68z" />
    <glyph glyph-name="O" unicode="&#xd5;" horiz-adv-x="856" 
d="M794 431q4 -146 -74.5 -295.5t-198.5 -263.5q-37 -35 -82.5 -66.5t-101 -55t-107 -29.5t-101 17t-81.5 77q-73 124 -16 338q22 84 63 161q3 6 -1 11q-47 69 -26 148q22 82 96 140t165 82q51 14 105 16t105 -7t96.5 -31t80 -54.5t55.5 -81t23 -106.5zM550 -56
q96 107 157 235t57 252q-1 64 -29 114t-72 79t-99.5 44.5t-114.5 14t-115 -16.5q-80 -22 -146 -71t-89 -119q-19 -58 5 -110q3 -6 10 -6t10 5q58 93 138 163q7 6 14.5 2.5t8.5 -11t-5 -14.5q-84 -74 -143 -175q-4 -7 1 -13q47 -50 129 -85q8 -3 8.5 -11.5t-5.5 -14t-14 -1.5
q-78 32 -127 80q-4 4 -10 2.5t-8 -6.5q-39 -78 -58 -163q-9 -44 -13 -86.5t-1.5 -90t21 -89t52.5 -67.5q40 -33 91 -36.5t98 13.5t96 49t85.5 65t67.5 68z" />
    <glyph glyph-name="O" unicode="&#xd4;" horiz-adv-x="856" 
d="M794 431q4 -146 -74.5 -295.5t-198.5 -263.5q-37 -35 -82.5 -66.5t-101 -55t-107 -29.5t-101 17t-81.5 77q-73 124 -16 338q22 84 63 161q3 6 -1 11q-47 69 -26 148q22 82 96 140t165 82q51 14 105 16t105 -7t96.5 -31t80 -54.5t55.5 -81t23 -106.5zM550 -56
q96 107 157 235t57 252q-1 64 -29 114t-72 79t-99.5 44.5t-114.5 14t-115 -16.5q-80 -22 -146 -71t-89 -119q-19 -58 5 -110q3 -6 10 -6t10 5q58 93 138 163q7 6 14.5 2.5t8.5 -11t-5 -14.5q-84 -74 -143 -175q-4 -7 1 -13q47 -50 129 -85q8 -3 8.5 -11.5t-5.5 -14t-14 -1.5
q-78 32 -127 80q-4 4 -10 2.5t-8 -6.5q-39 -78 -58 -163q-9 -44 -13 -86.5t-1.5 -90t21 -89t52.5 -67.5q40 -33 91 -36.5t98 13.5t96 49t85.5 65t67.5 68z" />
    <glyph glyph-name="O" unicode="&#xd3;" horiz-adv-x="856" 
d="M794 431q4 -146 -74.5 -295.5t-198.5 -263.5q-37 -35 -82.5 -66.5t-101 -55t-107 -29.5t-101 17t-81.5 77q-73 124 -16 338q22 84 63 161q3 6 -1 11q-47 69 -26 148q22 82 96 140t165 82q51 14 105 16t105 -7t96.5 -31t80 -54.5t55.5 -81t23 -106.5zM550 -56
q96 107 157 235t57 252q-1 64 -29 114t-72 79t-99.5 44.5t-114.5 14t-115 -16.5q-80 -22 -146 -71t-89 -119q-19 -58 5 -110q3 -6 10 -6t10 5q58 93 138 163q7 6 14.5 2.5t8.5 -11t-5 -14.5q-84 -74 -143 -175q-4 -7 1 -13q47 -50 129 -85q8 -3 8.5 -11.5t-5.5 -14t-14 -1.5
q-78 32 -127 80q-4 4 -10 2.5t-8 -6.5q-39 -78 -58 -163q-9 -44 -13 -86.5t-1.5 -90t21 -89t52.5 -67.5q40 -33 91 -36.5t98 13.5t96 49t85.5 65t67.5 68z" />
    <glyph glyph-name="O" unicode="&#xd2;" horiz-adv-x="856" 
d="M794 431q4 -146 -74.5 -295.5t-198.5 -263.5q-37 -35 -82.5 -66.5t-101 -55t-107 -29.5t-101 17t-81.5 77q-73 124 -16 338q22 84 63 161q3 6 -1 11q-47 69 -26 148q22 82 96 140t165 82q51 14 105 16t105 -7t96.5 -31t80 -54.5t55.5 -81t23 -106.5zM550 -56
q96 107 157 235t57 252q-1 64 -29 114t-72 79t-99.5 44.5t-114.5 14t-115 -16.5q-80 -22 -146 -71t-89 -119q-19 -58 5 -110q3 -6 10 -6t10 5q58 93 138 163q7 6 14.5 2.5t8.5 -11t-5 -14.5q-84 -74 -143 -175q-4 -7 1 -13q47 -50 129 -85q8 -3 8.5 -11.5t-5.5 -14t-14 -1.5
q-78 32 -127 80q-4 4 -10 2.5t-8 -6.5q-39 -78 -58 -163q-9 -44 -13 -86.5t-1.5 -90t21 -89t52.5 -67.5q40 -33 91 -36.5t98 13.5t96 49t85.5 65t67.5 68z" />
    <glyph glyph-name="P" unicode="P" horiz-adv-x="617" 
d="M817 623q6 -60 -16 -117.5t-63.5 -102.5t-90 -80t-102.5 -60q-145 -67 -330 -87q-4 0 -26.5 -3l-37.5 -5q-9 -1 -13 -9q-5 -13 -8 -18q-67 -154 -100 -242q-19 -53 -27 -82q-1 -4 -3 -13.5t-3 -14.5q-2 -8 0 -11h-1q-2 1 -7 2q15 -2 14 -17q-1 -14 -14 -12
q-14 2 -18.5 18t0.5 42.5t13.5 55.5t22.5 62.5t24.5 58t21 47.5t11.5 25q17 42 42 98q1 3 -0.5 5.5t-4.5 2.5q-87 2 -91 54q-2 22 10.5 40t36.5 31.5t42 20.5t41 15q17 5 39 11q8 2 11 9q99 220 134 300q7 15 13 7q8 -10 -2 -36q-11 -29 -52.5 -129.5t-56.5 -133.5
q-1 -3 0.5 -4.5t3.5 -1.5q79 16 179 21q9 1 12.5 -6.5t0 -15t-12.5 -7.5q-105 -6 -190 -24q-11 -3 -16 -14q-20 -43 -43 -94q-1 -3 0.5 -5.5t4.5 -1.5q332 21 510 179q28 25 51.5 56t41.5 69t21 75.5t-11 75.5q-54 133 -319 143q-168 7 -327 -39q-153 -44 -222 -100
q3 -6 1 -13t-10 -9q-17 -8 -33 -18q-11 -7 -18 3t0 20q96 116 363 167q224 43 397 -1q37 -10 70.5 -25t63.5 -37.5t50 -54.5t23 -70zM58 254q-16 -16 -17 -27t11.5 -16.5t27.5 -8t35 -2.5q9 0 13 9q18 39 40 88q-2 1 -3.5 2.5t-2.5 3.5q-78 -23 -104 -49z" />
    <glyph glyph-name="Q" unicode="Q" horiz-adv-x="815" 
d="M833 -211q13 2 14 -12q0 -16 -14 -17q-98 -13 -189.5 18t-194.5 94q-12 8 -25 1q-49 -30 -97 -46.5t-97 -19.5t-93 20.5t-73 73.5q-17 28 -27 62q-7 6 -4 15v1q-26 109 15 260q22 84 62 161q4 6 0 11q-47 69 -26 148q21 82 95 140t166 82q51 14 104.5 16t104.5 -7t97 -31
t80.5 -54.5t55.5 -81t22 -106.5q4 -146 -74.5 -295.5t-198.5 -263.5q-23 -23 -52 -45q-7 -5 -7 -14t8 -14q16 -10 30 -18q171 -98 318 -78zM390 -118q7 5 7.5 14t-7.5 14v1q-3 1 -20 12.5t-21 14t-18.5 12t-21 12.5t-19.5 10.5t-22 11t-21 8.5t-23 8q-135 41 -161 -25
q18 -68 64 -104q103 -82 263 11zM424 -74q16 -11 31 1q60 46 110 103q96 107 157.5 235t57.5 252q-2 64 -29.5 114t-71.5 79t-99.5 44.5t-114.5 14t-115 -16.5q-80 -22 -146 -71t-89 -119q-19 -58 5 -110q3 -6 9.5 -6t10.5 5q58 93 138 163q6 6 13.5 2.5t9 -11t-4.5 -14.5
q-84 -74 -143 -175q-5 -7 1 -13q46 -50 128 -85q8 -3 9 -11.5t-5 -14t-15 -1.5q-77 32 -126 80q-5 4 -10.5 2.5t-7.5 -6.5q-39 -78 -58 -163q-24 -104 -14 -187q26 26 74 27.5t87.5 -10t77.5 -29.5q46 -21 130 -79z" />
    <glyph glyph-name="R" unicode="R" horiz-adv-x="721" 
d="M218 126q-5 -1 -8 -5t-1 -9q2 -7 6 -14.5t10 -16.5t10 -14t12 -14.5t9 -11.5q41 -52 98 -106q4 -3 15 -14t18 -17.5t20.5 -18.5t23 -20t23.5 -18t24.5 -16.5t24.5 -13t25 -9t23 -3t22 3.5q9 3 14 -3t3.5 -14t-9.5 -11q-12 -5 -26 -5t-27 2.5t-28 9t-27 13t-27.5 17.5
t-26 19t-25 21t-22 19.5t-19.5 18.5q-7 7 -10 9q-68 64 -116 127q-26 33 -40 57q0 2 -5 2t-6 -1q-66 -151 -98 -238q-20 -53 -27 -82q-1 -4 -3 -14t-4 -14q-2 -8 0 -11q-2 1 -7 2q15 -2 14 -17q-1 -14 -14 -12q-15 2 -19.5 18t1 42.5t14 55.5t22 62.5t24 58t21.5 47.5t11 25
q6 13 33.5 75t74 166.5t76.5 170.5l75 170q1 3 2 5q4 10 16.5 6t10.5 -14q0 -2 -1 -5q-152 -341 -187 -419q-2 -5 1 -9t8 -4q324 24 499 176q28 24 52 55t43 69t22.5 76t-9.5 76q-50 131 -301 145q-172 10 -337 -35q-159 -44 -232 -103q4 -6 1.5 -13t-9.5 -9q-17 -8 -33 -18
q-11 -7 -18.5 3t0.5 20q39 47 96.5 77t138.5 56q154 52 324 53q40 1 81 -2.5t90 -12t90 -26t76 -42t54 -63t17 -86.5q-2 -62 -26 -116.5t-62.5 -95.5t-91.5 -75t-109.5 -57.5t-120.5 -40.5t-122 -26.5t-115 -13.5z" />
    <glyph glyph-name="S" unicode="S" horiz-adv-x="740" 
d="M770 184q9 3 14.5 -3t4 -14t-10.5 -11q-113 -38 -268 -113q-18 -8 -16 -28q1 -16 -1 -33q-12 -93 -82 -170.5t-164 -127.5q-16 -8 -37.5 -16.5t-49.5 -18t-54 -11.5t-47.5 1.5t-33.5 22t-9 48.5q3 26 17 51.5t40 49t43.5 37t47.5 34.5q5 4 8 6q124 87 271 161q3 1 5.5 7
t1.5 9q-16 25 -41 46t-57.5 37.5t-60 28t-65.5 26t-57 22.5q-3 1 -9 4q-26 11 -41 18.5t-39.5 22.5t-38 28.5t-24 34.5t-8.5 44q1 32 17 63t44 58t52.5 45t56.5 39q149 94 356 153q3 0 30 8t36.5 10.5t37 9t41.5 7.5t37.5 2.5t38.5 -2t31.5 -11t27.5 -19.5q92 -98 -72 -333
q-6 -7 -14.5 -6.5t-12 7t0.5 14.5q13 19 22 32.5t22.5 35t22 39t17 40t12 42t3 41t-6.5 39.5q-5 18 -16 29t-28 15.5t-31.5 6t-36.5 -1.5t-34.5 -5t-32.5 -7q-7 -1 -10 -2q-236 -51 -421 -166q-24 -16 -47.5 -33t-53 -44.5t-45 -53.5t-15 -56t25.5 -54q34 -33 85.5 -57.5
t114.5 -48t95 -41.5q79 -41 110 -87q12 -18 30 -9q134 63 271 108zM422 -124q46 73 44 134q0 3 -5 5t-7 1q-77 -38 -124.5 -63.5t-111.5 -67.5t-110 -85l-6 -5.5t-7.5 -7t-8 -7.5t-9 -9t-8 -9t-8.5 -10.5t-6.5 -10t-5.5 -10t-3.5 -10t-1.5 -10.5q0 -22 11 -34.5t26 -12.5
q18 0 39 4q14 3 34 9q36 11 68 28q133 68 200 171z" />
    <glyph glyph-name="T" unicode="T" horiz-adv-x="543" 
d="M938 598q6 -18 -2 -33t-29.5 -26.5t-35.5 -17t-35 -11.5q-2 -1 -3 -1q-9 -3 -14.5 3t-4 14t10.5 11q85 26 76 50q-3 10 -22 18q-13 6 -31.5 8.5t-31 2.5t-37.5 -0.5t-30 -0.5q-102 -2 -253 -29q-2 -1 -6 -4t-4 -5q-46 -124 -159 -418.5t-170 -454.5q-3 -8 -11.5 -9.5
t-14.5 3.5t-3 14q58 160 170.5 453t156.5 413q-13 -2 -19 -4q-14 -2 -47 -8.5t-50 -10.5q-4 -15 -18 -12q-12 2 -28 4q-160 -30 -271 -32q-13 -1 -14.5 12t10.5 16q163 45 272 34q30 5 87 16.5t84 16.5q-6 7 -2 16q52 106 52 107q5 12 18 6.5t9 -17.5q-14 -39 -38 -105
q145 25 249 27q3 0 22.5 0.5t30.5 0.5t32 -0.5t34.5 -4t29 -8t25.5 -13.5t15 -21z" />
    <glyph glyph-name="U" unicode="U" horiz-adv-x="850" 
d="M954 735q4 8 12.5 7t12.5 -7t0 -15q-23 -39 -89 -164q-164 -315 -269 -553q-69 -157 -94 -246q-28 -94 -6 -94q3 0 6 1q9 4 14 -2t3.5 -14.5t-9.5 -11.5q-25 -9 -38.5 4t-13 35t2.5 41q3 15 7 32t7.5 29t10.5 32.5t10 28.5t12.5 32t11 28t13.5 31.5t12 28.5
q57 136 147 320q5 11 2.5 11t-7.5 -8q-155 -243 -283 -373q-33 -33 -63 -58t-69.5 -50.5t-82 -36t-83.5 -3.5q-40 7 -66 31t-35.5 55t-10 72t4.5 74t14 69q67 274 272 563q5 7 13.5 6.5t12 -7t-0.5 -14.5q-213 -302 -274 -577q-9 -40 -13 -69t0 -68.5t22 -65.5
q15 -23 41.5 -33t53.5 -9t54 10q43 13 84.5 39.5t81 66t65.5 69t63 76.5q75 94 149.5 211.5t155.5 255t136 220.5z" />
    <glyph glyph-name="U" unicode="&#xdc;" horiz-adv-x="850" 
d="M954 735q4 8 12.5 7t12.5 -7t0 -15q-23 -39 -89 -164q-164 -315 -269 -553q-69 -157 -94 -246q-28 -94 -6 -94q3 0 6 1q9 4 14 -2t3.5 -14.5t-9.5 -11.5q-25 -9 -38.5 4t-13 35t2.5 41q3 15 7 32t7.5 29t10.5 32.5t10 28.5t12.5 32t11 28t13.5 31.5t12 28.5
q57 136 147 320q5 11 2.5 11t-7.5 -8q-155 -243 -283 -373q-33 -33 -63 -58t-69.5 -50.5t-82 -36t-83.5 -3.5q-40 7 -66 31t-35.5 55t-10 72t4.5 74t14 69q67 274 272 563q5 7 13.5 6.5t12 -7t-0.5 -14.5q-213 -302 -274 -577q-9 -40 -13 -69t0 -68.5t22 -65.5
q15 -23 41.5 -33t53.5 -9t54 10q43 13 84.5 39.5t81 66t65.5 69t63 76.5q75 94 149.5 211.5t155.5 255t136 220.5z" />
    <glyph glyph-name="U" unicode="&#xdb;" horiz-adv-x="850" 
d="M954 735q4 8 12.5 7t12.5 -7t0 -15q-23 -39 -89 -164q-164 -315 -269 -553q-69 -157 -94 -246q-28 -94 -6 -94q3 0 6 1q9 4 14 -2t3.5 -14.5t-9.5 -11.5q-25 -9 -38.5 4t-13 35t2.5 41q3 15 7 32t7.5 29t10.5 32.5t10 28.5t12.5 32t11 28t13.5 31.5t12 28.5
q57 136 147 320q5 11 2.5 11t-7.5 -8q-155 -243 -283 -373q-33 -33 -63 -58t-69.5 -50.5t-82 -36t-83.5 -3.5q-40 7 -66 31t-35.5 55t-10 72t4.5 74t14 69q67 274 272 563q5 7 13.5 6.5t12 -7t-0.5 -14.5q-213 -302 -274 -577q-9 -40 -13 -69t0 -68.5t22 -65.5
q15 -23 41.5 -33t53.5 -9t54 10q43 13 84.5 39.5t81 66t65.5 69t63 76.5q75 94 149.5 211.5t155.5 255t136 220.5z" />
    <glyph glyph-name="U" unicode="&#xda;" horiz-adv-x="850" 
d="M954 735q4 8 12.5 7t12.5 -7t0 -15q-23 -39 -89 -164q-164 -315 -269 -553q-69 -157 -94 -246q-28 -94 -6 -94q3 0 6 1q9 4 14 -2t3.5 -14.5t-9.5 -11.5q-25 -9 -38.5 4t-13 35t2.5 41q3 15 7 32t7.5 29t10.5 32.5t10 28.5t12.5 32t11 28t13.5 31.5t12 28.5
q57 136 147 320q5 11 2.5 11t-7.5 -8q-155 -243 -283 -373q-33 -33 -63 -58t-69.5 -50.5t-82 -36t-83.5 -3.5q-40 7 -66 31t-35.5 55t-10 72t4.5 74t14 69q67 274 272 563q5 7 13.5 6.5t12 -7t-0.5 -14.5q-213 -302 -274 -577q-9 -40 -13 -69t0 -68.5t22 -65.5
q15 -23 41.5 -33t53.5 -9t54 10q43 13 84.5 39.5t81 66t65.5 69t63 76.5q75 94 149.5 211.5t155.5 255t136 220.5z" />
    <glyph glyph-name="U" unicode="&#xd9;" horiz-adv-x="850" 
d="M954 735q4 8 12.5 7t12.5 -7t0 -15q-23 -39 -89 -164q-164 -315 -269 -553q-69 -157 -94 -246q-28 -94 -6 -94q3 0 6 1q9 4 14 -2t3.5 -14.5t-9.5 -11.5q-25 -9 -38.5 4t-13 35t2.5 41q3 15 7 32t7.5 29t10.5 32.5t10 28.5t12.5 32t11 28t13.5 31.5t12 28.5
q57 136 147 320q5 11 2.5 11t-7.5 -8q-155 -243 -283 -373q-33 -33 -63 -58t-69.5 -50.5t-82 -36t-83.5 -3.5q-40 7 -66 31t-35.5 55t-10 72t4.5 74t14 69q67 274 272 563q5 7 13.5 6.5t12 -7t-0.5 -14.5q-213 -302 -274 -577q-9 -40 -13 -69t0 -68.5t22 -65.5
q15 -23 41.5 -33t53.5 -9t54 10q43 13 84.5 39.5t81 66t65.5 69t63 76.5q75 94 149.5 211.5t155.5 255t136 220.5z" />
    <glyph glyph-name="V" unicode="V" horiz-adv-x="725" 
d="M951 765q5 8 13.5 7t12.5 -7.5t0 -14.5q-201 -314 -327 -489q-56 -78 -88.5 -121.5t-85 -109t-102.5 -118t-103 -96.5q-14 -13 -31 -25t-41.5 -27.5t-46.5 -23.5t-42.5 -9.5t-35.5 12t-19 42.5q-2 10 -2.5 19.5t0 20.5t1 19.5t2.5 21.5t3 19t4.5 21t4.5 19t4.5 20t4.5 19
q25 106 81 269q20 59 54 150q-9 6 -5 15q79 191 102 254q3 9 11.5 10.5t14 -4t3.5 -14.5q-25 -76 -79 -219t-77 -211q-48 -144 -73 -243q-1 -3 -7 -27.5t-8 -32t-6 -28.5t-5 -33t-1 -28.5t2 -30.5q12 -83 172 53q51 44 88 83q79 83 153.5 175.5t153.5 206.5t127.5 188
t135.5 209q25 40 37 59z" />
    <glyph glyph-name="W" unicode="W" horiz-adv-x="1045" 
d="M1059 679q3 8 11 9.5t13.5 -3.5t2.5 -13q-33 -89 -95.5 -269t-116 -320t-110.5 -263q-2 -4 -12.5 -30t-19 -42.5t-22 -38.5t-28.5 -34t-30 -13q-13 -1 -23.5 5.5t-17 19.5t-11.5 26.5t-8.5 33t-5 31.5t-3 29.5t-2.5 20.5q-3 24 -11.5 146.5t-22.5 185.5q-8 33 -17.5 37.5
t-37.5 -13.5q-7 -5 -14 -10.5t-14.5 -12.5t-12.5 -11.5t-13 -13.5t-11.5 -13t-13 -14.5t-11.5 -12.5t-12 -14.5t-11 -13.5q-26 -31 -104 -130.5t-125 -150.5q-58 -62 -84 -52q-13 5 -13 31q-1 14 2 31.5t5 27t9 33t8 26.5q25 93 70 219q96 271 208 497q4 7 11.5 7t12 -6.5
t0.5 -14.5q-124 -250 -223 -544q-42 -122 -61 -202q-3 -11 -7 -33l-6 -33q-1 -2 -1 -5q0 -2 1.5 -3t3.5 1l1.5 1t1.5 2q12 11 23 22.5t23.5 24.5t21 22.5t22 26t20 24t21.5 26t19.5 24t21 27t19.5 25.5q11 13 35.5 45t39.5 50.5t37.5 44.5t45 45.5t46.5 34.5q70 46 90 -44
q10 -43 15.5 -92t9 -111.5t6.5 -92.5q10 -99 21 -140q5 -14 7 -19.5t6.5 -13t11 -6t15.5 10t18.5 22.5t14 22.5t14.5 29.5t11 24q30 61 69 157q57 138 151 401t115 319z" />
    <glyph glyph-name="X" unicode="X" horiz-adv-x="871" 
d="M988 -154q6 6 14 3.5t10 -10t-3 -14.5q-40 -42 -83.5 -66.5t-95.5 -31t-105 16.5q-125 51 -245 234q-39 60 -72 130q-4 8 -13 9.5t-15 -4.5q-195 -199 -351 -391q-6 -7 -13.5 -4.5t-10 10t2.5 15.5q164 201 369 408q8 9 4 19q-89 216 -121 509q-1 9 6 12.5t15 0t8 -12.5
q29 -271 108 -473q4 -8 13 -10t16 5q215 213 505 463q7 6 15 3t10 -10t-4 -14q-302 -260 -524 -482q-9 -8 -3 -19q21 -47 43 -87q103 -181 216 -256q84 -52 160.5 -38.5t143.5 85.5z" />
    <glyph glyph-name="Y" unicode="Y" horiz-adv-x="895" 
d="M982 702q-112 -292 -351 -626q-3 -3 0 -7t8 -2q136 61 291 115q9 3 14.5 -3t4 -14t-10.5 -11q-192 -67 -355 -146q-6 -2 -10 -8q-28 -36 -56.5 -71.5t-67.5 -81t-76 -84t-77 -77t-75.5 -63t-67 -38.5t-56 -8.5t-37.5 32.5q-7 13 -7 27t4 27.5t14 29t21 28t27 27.5
t29 25.5t30.5 24t28 20.5t25.5 17.5t19 13.5q140 98 311 182q5 2 9 7q177 232 298 478q2 3 -1.5 5.5t-6.5 -1.5q-123 -174 -245 -300q-75 -77 -142 -129t-142 -74q-24 -7 -48 -9t-48.5 2t-43 19.5t-25.5 41.5q-6 20 -7 41.5t4 46t10 43.5t16.5 46t17.5 40.5t18 39.5
q75 158 143 226q8 7 18 4l3 -1q7 -2 11 -8.5t2 -14.5q-2 -6 -4 -11q-2 -8 -10 -10t-13 3q-3 2 -5 -1q-17 -21 -58 -88q-49 -81 -81 -158q-8 -19 -14.5 -36.5t-13.5 -42.5t-10 -45.5t-1.5 -42t10 -36t27 -23t46.5 -7.5q37 2 77 18t70.5 35t69.5 53t59.5 54.5t54.5 56.5
q169 177 350 463q6 11 17 6q12 -3 10 -14q0 -3 -2 -6zM511 -37q2 2 0 5t-5 1q-134 -70 -246 -150q-72 -51 -130 -112q-80 -84 -25 -99q15 -4 38.5 5.5t32.5 15.5t32 23q63 45 148 134q80 84 155 177z" />
    <glyph glyph-name="Y" unicode="&#xdd;" horiz-adv-x="895" 
d="M982 702q-112 -292 -351 -626q-3 -3 0 -7t8 -2q136 61 291 115q9 3 14.5 -3t4 -14t-10.5 -11q-192 -67 -355 -146q-6 -2 -10 -8q-28 -36 -56.5 -71.5t-67.5 -81t-76 -84t-77 -77t-75.5 -63t-67 -38.5t-56 -8.5t-37.5 32.5q-7 13 -7 27t4 27.5t14 29t21 28t27 27.5
t29 25.5t30.5 24t28 20.5t25.5 17.5t19 13.5q140 98 311 182q5 2 9 7q177 232 298 478q2 3 -1.5 5.5t-6.5 -1.5q-123 -174 -245 -300q-75 -77 -142 -129t-142 -74q-24 -7 -48 -9t-48.5 2t-43 19.5t-25.5 41.5q-6 20 -7 41.5t4 46t10 43.5t16.5 46t17.5 40.5t18 39.5
q75 158 143 226q8 7 18 4l3 -1q7 -2 11 -8.5t2 -14.5q-2 -6 -4 -11q-2 -8 -10 -10t-13 3q-3 2 -5 -1q-17 -21 -58 -88q-49 -81 -81 -158q-8 -19 -14.5 -36.5t-13.5 -42.5t-10 -45.5t-1.5 -42t10 -36t27 -23t46.5 -7.5q37 2 77 18t70.5 35t69.5 53t59.5 54.5t54.5 56.5
q169 177 350 463q6 11 17 6q12 -3 10 -14q0 -3 -2 -6zM511 -37q2 2 0 5t-5 1q-134 -70 -246 -150q-72 -51 -130 -112q-80 -84 -25 -99q15 -4 38.5 5.5t32.5 15.5t32 23q63 45 148 134q80 84 155 177z" />
    <glyph glyph-name="Z" unicode="Z" horiz-adv-x="1028" 
d="M1128 557q7 -57 -60 -134q-59 -67 -184 -159q-95 -69 -198 -134.5t-225.5 -134t-204 -112t-226.5 -118.5q-6 -3 -4 -9t8 -5h2q138 11 271 15q372 12 650 -3q9 -1 12.5 -8.5t0 -14.5t-12.5 -7q-265 15 -621 5q-173 -5 -320 -18q-69 -6 -111 -19q-12 -4 -17.5 8.5t5.5 18.5
q346 180 426 224q324 178 517 314q123 87 189 154q17 18 27.5 30t25 32t19.5 39.5t1 37.5q-4 23 -19.5 39.5t-40 26.5t-44 15t-44.5 10q-107 18 -281 3q-150 -13 -265.5 -33t-212.5 -63q-8 -3 -15.5 2t-7.5 12t8 12q77 34 241 65q185 35 344 40q27 1 39 1h45t52.5 -1.5
t51.5 -5t52.5 -10t45.5 -16.5t40 -23.5t26.5 -32.5t14.5 -43z" />
    <glyph glyph-name="bracketleft" unicode="[" horiz-adv-x="414" 
d="M347 436q9 0 13 -7t0 -14.5t-13 -7.5h-78q-26 1 -35 -24q-12 -30 -57.5 -149t-69.5 -183q-7 -19 4 -35t31 -16q17 0 52 -1q9 0 12.5 -7t0 -14.5t-12.5 -7.5h-24h-27.5h-23.5q-23 1 -50 1q-8 0 -12 7q-7 6 -4 14q32 85 91.5 240.5t75.5 196.5q5 14 20 9q4 -1 10 -1
q22 0 97 -1z" />
    <glyph glyph-name="backslash" unicode="\" horiz-adv-x="268" 
d="M214 -106q3 -8 -3 -13.5t-14 -4t-11 10.5q-80 225 -110 337q-7 -2 -13 1.5t-6 11.5q1 58 -4 80q-2 8 4 13.5t14 4t10 -10.5q15 -67 40 -150t41.5 -132t51.5 -148z" />
    <glyph glyph-name="bracketright" unicode="]" horiz-adv-x="417" 
d="M341 436q8 6 17 1t5 -16q-18 -48 -77 -200q-57 -149 -89 -236q-2 -5 -6 -8q-4 -7 -12 -7h-28.5h-27.5q-34 1 -56 1q-9 0 -13 7t0 14.5t13 7.5h86q18 0 24 16q10 26 136 357q5 12 -2.5 23t-20.5 11q-31 1 -57 1q-9 0 -12.5 7t0 14.5t12.5 7.5q24 0 108 -1z" />
    <glyph glyph-name="asciicircum" unicode="^" horiz-adv-x="237" 
d="M184 222q3 -8 -3 -13.5t-14.5 -4t-11.5 10.5q-4 11 -7.5 17.5t-11.5 11.5t-18 2q-13 -6 -41 -34q-6 -7 -14 -4t-10 10t4 14q13 14 20 20.5t21 15t26 9.5q37 3 60 -55z" />
    <glyph glyph-name="grave" unicode="`" horiz-adv-x="226" 
d="M170 399q5 -7 2 -15t-10 -10t-13 4q-41 51 -90 81q-7 5 -6.5 13.5t7 12t14.5 0.5q54 -33 96 -86z" />
    <glyph glyph-name="a" unicode="a" horiz-adv-x="436" 
d="M464 166q6 6 14 3t10 -10t-4 -14q-73 -74 -145 -115q-63 -37 -112 -37q-46 0 -69.5 37.5t-13.5 82.5q1 4 -0.5 5.5t-3.5 -1.5q-4 -6 -7 -10q-61 -77 -114 -104q-28 -15 -50.5 -2t-16.5 46q5 28 29 63t57.5 61.5t70.5 38t68 -6.5q3 -1 6 3q19 28 30 39q7 6 15 3.5t10 -10
t-4 -14.5q-28 -28 -50.5 -76.5t-12.5 -81.5q21 -70 101 -37q92 37 192 137zM144 172q3 5 1 9t-7 4q-41 0 -91.5 -46.5t-61.5 -81.5q-5 -8 -4.5 -23.5t15.5 -9.5q23 9 55 42q48 46 93 106z" />
    <glyph glyph-name="a" unicode="&#xe5;" horiz-adv-x="436" 
d="M464 166q6 6 14 3t10 -10t-4 -14q-73 -74 -145 -115q-63 -37 -112 -37q-46 0 -69.5 37.5t-13.5 82.5q1 4 -0.5 5.5t-3.5 -1.5q-4 -6 -7 -10q-61 -77 -114 -104q-28 -15 -50.5 -2t-16.5 46q5 28 29 63t57.5 61.5t70.5 38t68 -6.5q3 -1 6 3q19 28 30 39q7 6 15 3.5t10 -10
t-4 -14.5q-28 -28 -50.5 -76.5t-12.5 -81.5q21 -70 101 -37q92 37 192 137zM144 172q3 5 1 9t-7 4q-41 0 -91.5 -46.5t-61.5 -81.5q-5 -8 -4.5 -23.5t15.5 -9.5q23 9 55 42q48 46 93 106z" />
    <glyph glyph-name="a" unicode="&#xe4;" horiz-adv-x="436" 
d="M464 166q6 6 14 3t10 -10t-4 -14q-73 -74 -145 -115q-63 -37 -112 -37q-46 0 -69.5 37.5t-13.5 82.5q1 4 -0.5 5.5t-3.5 -1.5q-4 -6 -7 -10q-61 -77 -114 -104q-28 -15 -50.5 -2t-16.5 46q5 28 29 63t57.5 61.5t70.5 38t68 -6.5q3 -1 6 3q19 28 30 39q7 6 15 3.5t10 -10
t-4 -14.5q-28 -28 -50.5 -76.5t-12.5 -81.5q21 -70 101 -37q92 37 192 137zM144 172q3 5 1 9t-7 4q-41 0 -91.5 -46.5t-61.5 -81.5q-5 -8 -4.5 -23.5t15.5 -9.5q23 9 55 42q48 46 93 106z" />
    <glyph glyph-name="a" unicode="&#xe3;" horiz-adv-x="436" 
d="M464 166q6 6 14 3t10 -10t-4 -14q-73 -74 -145 -115q-63 -37 -112 -37q-46 0 -69.5 37.5t-13.5 82.5q1 4 -0.5 5.5t-3.5 -1.5q-4 -6 -7 -10q-61 -77 -114 -104q-28 -15 -50.5 -2t-16.5 46q5 28 29 63t57.5 61.5t70.5 38t68 -6.5q3 -1 6 3q19 28 30 39q7 6 15 3.5t10 -10
t-4 -14.5q-28 -28 -50.5 -76.5t-12.5 -81.5q21 -70 101 -37q92 37 192 137zM144 172q3 5 1 9t-7 4q-41 0 -91.5 -46.5t-61.5 -81.5q-5 -8 -4.5 -23.5t15.5 -9.5q23 9 55 42q48 46 93 106z" />
    <glyph glyph-name="a" unicode="&#xe2;" horiz-adv-x="436" 
d="M464 166q6 6 14 3t10 -10t-4 -14q-73 -74 -145 -115q-63 -37 -112 -37q-46 0 -69.5 37.5t-13.5 82.5q1 4 -0.5 5.5t-3.5 -1.5q-4 -6 -7 -10q-61 -77 -114 -104q-28 -15 -50.5 -2t-16.5 46q5 28 29 63t57.5 61.5t70.5 38t68 -6.5q3 -1 6 3q19 28 30 39q7 6 15 3.5t10 -10
t-4 -14.5q-28 -28 -50.5 -76.5t-12.5 -81.5q21 -70 101 -37q92 37 192 137zM144 172q3 5 1 9t-7 4q-41 0 -91.5 -46.5t-61.5 -81.5q-5 -8 -4.5 -23.5t15.5 -9.5q23 9 55 42q48 46 93 106z" />
    <glyph glyph-name="a" unicode="&#xe1;" horiz-adv-x="436" 
d="M464 166q6 6 14 3t10 -10t-4 -14q-73 -74 -145 -115q-63 -37 -112 -37q-46 0 -69.5 37.5t-13.5 82.5q1 4 -0.5 5.5t-3.5 -1.5q-4 -6 -7 -10q-61 -77 -114 -104q-28 -15 -50.5 -2t-16.5 46q5 28 29 63t57.5 61.5t70.5 38t68 -6.5q3 -1 6 3q19 28 30 39q7 6 15 3.5t10 -10
t-4 -14.5q-28 -28 -50.5 -76.5t-12.5 -81.5q21 -70 101 -37q92 37 192 137zM144 172q3 5 1 9t-7 4q-41 0 -91.5 -46.5t-61.5 -81.5q-5 -8 -4.5 -23.5t15.5 -9.5q23 9 55 42q48 46 93 106z" />
    <glyph glyph-name="a" unicode="&#xe0;" horiz-adv-x="436" 
d="M464 166q6 6 14 3t10 -10t-4 -14q-73 -74 -145 -115q-63 -37 -112 -37q-46 0 -69.5 37.5t-13.5 82.5q1 4 -0.5 5.5t-3.5 -1.5q-4 -6 -7 -10q-61 -77 -114 -104q-28 -15 -50.5 -2t-16.5 46q5 28 29 63t57.5 61.5t70.5 38t68 -6.5q3 -1 6 3q19 28 30 39q7 6 15 3.5t10 -10
t-4 -14.5q-28 -28 -50.5 -76.5t-12.5 -81.5q21 -70 101 -37q92 37 192 137zM144 172q3 5 1 9t-7 4q-41 0 -91.5 -46.5t-61.5 -81.5q-5 -8 -4.5 -23.5t15.5 -9.5q23 9 55 42q48 46 93 106z" />
    <glyph glyph-name="b" unicode="b" horiz-adv-x="419" 
d="M437 154q9 1 12.5 -6.5t0 -15t-12.5 -7.5q-115 -2 -219 -23l-3.5 -0.5t-4.5 -0.5q-10 -2 -15 -8q-24 -35 -62 -62.5t-71 -37.5q-20 -8 -38 -1t-17 30q3 41 75 73q41 18 92 31q2 0 6 3t5 5q6 11 8 21q10 52 -31 47t-102 -51q-6 -5 -9 -8q-55 -52 -80 -101q0 -1 -1 -3
q-2 -4 -5.5 -11.5t-6.5 -13.5t-6 -11q-4 -8 -11.5 -8t-12.5 7.5t-1 15.5q93 198 240 482q-8 -1 -14.5 6t-1.5 16q26 51 85 107q9 9 19 1.5t4 -19.5q-137 -261 -216 -421q-3 -5 0 -7.5t7 1.5q21 16 43 28q19 10 41 16t46.5 1.5t34.5 -25.5q13 -29 4 -63q-1 -2 0.5 -3.5
t5.5 -0.5q98 15 212 17zM144 78q4 4 1 7q-1 1 -3 0q-21 -6 -38 -13q-6 -2 -25 -11q-15 -7 -26.5 -16t-15.5 -16t-1 -9q5 -5 31 5q40 16 77 53z" />
    <glyph glyph-name="c" unicode="c" horiz-adv-x="381" 
d="M398 154q7 6 15.5 3t10 -10t-4.5 -14q-135 -113 -257 -134q-19 -4 -45.5 -3t-51 5.5t-43.5 19.5t-23 38q-8 47 17.5 90t69.5 67q27 15 57.5 12t44 -22.5t-3.5 -54.5q-5 -7 -12.5 -7t-12 7t-0.5 15q8 16 4 24t-16 8.5t-22.5 -1t-16.5 -3.5q-19 -8 -35 -21q-33 -32 -42 -63
q-11 -43 13.5 -65.5t70.5 -20.5q137 7 283 130z" />
    <glyph glyph-name="c" unicode="&#xe7;" horiz-adv-x="381" 
d="M398 154q7 6 15.5 3t10 -10t-4.5 -14q-135 -113 -257 -134q-19 -4 -45.5 -3t-51 5.5t-43.5 19.5t-23 38q-8 47 17.5 90t69.5 67q27 15 57.5 12t44 -22.5t-3.5 -54.5q-5 -7 -12.5 -7t-12 7t-0.5 15q8 16 4 24t-16 8.5t-22.5 -1t-16.5 -3.5q-19 -8 -35 -21q-33 -32 -42 -63
q-11 -43 13.5 -65.5t70.5 -20.5q137 7 283 130z" />
    <glyph glyph-name="d" unicode="d" horiz-adv-x="469" 
d="M490 162q6 6 14.5 3t10 -10t-4.5 -14q-31 -27 -45 -39.5t-46.5 -36.5t-55.5 -35.5t-54 -21.5t-60 -9q-44 2 -66 40.5t-15 83.5q2 9 4 19q1 3 -1 4t-3 -1q-79 -106 -143 -139q-30 -16 -54 -2t-17 50q5 29 30 65.5t59.5 65t73.5 43t73 -0.5q1 -1 4 0.5t4 3.5q19 54 70 159
q23 48 52 103q-8 -1 -13.5 4.5t-2.5 13.5q8 21 23 42t41 50t32 36q8 10 18.5 1.5t4.5 -19.5q-145 -253 -200 -411q-1 -2 -2 -6q-7 -18 -10.5 -29.5t-9.5 -34t-6 -38t3 -32.5t14.5 -27t30.5 -13q29 -5 61 4.5t67 33t55 40t53 44.5q7 7 11 10zM164 191q3 3 1.5 8.5t-8.5 5.5
q-44 2 -100.5 -49t-69.5 -91q-6 -10 -4.5 -27t18.5 -11q25 11 61 46q53 52 102 118z" />
    <glyph glyph-name="e" unicode="e" horiz-adv-x="383" 
d="M403 159q7 6 15 3t10 -10t-4 -14q-210 -182 -351 -150q-48 11 -67.5 46.5t-8.5 78t44 76.5q27 28 61 43.5t66 6.5q24 -7 31 -30t-1 -43q-11 -38 -67 -55t-95 2q-7 3 -11 -9q-2 -10 -2 -20q-1 -33 19.5 -51t51.5 -20t61 3t54 15q87 35 194 128zM49 152q-2 -4 -1.5 -8.5
t4.5 -5.5q23 -7 50.5 -3.5t49.5 20t21 37.5q-3 39 -57 13q-46 -22 -67 -53z" />
    <glyph glyph-name="e" unicode="&#xeb;" horiz-adv-x="383" 
d="M403 159q7 6 15 3t10 -10t-4 -14q-210 -182 -351 -150q-48 11 -67.5 46.5t-8.5 78t44 76.5q27 28 61 43.5t66 6.5q24 -7 31 -30t-1 -43q-11 -38 -67 -55t-95 2q-7 3 -11 -9q-2 -10 -2 -20q-1 -33 19.5 -51t51.5 -20t61 3t54 15q87 35 194 128zM49 152q-2 -4 -1.5 -8.5
t4.5 -5.5q23 -7 50.5 -3.5t49.5 20t21 37.5q-3 39 -57 13q-46 -22 -67 -53z" />
    <glyph glyph-name="e" unicode="&#xea;" horiz-adv-x="383" 
d="M403 159q7 6 15 3t10 -10t-4 -14q-210 -182 -351 -150q-48 11 -67.5 46.5t-8.5 78t44 76.5q27 28 61 43.5t66 6.5q24 -7 31 -30t-1 -43q-11 -38 -67 -55t-95 2q-7 3 -11 -9q-2 -10 -2 -20q-1 -33 19.5 -51t51.5 -20t61 3t54 15q87 35 194 128zM49 152q-2 -4 -1.5 -8.5
t4.5 -5.5q23 -7 50.5 -3.5t49.5 20t21 37.5q-3 39 -57 13q-46 -22 -67 -53z" />
    <glyph glyph-name="e" unicode="&#xe9;" horiz-adv-x="383" 
d="M403 159q7 6 15 3t10 -10t-4 -14q-210 -182 -351 -150q-48 11 -67.5 46.5t-8.5 78t44 76.5q27 28 61 43.5t66 6.5q24 -7 31 -30t-1 -43q-11 -38 -67 -55t-95 2q-7 3 -11 -9q-2 -10 -2 -20q-1 -33 19.5 -51t51.5 -20t61 3t54 15q87 35 194 128zM49 152q-2 -4 -1.5 -8.5
t4.5 -5.5q23 -7 50.5 -3.5t49.5 20t21 37.5q-3 39 -57 13q-46 -22 -67 -53z" />
    <glyph glyph-name="e" unicode="&#xe8;" horiz-adv-x="383" 
d="M403 159q7 6 15 3t10 -10t-4 -14q-210 -182 -351 -150q-48 11 -67.5 46.5t-8.5 78t44 76.5q27 28 61 43.5t66 6.5q24 -7 31 -30t-1 -43q-11 -38 -67 -55t-95 2q-7 3 -11 -9q-2 -10 -2 -20q-1 -33 19.5 -51t51.5 -20t61 3t54 15q87 35 194 128zM49 152q-2 -4 -1.5 -8.5
t4.5 -5.5q23 -7 50.5 -3.5t49.5 20t21 37.5q-3 39 -57 13q-46 -22 -67 -53z" />
    <glyph glyph-name="f" unicode="f" horiz-adv-x="324" 
d="M343 153q6 6 14.5 3t10 -10t-4.5 -14q-33 -28 -58.5 -46.5t-63 -40t-74.5 -29t-72 -0.5q-28 6 -45 18q-3 3 -7 0.5t-3 -10.5q1 -84 -19 -161q-9 -36 -16 -58.5t-24 -52.5t-38 -46q-17 -15 -42.5 -12.5t-35.5 24.5q-11 29 8 96q18 61 49 134.5t52 115t65 127.5
q73 142 174 324q5 8 12.5 8t12.5 -7.5t1 -14.5q-136 -244 -200 -372q-5 -9 -6 -21t1 -15q9 -19 27.5 -32t40.5 -16q32 -5 65 3t66.5 27t56 36t53.5 42zM-4 -115q17 80 14 148q-1 8 -6.5 9.5t-10.5 -7.5q-30 -66 -50 -114q-31 -77 -45 -146q-11 -60 13 -53q1 0 2 1
q54 20 83 162z" />
    <glyph glyph-name="g" unicode="g" horiz-adv-x="372" 
d="M405 170q8 4 15 -1t7 -12t-7 -12q-176 -79 -287 -144q-1 -1 -2 -3q-64 -132 -145 -216q-13 -13 -27 -24.5t-33.5 -23t-38.5 -10.5t-32 17q-21 27 9 77q23 39 59.5 71.5t88.5 69.5q44 31 95 61q2 1 3 3q16 35 32 73q2 5 -3 8t-9 -1q-43 -47 -84 -69q-28 -16 -49.5 -2.5
t-16.5 46.5q4 27 27.5 61t56.5 60t70 37.5t67 -6.5q5 -1 9 -4q3 -2 4 -5q11 -11 -2 -21q-2 -2 -2 -4q-25 -72 -49 -131q-2 -4 1.5 -7.5t8.5 -1.5q93 51 234 114zM71 -54q2 5 -2 9t-9 1q-20 -14 -38 -26q-28 -20 -40.5 -29.5t-37 -30t-39.5 -40.5t-23 -40q-14 -35 9 -32
q28 5 68 39q4 3 6 6q57 59 106 143zM78 96q42 41 91 105q2 3 0.5 7t-6.5 4q-39 1 -88.5 -44.5t-61.5 -80.5q-13 -34 10 -32q5 1 11.5 4t13 8t11 9.5l11 11z" />
    <glyph glyph-name="h" unicode="h" horiz-adv-x="452" 
d="M472 160q6 6 14.5 3t10 -10t-4.5 -13q-3 -4 -27 -24t-31 -26t-29 -23.5t-33 -24.5t-31.5 -20.5t-35 -20.5t-33.5 -14t-36 -11q-30 -6 -48 2t-23 26.5t-3.5 39t9.5 42.5q8 25 49 114q2 5 -3 5q-4 0 -8 -3q-12 -7 -28 -19q-143 -109 -198 -187v-1l-1 -1q-5 -12 -16.5 -7
t-10.5 17q0 1 0.5 1.5l0.5 0.5v2h1v1q139 303 235 496q-8 1 -12.5 7.5t-0.5 14.5q33 61 79 108q9 9 19 1t4 -19q-106 -206 -244 -505q-3 -6 0 -7.5t8 2.5q34 32 90 77q121 98 125 47q1 -11 -3 -23t-14 -29.5t-11 -20.5q-2 -5 -9 -19t-11.5 -22.5t-11 -24.5t-8 -25l-4 -24
t2.5 -22q6 -19 26.5 -20t51.5 15.5t59 34t64 45.5t49.5 39t30.5 25z" />
    <glyph glyph-name="i" unicode="i" horiz-adv-x="280" 
d="M293 154q7 6 15 3.5t10 -10t-4 -14.5q-66 -66 -145 -111q-2 -1 -5 -3q-15 -8 -23.5 -12.5t-25 -12t-28.5 -10.5t-26 -3t-26 5q-29 13 -36 45.5t6.5 71.5t28.5 71t32 57q5 7 13.5 6.5t12 -7t-0.5 -14.5q-31 -48 -53 -116q-30 -96 23 -90q8 1 19 5q116 41 213 139z
M125.5 280q-9.5 0 -16 6.5t-6.5 15.5t6.5 15.5t16 6.5t16 -6.5t6.5 -15.5t-6.5 -15.5t-16 -6.5z" />
    <glyph glyph-name="i" unicode="&#xef;" horiz-adv-x="280" 
d="M293 154q7 6 15 3.5t10 -10t-4 -14.5q-66 -66 -145 -111q-2 -1 -5 -3q-15 -8 -23.5 -12.5t-25 -12t-28.5 -10.5t-26 -3t-26 5q-29 13 -36 45.5t6.5 71.5t28.5 71t32 57q5 7 13.5 6.5t12 -7t-0.5 -14.5q-31 -48 -53 -116q-30 -96 23 -90q8 1 19 5q116 41 213 139z
M125.5 280q-9.5 0 -16 6.5t-6.5 15.5t6.5 15.5t16 6.5t16 -6.5t6.5 -15.5t-6.5 -15.5t-16 -6.5z" />
    <glyph glyph-name="i" unicode="&#xee;" horiz-adv-x="280" 
d="M293 154q7 6 15 3.5t10 -10t-4 -14.5q-66 -66 -145 -111q-2 -1 -5 -3q-15 -8 -23.5 -12.5t-25 -12t-28.5 -10.5t-26 -3t-26 5q-29 13 -36 45.5t6.5 71.5t28.5 71t32 57q5 7 13.5 6.5t12 -7t-0.5 -14.5q-31 -48 -53 -116q-30 -96 23 -90q8 1 19 5q116 41 213 139z
M125.5 280q-9.5 0 -16 6.5t-6.5 15.5t6.5 15.5t16 6.5t16 -6.5t6.5 -15.5t-6.5 -15.5t-16 -6.5z" />
    <glyph glyph-name="i" unicode="&#xed;" horiz-adv-x="280" 
d="M293 154q7 6 15 3.5t10 -10t-4 -14.5q-66 -66 -145 -111q-2 -1 -5 -3q-15 -8 -23.5 -12.5t-25 -12t-28.5 -10.5t-26 -3t-26 5q-29 13 -36 45.5t6.5 71.5t28.5 71t32 57q5 7 13.5 6.5t12 -7t-0.5 -14.5q-31 -48 -53 -116q-30 -96 23 -90q8 1 19 5q116 41 213 139z
M125.5 280q-9.5 0 -16 6.5t-6.5 15.5t6.5 15.5t16 6.5t16 -6.5t6.5 -15.5t-6.5 -15.5t-16 -6.5z" />
    <glyph glyph-name="i" unicode="&#xec;" horiz-adv-x="280" 
d="M293 154q7 6 15 3.5t10 -10t-4 -14.5q-66 -66 -145 -111q-2 -1 -5 -3q-15 -8 -23.5 -12.5t-25 -12t-28.5 -10.5t-26 -3t-26 5q-29 13 -36 45.5t6.5 71.5t28.5 71t32 57q5 7 13.5 6.5t12 -7t-0.5 -14.5q-31 -48 -53 -116q-30 -96 23 -90q8 1 19 5q116 41 213 139z
M125.5 280q-9.5 0 -16 6.5t-6.5 15.5t6.5 15.5t16 6.5t16 -6.5t6.5 -15.5t-6.5 -15.5t-16 -6.5z" />
    <glyph glyph-name="j" unicode="j" horiz-adv-x="249" 
d="M260 151q8 3 15.5 -2t7 -12t-7.5 -11q-175 -79 -286 -144q-2 -1 -3 -4q-64 -132 -145 -215q-12 -14 -26.5 -25t-34 -22.5t-38 -11t-31.5 16.5q-22 27 8 78q23 39 59.5 71t89.5 69q43 31 94 61q3 2 4 5q38 82 75 194q3 9 11.5 10.5t14.5 -4t3 -14.5q-26 -76 -51 -138
q-3 -7 2 -11.5t11 -1.5q92 50 228 111zM-80 -83q4 7 -2 12t-12 1q-16 -10 -28 -20q-29 -20 -41.5 -29.5t-37 -30t-39.5 -40t-23 -40.5q-14 -35 10 -31q27 4 67 39q4 3 6 5q54 56 100 134zM88 276q-3 -9 -11 -10.5t-14 4t-4 14.5q3 11 6 23q2 8 10 10t14.5 -3.5t3.5 -14.5
q-2 -12 -5 -23z" />
    <glyph glyph-name="k" unicode="k" horiz-adv-x="431" 
d="M439 148q7 6 15 3t10 -10t-4 -14q-61 -58 -119 -92.5t-121 -32.5q-107 5 -164 88q-6 9 -11 4q-31 -29 -52 -67q-1 -3 -4.5 -10.5t-5.5 -11.5q-4 -7 -11.5 -7t-12.5 7t-1 15q1 3 3.5 8t3.5 6q0 2 1 4q0 1 1 2t1 2q83 177 211 422q-8 0 -13.5 7t-0.5 15q24 47 78 99
q9 9 19 1.5t4 -19.5q-138 -263 -216 -422q-1 -3 0.5 -4.5t4.5 1.5q32 25 69 45q21 11 32.5 16.5t34.5 14t41 7t31 -11.5q18 -14 17 -30t-13 -29.5t-29 -20.5q-53 -22 -151 -20q-11 0 -4 -9q28 -41 78 -60.5t96 -8.5q50 11 93 39.5t89 73.5zM115 149q-3 -2 -2.5 -4.5
t3.5 -2.5q38 1 68 7q43 8 56 17q31 22 -10 24q-19 1 -28 -1q-44 -14 -87 -40z" />
    <glyph glyph-name="l" unicode="l" horiz-adv-x="216" 
d="M347 715q15 0 21.5 -11t6.5 -23q0 -20 -19 -69q-87 -223 -298 -467q-5 -6 -8 -13q-34 -82 -60 -158q-25 -74 -36 -121q-1 -1 -4 -13t-4.5 -19t-1.5 -16.5t4 -14.5q5 -8 0 -14.5t-12.5 -7t-13.5 6.5q-3 5 -5 13t-2 14t1.5 16.5t2 14.5t3.5 15.5t3 12.5q15 62 53 167
q74 200 163 382l7 14q17 35 28 56.5t31.5 61.5t37 65.5t35.5 52.5t36.5 41t30.5 14zM124 280q10 0 72.5 101t113.5 201.5t34 100.5q-16 0 -71.5 -93t-105 -191t-49.5 -114q0 -5 6 -5z" />
    <glyph glyph-name="m" unicode="m" horiz-adv-x="619" 
d="M637 154q6 5 14.5 2t10 -9.5t-4.5 -13.5q-45 -39 -64.5 -55t-59 -42.5t-73.5 -41.5q-28 -12 -58 -12q-63 0 -63 63q0 29 21 78.5t23 56.5q6 17 -7 11q-16 -7 -57 -47l-25.5 -25.5l-29.5 -29.5l-25 -25q-1 -2 -7 -8.5t-12 -12.5l-13.5 -13.5t-15 -12.5t-15 -8.5t-14.5 -2
t-12 7.5q-6 7 -6.5 20.5t4.5 29.5t10.5 29.5t12.5 28.5t9 21q9 24 10 27q2 9 -3 11t-11 -3q-35 -24 -84 -69q-56 -53 -104 -104q-7 -8 -18 -2t-7 16q35 91 117 248q5 7 12.5 7t12 -7t0.5 -15q-51 -98 -76 -153q-2 -5 0 -6.5t6 2.5q23 23 46 43q87 79 119 79q7 0 12 -2.5
t7 -8t3 -11t-0.5 -13.5t-2.5 -14t-3.5 -14t-4 -12.5t-4 -10.5l-2.5 -6q-1 -1 -10.5 -25.5t-12.5 -36.5q-4 -12 1 -11q3 0 11 8q2 3 8 8.5t9 8.5q9 9 43.5 46.5t59.5 59.5t52 37q19 12 39 4.5t12 -34.5q-2 -8 -13 -35q-43 -106 -29 -133q11 -21 51 -9q17 5 33 12t34 18t29 18
t31.5 23.5t27 21.5t29.5 25t27 23z" />
    <glyph glyph-name="n" unicode="n" horiz-adv-x="440" 
d="M450 154q6 5 14.5 2t10.5 -10t-4 -13q-46 -39 -65.5 -55t-59 -42.5t-73.5 -41.5q-28 -12 -58 -12q-63 0 -63 63q0 13 7.5 38.5t11.5 34.5q14 32 20 52q3 9 -2.5 11t-11.5 -3q-35 -24 -83 -69q-56 -53 -105 -104q-7 -8 -17.5 -2t-6.5 16q34 91 116 248q5 7 12.5 7t12.5 -7
t1 -15q-53 -100 -77 -153q-2 -5 0.5 -6.5t5.5 2.5q24 23 46 43q87 79 119 79q8 0 12.5 -2.5t6.5 -8t3 -11t0 -13t-2.5 -14t-4 -14.5t-4 -12.5t-4 -10.5l-2.5 -6q-4 -11 -7 -19q-7 -19 -10.5 -33.5t-4 -29.5t5 -22.5t17 -11.5t32.5 4q17 5 33 12t34 18t29 18t31.5 23.5
t27 21.5t30 25t26.5 23z" />
    <glyph glyph-name="n" unicode="&#xf1;" horiz-adv-x="440" 
d="M450 154q6 5 14.5 2t10.5 -10t-4 -13q-46 -39 -65.5 -55t-59 -42.5t-73.5 -41.5q-28 -12 -58 -12q-63 0 -63 63q0 13 7.5 38.5t11.5 34.5q14 32 20 52q3 9 -2.5 11t-11.5 -3q-35 -24 -83 -69q-56 -53 -105 -104q-7 -8 -17.5 -2t-6.5 16q34 91 116 248q5 7 12.5 7t12.5 -7
t1 -15q-53 -100 -77 -153q-2 -5 0.5 -6.5t5.5 2.5q24 23 46 43q87 79 119 79q8 0 12.5 -2.5t6.5 -8t3 -11t0 -13t-2.5 -14t-4 -14.5t-4 -12.5t-4 -10.5l-2.5 -6q-4 -11 -7 -19q-7 -19 -10.5 -33.5t-4 -29.5t5 -22.5t17 -11.5t32.5 4q17 5 33 12t34 18t29 18t31.5 23.5
t27 21.5t30 25t26.5 23z" />
    <glyph glyph-name="o" unicode="o" horiz-adv-x="348" 
d="M361 158q8 5 15 0t7 -12.5t-7 -12.5q-63 -38 -144 -51q-35 -6 -50 -6q-17 -1 -24 -11q-30 -43 -72 -60q-25 -9 -48 -8t-39.5 18.5t-16.5 45.5q1 32 19.5 70.5t52.5 68t70 29.5q30 0 49.5 -21t17.5 -58q-1 -12 -5 -28q-2 -9 1 -12t15 -2q83 4 159 50zM124 70q11 12 0 20
q-22 17 -27 44.5t7 51.5q1 2 -1 4t-5 2.5t-8 -2.5q-28 -15 -48.5 -43t-27 -60.5t8 -51.5t47.5 -6q29 13 54 41zM157 127q11 35 -3 58q-8 13 -17 0q-12 -17 -14 -33.5t12 -32.5q6 -5 12.5 -2.5t9.5 10.5z" />
    <glyph glyph-name="o" unicode="&#xf8;" horiz-adv-x="348" 
d="M361 158q8 5 15 0t7 -12.5t-7 -12.5q-63 -38 -144 -51q-35 -6 -50 -6q-17 -1 -24 -11q-30 -43 -72 -60q-25 -9 -48 -8t-39.5 18.5t-16.5 45.5q1 32 19.5 70.5t52.5 68t70 29.5q30 0 49.5 -21t17.5 -58q-1 -12 -5 -28q-2 -9 1 -12t15 -2q83 4 159 50zM124 70q11 12 0 20
q-22 17 -27 44.5t7 51.5q1 2 -1 4t-5 2.5t-8 -2.5q-28 -15 -48.5 -43t-27 -60.5t8 -51.5t47.5 -6q29 13 54 41zM157 127q11 35 -3 58q-8 13 -17 0q-12 -17 -14 -33.5t12 -32.5q6 -5 12.5 -2.5t9.5 10.5z" />
    <glyph glyph-name="o" unicode="&#xf6;" horiz-adv-x="348" 
d="M361 158q8 5 15 0t7 -12.5t-7 -12.5q-63 -38 -144 -51q-35 -6 -50 -6q-17 -1 -24 -11q-30 -43 -72 -60q-25 -9 -48 -8t-39.5 18.5t-16.5 45.5q1 32 19.5 70.5t52.5 68t70 29.5q30 0 49.5 -21t17.5 -58q-1 -12 -5 -28q-2 -9 1 -12t15 -2q83 4 159 50zM124 70q11 12 0 20
q-22 17 -27 44.5t7 51.5q1 2 -1 4t-5 2.5t-8 -2.5q-28 -15 -48.5 -43t-27 -60.5t8 -51.5t47.5 -6q29 13 54 41zM157 127q11 35 -3 58q-8 13 -17 0q-12 -17 -14 -33.5t12 -32.5q6 -5 12.5 -2.5t9.5 10.5z" />
    <glyph glyph-name="o" unicode="&#xf5;" horiz-adv-x="348" 
d="M361 158q8 5 15 0t7 -12.5t-7 -12.5q-63 -38 -144 -51q-35 -6 -50 -6q-17 -1 -24 -11q-30 -43 -72 -60q-25 -9 -48 -8t-39.5 18.5t-16.5 45.5q1 32 19.5 70.5t52.5 68t70 29.5q30 0 49.5 -21t17.5 -58q-1 -12 -5 -28q-2 -9 1 -12t15 -2q83 4 159 50zM124 70q11 12 0 20
q-22 17 -27 44.5t7 51.5q1 2 -1 4t-5 2.5t-8 -2.5q-28 -15 -48.5 -43t-27 -60.5t8 -51.5t47.5 -6q29 13 54 41zM157 127q11 35 -3 58q-8 13 -17 0q-12 -17 -14 -33.5t12 -32.5q6 -5 12.5 -2.5t9.5 10.5z" />
    <glyph glyph-name="o" unicode="&#xf4;" horiz-adv-x="348" 
d="M361 158q8 5 15 0t7 -12.5t-7 -12.5q-63 -38 -144 -51q-35 -6 -50 -6q-17 -1 -24 -11q-30 -43 -72 -60q-25 -9 -48 -8t-39.5 18.5t-16.5 45.5q1 32 19.5 70.5t52.5 68t70 29.5q30 0 49.5 -21t17.5 -58q-1 -12 -5 -28q-2 -9 1 -12t15 -2q83 4 159 50zM124 70q11 12 0 20
q-22 17 -27 44.5t7 51.5q1 2 -1 4t-5 2.5t-8 -2.5q-28 -15 -48.5 -43t-27 -60.5t8 -51.5t47.5 -6q29 13 54 41zM157 127q11 35 -3 58q-8 13 -17 0q-12 -17 -14 -33.5t12 -32.5q6 -5 12.5 -2.5t9.5 10.5z" />
    <glyph glyph-name="o" unicode="&#xf3;" horiz-adv-x="348" 
d="M361 158q8 5 15 0t7 -12.5t-7 -12.5q-63 -38 -144 -51q-35 -6 -50 -6q-17 -1 -24 -11q-30 -43 -72 -60q-25 -9 -48 -8t-39.5 18.5t-16.5 45.5q1 32 19.5 70.5t52.5 68t70 29.5q30 0 49.5 -21t17.5 -58q-1 -12 -5 -28q-2 -9 1 -12t15 -2q83 4 159 50zM124 70q11 12 0 20
q-22 17 -27 44.5t7 51.5q1 2 -1 4t-5 2.5t-8 -2.5q-28 -15 -48.5 -43t-27 -60.5t8 -51.5t47.5 -6q29 13 54 41zM157 127q11 35 -3 58q-8 13 -17 0q-12 -17 -14 -33.5t12 -32.5q6 -5 12.5 -2.5t9.5 10.5z" />
    <glyph glyph-name="o" unicode="&#xf2;" horiz-adv-x="348" 
d="M361 158q8 5 15 0t7 -12.5t-7 -12.5q-63 -38 -144 -51q-35 -6 -50 -6q-17 -1 -24 -11q-30 -43 -72 -60q-25 -9 -48 -8t-39.5 18.5t-16.5 45.5q1 32 19.5 70.5t52.5 68t70 29.5q30 0 49.5 -21t17.5 -58q-1 -12 -5 -28q-2 -9 1 -12t15 -2q83 4 159 50zM124 70q11 12 0 20
q-22 17 -27 44.5t7 51.5q1 2 -1 4t-5 2.5t-8 -2.5q-28 -15 -48.5 -43t-27 -60.5t8 -51.5t47.5 -6q29 13 54 41zM157 127q11 35 -3 58q-8 13 -17 0q-12 -17 -14 -33.5t12 -32.5q6 -5 12.5 -2.5t9.5 10.5z" />
    <glyph glyph-name="p" unicode="p" horiz-adv-x="435" 
d="M459 167q8 0 11.5 -6.5t0 -14t-11.5 -7.5q-121 -2 -206 -19q-12 -2 -18 -12q-6 -11 -13 -20q-22 -29 -53.5 -51.5t-64.5 -28.5q-21 -4 -36 2t-17 26q-4 39 62 70q44 22 102 36q8 2 10 10q2 6 2 11q6 50 -29 44q-37 -5 -88 -53q-3 -4 -6 -7q-60 -62 -103 -142.5
t-90 -193.5q-1 -2 -6 -11.5t-5 -10.5q-3 -7 -11 -8.5t-13.5 3.5t-2.5 13q29 70 144 346q0 1 1 2q-6 4 2 21q41 81 44 89q1 2 5.5 8t8.5 6q7 -1 11.5 -6.5t2.5 -11.5q-27 -74 -45 -115q-2 -5 0 -6t5 3q31 37 64 64q13 11 29 19.5t34.5 15.5t36.5 4t30 -17q19 -24 9 -63
q0 -2 1 -3.5t3 -1.5q81 14 200 16zM199 102q1 1 0 3t-3 2q-28 -8 -53 -18q-48 -19 -56 -34q-14 -25 11 -20q10 2 25 9q45 20 76 58z" />
    <glyph glyph-name="q" unicode="q" horiz-adv-x="384" 
d="M400 158q11 9 22 -3q9 -10 -2 -18q-125 -98 -318 -172q-10 -4 -17 -18q-5 -11 -15.5 -31t-14.5 -28q-5 -9 -25 -47q1 -47 -19 -97q-1 -1 -2 -3q-2 -6 -3.5 -9t-5 -10.5t-6 -10.5t-7 -9t-8 -7t-9 -3t-10.5 2q-6 3 -9.5 7t-4 9.5t-0.5 10t2 12t3.5 11.5t5 11.5t4.5 8.5
q17 41 39 89q-7 55 -58 65q-19 -1 -33 2q-13 3 -11 15.5t15 13.5q18 1 34 -2q11 0 26 3.5t24 6.5t29 9.5t25 8.5q13 4 20 18q8 14 23.5 43t24.5 44q3 5 0.5 6.5t-6.5 -3.5q-30 -28 -60 -43q-28 -15 -50 -2t-17 46q5 27 27.5 59.5t53 59t67 39.5t65.5 2q8 -2 11 4q6 11 12 21
q5 8 12 8t12 -7.5t1 -15.5q-4 -7 -11 -21t-8 -15t-4 -8q-58 -111 -102 -193q-4 -9 0.5 -10.5t13.5 2.5q155 64 264 149zM85 102q45 44 91 105q5 5 3 9.5t-11 4.5q-39 -1 -88 -47t-61 -80q-11 -34 8 -30q24 5 58 38zM37 -71q2 3 0 6.5t-5 2.5q-5 -2 -16 -5t-13 -4
q-3 -1 -3 -4.5t3 -7.5q7 -6 12 -17q2 -3 4.5 -2t3.5 3z" />
    <glyph glyph-name="r" unicode="r" horiz-adv-x="414" 
d="M426 153q6 7 14 4t10 -10t-3 -14q-64 -64 -124 -106.5t-122 -48.5q-34 -4 -56 8t-29.5 34.5t-7.5 48.5t7 54q2 6 -2 11.5t-11 5.5q-4 -1 -9 -1q-53 0 -107 11q-7 1 -10 6t-2 12q3 13 17 11q52 -10 102 -10q45 0 82 8q14 3 17 -11q2 -6 -1.5 -11.5t-9.5 -6.5
q-10 -2 -21 -4q-8 -1 -11 -9q-7 -20 -11 -39t-3.5 -40t13 -34.5t37.5 -15.5q33 -3 96 33q73 43 145 114z" />
    <glyph glyph-name="s" unicode="s" horiz-adv-x="383" 
d="M405 162q8 2 12.5 -3t3.5 -12.5t-9 -10.5q-127 -41 -223 -89q-10 -5 -5 -14q8 -17 5 -40q-12 -68 -86.5 -129.5t-147.5 -78.5q-21 -4 -40.5 2t-23.5 26q-9 41 76 118q65 59 152 108q3 2 3 6.5t-4 6.5q-12 5 -15 6q-2 1 -17 8t-20.5 10.5t-16 10t-16.5 14t-10 16.5
q-9 24 2.5 46.5t34.5 35t49 16t45 -11.5q6 -4 5.5 -12t-6 -11t-12.5 1q-22 16 -51.5 4.5t-36 -34.5t18.5 -47q12 -9 38 -20.5t32 -14.5q3 -2 5 -3q10 -6 20 -1q103 53 238 97zM164 13q-1 5 -3 9q-5 8 -14 3q-93 -51 -161 -113q-72 -65 -68 -90q1 -8 12 -10t21.5 0.5
t20.5 6.5q86 32 150 106q49 56 42 88z" />
    <glyph glyph-name="s" unicode="&#xdf;" horiz-adv-x="383" 
d="M405 162q8 2 12.5 -3t3.5 -12.5t-9 -10.5q-127 -41 -223 -89q-10 -5 -5 -14q8 -17 5 -40q-12 -68 -86.5 -129.5t-147.5 -78.5q-21 -4 -40.5 2t-23.5 26q-9 41 76 118q65 59 152 108q3 2 3 6.5t-4 6.5q-12 5 -15 6q-2 1 -17 8t-20.5 10.5t-16 10t-16.5 14t-10 16.5
q-9 24 2.5 46.5t34.5 35t49 16t45 -11.5q6 -4 5.5 -12t-6 -11t-12.5 1q-22 16 -51.5 4.5t-36 -34.5t18.5 -47q12 -9 38 -20.5t32 -14.5q3 -2 5 -3q10 -6 20 -1q103 53 238 97zM164 13q-1 5 -3 9q-5 8 -14 3q-93 -51 -161 -113q-72 -65 -68 -90q1 -8 12 -10t21.5 0.5
t20.5 6.5q86 32 150 106q49 56 42 88z" />
    <glyph glyph-name="t" unicode="t" horiz-adv-x="247" 
d="M643 490q9 0 12.5 -7.5t0 -15t-12.5 -7.5q-131 0 -357 -3q-11 0 -16 -9q-83 -141 -210 -287q-5 -7 -9 -15q-33 -81 -59 -157q-26 -74 -36 -120q-1 -2 -4 -14t-4.5 -19t-1.5 -16.5t3 -14.5q5 -7 0.5 -14t-12 -7.5t-13.5 6.5q-7 10 -6.5 27.5t2 26t6.5 28.5q15 61 32 108
q82 235 185 445l5 10t6 13q1 3 -0.5 5.5t-4.5 2.5q-226 -3 -357 -3q-9 0 -12.5 7.5t0 14.5t12.5 7q135 0 377 3q4 0 5 3q120 242 175 242q15 0 21 -11t7 -23q0 -20 -19 -69q-25 -64 -62 -132q-1 -3 0.5 -5.5t4.5 -2.5q214 2 342 3zM230 449q2 2 0 5t-5 3q-10 0 -31 -1
q-3 0 -4 -3q-70 -133 -70 -153q0 -5 5 -5q15 0 105 154zM254 491q49 86 77 146.5t14 60.5q-12 0 -50 -59.5t-84 -144.5q-1 -3 0.5 -5.5t4.5 -2.5h31q5 0 7 5z" />
    <glyph glyph-name="u" unicode="u" horiz-adv-x="484" 
d="M492 152q7 6 15 3t10 -10t-4 -13q-29 -25 -42.5 -36.5t-46.5 -35t-55.5 -34.5t-53 -18.5t-55.5 -3.5q-89 16 -39 140q-31 -34 -56 -58q-3 -3 -15 -14.5t-17 -16t-16.5 -15t-19 -15.5l-18 -12t-20 -11.5t-19.5 -6.5q-59 -13 -55 48q4 63 57 160q4 7 6 11q6 9 17.5 6.5
t10.5 -13.5q-3 -21 -14 -43q-4 -8 -12 -7q-26 -48 -34 -89q-6 -25 -1 -35t18 -6.5t25.5 10.5t27.5 18q18 14 35 29t37.5 36t30 31t35 38t30.5 33.5t12 4.5q8 2 14 -5.5t2 -16.5q-5 -11 -17.5 -34t-20.5 -41.5t-10 -35.5q-5 -28 6 -43.5t30 -16t43 5.5q74 23 179 112z" />
    <glyph glyph-name="u" unicode="&#xfc;" horiz-adv-x="484" 
d="M492 152q7 6 15 3t10 -10t-4 -13q-29 -25 -42.5 -36.5t-46.5 -35t-55.5 -34.5t-53 -18.5t-55.5 -3.5q-89 16 -39 140q-31 -34 -56 -58q-3 -3 -15 -14.5t-17 -16t-16.5 -15t-19 -15.5l-18 -12t-20 -11.5t-19.5 -6.5q-59 -13 -55 48q4 63 57 160q4 7 6 11q6 9 17.5 6.5
t10.5 -13.5q-3 -21 -14 -43q-4 -8 -12 -7q-26 -48 -34 -89q-6 -25 -1 -35t18 -6.5t25.5 10.5t27.5 18q18 14 35 29t37.5 36t30 31t35 38t30.5 33.5t12 4.5q8 2 14 -5.5t2 -16.5q-5 -11 -17.5 -34t-20.5 -41.5t-10 -35.5q-5 -28 6 -43.5t30 -16t43 5.5q74 23 179 112z" />
    <glyph glyph-name="u" unicode="&#xfb;" horiz-adv-x="484" 
d="M492 152q7 6 15 3t10 -10t-4 -13q-29 -25 -42.5 -36.5t-46.5 -35t-55.5 -34.5t-53 -18.5t-55.5 -3.5q-89 16 -39 140q-31 -34 -56 -58q-3 -3 -15 -14.5t-17 -16t-16.5 -15t-19 -15.5l-18 -12t-20 -11.5t-19.5 -6.5q-59 -13 -55 48q4 63 57 160q4 7 6 11q6 9 17.5 6.5
t10.5 -13.5q-3 -21 -14 -43q-4 -8 -12 -7q-26 -48 -34 -89q-6 -25 -1 -35t18 -6.5t25.5 10.5t27.5 18q18 14 35 29t37.5 36t30 31t35 38t30.5 33.5t12 4.5q8 2 14 -5.5t2 -16.5q-5 -11 -17.5 -34t-20.5 -41.5t-10 -35.5q-5 -28 6 -43.5t30 -16t43 5.5q74 23 179 112z" />
    <glyph glyph-name="u" unicode="&#xfa;" horiz-adv-x="484" 
d="M492 152q7 6 15 3t10 -10t-4 -13q-29 -25 -42.5 -36.5t-46.5 -35t-55.5 -34.5t-53 -18.5t-55.5 -3.5q-89 16 -39 140q-31 -34 -56 -58q-3 -3 -15 -14.5t-17 -16t-16.5 -15t-19 -15.5l-18 -12t-20 -11.5t-19.5 -6.5q-59 -13 -55 48q4 63 57 160q4 7 6 11q6 9 17.5 6.5
t10.5 -13.5q-3 -21 -14 -43q-4 -8 -12 -7q-26 -48 -34 -89q-6 -25 -1 -35t18 -6.5t25.5 10.5t27.5 18q18 14 35 29t37.5 36t30 31t35 38t30.5 33.5t12 4.5q8 2 14 -5.5t2 -16.5q-5 -11 -17.5 -34t-20.5 -41.5t-10 -35.5q-5 -28 6 -43.5t30 -16t43 5.5q74 23 179 112z" />
    <glyph glyph-name="u" unicode="&#xf9;" horiz-adv-x="484" 
d="M492 152q7 6 15 3t10 -10t-4 -13q-29 -25 -42.5 -36.5t-46.5 -35t-55.5 -34.5t-53 -18.5t-55.5 -3.5q-89 16 -39 140q-31 -34 -56 -58q-3 -3 -15 -14.5t-17 -16t-16.5 -15t-19 -15.5l-18 -12t-20 -11.5t-19.5 -6.5q-59 -13 -55 48q4 63 57 160q4 7 6 11q6 9 17.5 6.5
t10.5 -13.5q-3 -21 -14 -43q-4 -8 -12 -7q-26 -48 -34 -89q-6 -25 -1 -35t18 -6.5t25.5 10.5t27.5 18q18 14 35 29t37.5 36t30 31t35 38t30.5 33.5t12 4.5q8 2 14 -5.5t2 -16.5q-5 -11 -17.5 -34t-20.5 -41.5t-10 -35.5q-5 -28 6 -43.5t30 -16t43 5.5q74 23 179 112z" />
    <glyph glyph-name="v" unicode="v" horiz-adv-x="376" 
d="M356 291q11 6 19 -4.5t-1 -18.5q-16 -16 -91 -91.5t-117 -113.5l-18 -16.5t-25 -22t-22.5 -16.5t-28.5 -15t-25 -3q-32 3 -41.5 35.5t1 76.5t23.5 79.5t24 55.5q5 8 12.5 8t12 -7.5t0.5 -14.5q-43 -80 -44 -155q-1 -35 14 -42q15 -6 47 18q59 43 136 121q-2 5 1 10
q15 34 46.5 61t76.5 55z" />
    <glyph glyph-name="w" unicode="w" horiz-adv-x="551" 
d="M561 275q11 6 19 -4t-1 -19q-16 -16 -91 -91.5t-117 -113.5l-18 -16.5t-25 -22t-22.5 -16.5t-28.5 -15t-25 -3q-20 2 -32 15t-14.5 34t-0.5 44.5t9 50.5q3 14 -3 13q-4 -1 -14 -11q-13 -14 -34 -35q-2 -3 -15.5 -16t-19.5 -19t-19 -17t-22 -16.5t-21 -11.5t-23 -8
q-56 -9 -53 50q4 63 59 161q4 5 6 9q5 9 17 6.5t10 -13.5q-3 -21 -13 -42q-4 -8 -13 -8q-23 -44 -32 -82q-2 -9 -3.5 -16.5t-1.5 -18.5t5.5 -15.5t16.5 -0.5q22 9 48 30q21 18 45.5 41.5t37.5 38t43.5 48t37.5 41.5q9 9 18.5 1.5t5.5 -17.5q-1 -2 -1 -3q-41 -78 -39 -155
q1 -39 18.5 -43.5t45.5 19.5q59 43 136 121q-2 5 0 10q16 34 47.5 61t76.5 55z" />
    <glyph glyph-name="x" unicode="x" horiz-adv-x="516" 
d="M541 169q6 7 13.5 4.5t10 -10t-2.5 -14.5q-24 -27 -43.5 -48.5t-50 -50.5t-58 -49.5t-62 -39t-65.5 -24.5t-66 -0.5t-66 25.5q-26 17 -48 44q-6 7 -13 1q-71 -58 -128 -105q-7 -6 -15.5 -3t-10 10t4.5 14q62 50 133 109q6 5 2 12q-40 65 -56 154q-2 9 4.5 14.5t14 4
t9.5 -10.5q15 -82 49 -141q6 -9 14 -2q149 123 265 224q7 6 15 3t10 -10t-4 -14q-119 -103 -270 -228q-7 -6 -1 -13q12 -15 25 -26q28 -24 60.5 -31.5t61.5 -2.5t63 23t59.5 37.5t56.5 49t48.5 49t40.5 45.5z" />
    <glyph glyph-name="y" unicode="y" horiz-adv-x="463" 
d="M455 128q8 4 15.5 -1t7.5 -12.5t-8 -11.5q-173 -78 -282 -142q-1 0 -2 -1q-59 -114 -132 -197q-101 -116 -147 -66q-23 26 6 77q22 39 57.5 70.5t87.5 68.5q48 34 107 69l1 1q35 70 66 151q1 3 -1 4.5t-4 -0.5q-32 -33 -59 -57q-2 -2 -14.5 -14t-17 -16t-16.5 -14
t-19 -14.5t-18 -11.5t-21 -10.5t-19 -5.5q-59 -11 -54 51q5 64 59 160q3 5 5 9q5 9 17 6.5t10 -13.5q-2 -21 -13 -43q-4 -7 -11 -7q-2 0 -2 -2q-25 -47 -34 -87q-2 -16 -2 -26.5t6 -13.5t12.5 -3t16.5 4.5t18 9.5t17 12q31 22 66 54.5t51.5 50.5t57.5 62q5 6 12 5t11.5 -6
t2.5 -12q-34 -102 -75 -189q0 -2 1.5 -3.5t3.5 -0.5q94 51 236 115zM130 -81q2 2 0 4t-4 0q-30 -19 -53 -35l-9 -6q-25 -18 -39.5 -29t-37 -30.5t-36.5 -39.5t-21 -40q-11 -35 16 -25q32 11 78 56q4 3 5 5q54 61 101 140z" />
    <glyph glyph-name="y" unicode="&#xff;" horiz-adv-x="463" 
d="M455 128q8 4 15.5 -1t7.5 -12.5t-8 -11.5q-173 -78 -282 -142q-1 0 -2 -1q-59 -114 -132 -197q-101 -116 -147 -66q-23 26 6 77q22 39 57.5 70.5t87.5 68.5q48 34 107 69l1 1q35 70 66 151q1 3 -1 4.5t-4 -0.5q-32 -33 -59 -57q-2 -2 -14.5 -14t-17 -16t-16.5 -14
t-19 -14.5t-18 -11.5t-21 -10.5t-19 -5.5q-59 -11 -54 51q5 64 59 160q3 5 5 9q5 9 17 6.5t10 -13.5q-2 -21 -13 -43q-4 -7 -11 -7q-2 0 -2 -2q-25 -47 -34 -87q-2 -16 -2 -26.5t6 -13.5t12.5 -3t16.5 4.5t18 9.5t17 12q31 22 66 54.5t51.5 50.5t57.5 62q5 6 12 5t11.5 -6
t2.5 -12q-34 -102 -75 -189q0 -2 1.5 -3.5t3.5 -0.5q94 51 236 115zM130 -81q2 2 0 4t-4 0q-30 -19 -53 -35l-9 -6q-25 -18 -39.5 -29t-37 -30.5t-36.5 -39.5t-21 -40q-11 -35 16 -25q32 11 78 56q4 3 5 5q54 61 101 140z" />
    <glyph glyph-name="y" unicode="&#xfd;" horiz-adv-x="463" 
d="M455 128q8 4 15.5 -1t7.5 -12.5t-8 -11.5q-173 -78 -282 -142q-1 0 -2 -1q-59 -114 -132 -197q-101 -116 -147 -66q-23 26 6 77q22 39 57.5 70.5t87.5 68.5q48 34 107 69l1 1q35 70 66 151q1 3 -1 4.5t-4 -0.5q-32 -33 -59 -57q-2 -2 -14.5 -14t-17 -16t-16.5 -14
t-19 -14.5t-18 -11.5t-21 -10.5t-19 -5.5q-59 -11 -54 51q5 64 59 160q3 5 5 9q5 9 17 6.5t10 -13.5q-2 -21 -13 -43q-4 -7 -11 -7q-2 0 -2 -2q-25 -47 -34 -87q-2 -16 -2 -26.5t6 -13.5t12.5 -3t16.5 4.5t18 9.5t17 12q31 22 66 54.5t51.5 50.5t57.5 62q5 6 12 5t11.5 -6
t2.5 -12q-34 -102 -75 -189q0 -2 1.5 -3.5t3.5 -0.5q94 51 236 115zM130 -81q2 2 0 4t-4 0q-30 -19 -53 -35l-9 -6q-25 -18 -39.5 -29t-37 -30.5t-36.5 -39.5t-21 -40q-11 -35 16 -25q32 11 78 56q4 3 5 5q54 61 101 140z" />
    <glyph glyph-name="z" unicode="z" horiz-adv-x="468" 
d="M507 170q7 5 14 0.5t7 -12t-7 -12.5q-105 -62 -260 -183l-1 -1q-12 -9 -10 -23q4 -21 -4 -46q-19 -61 -78.5 -121.5t-119.5 -84.5q-45 -17 -61 7.5t9 61.5q33 49 79 91.5t114 95.5q9 6 8.5 16.5t-9.5 16.5q-23 13 -58.5 16.5t-65 0t-56.5 -10.5q-1 0 -1 -0.5v-0.5
q-3 -1 -7 -1q-8 -2 -13.5 3.5t-3.5 13.5t10 10q1 1 5 2q156 73 266 158q1 1 5 4t7 5t7.5 6t7 6.5t5.5 6t3 5.5v4q-9 13 -81 -2q-70 -15 -171 -57q-13 -6 -16 9q-3 13 9 18q69 29 163 50q136 31 129 -20q-1 -4 -3 -10q-5 -14 -22 -30.5t-31 -26t-40 -24.5t-30 -18
q-57 -36 -112 -67q-4 -2 -2.5 -5t6.5 -3q82 -3 122 -33q4 -2 12 -2.5t11 2.5q157 122 264 185zM156 -194q57 63 66 98q2 9 -6 13.5t-14 -0.5q-114 -91 -170 -160q-40 -50 -13 -49q8 1 22 7q50 20 115 91z" />
    <glyph glyph-name="braceleft" unicode="{" horiz-adv-x="287" 
d="M216 442q8 2 14 -4.5t4 -14t-11 -9.5q-23 -4 -32.5 -31t-12.5 -66t-8 -52q-19 -49 -68 -70q17 -23 19 -78q1 -31 -3 -55q-2 -6 -10.5 -26t-7.5 -29q1 -12 4 -20.5t9.5 -11.5t11.5 -4.5t15 1l14 3.5t15 4q8 3 13.5 -3t4 -14t-9.5 -11q-17 -6 -34.5 -8t-35 0t-29 14
t-11.5 33q0 17 11.5 49t12.5 47q9 93 -28 99q-11 1 -10.5 13.5t10.5 14.5q18 4 31.5 10t22.5 17t15 19t10.5 24.5t6 25.5t4.5 29.5t4 28.5q11 67 59 75z" />
    <glyph glyph-name="verticalbar" unicode="|" horiz-adv-x="302" 
d="M220 429q3 9 11.5 10.5t14 -4t2.5 -14.5q-15 -41 -75 -196.5t-91 -240.5q-3 -8 -11.5 -9.5t-14.5 4t-3 13.5q32 85 91.5 240.5t75.5 196.5z" />
    <glyph glyph-name="braceright" unicode="}" horiz-adv-x="367" 
d="M300 235q9 0 12.5 -7.5t0 -14.5t-12.5 -7q-29 1 -47.5 -9t-27 -29t-12 -39t-8 -47t-11.5 -43q-37 -101 -127 -101q-9 0 -13 7.5t0 15t13 7.5q26 0 46.5 12t32.5 28t21.5 42.5t13 45.5t7.5 47q9 57 46 79q-18 11 -23 34q-2 8 2 28t9.5 42t9.5 44t1 36.5t-15 14.5
q-9 0 -12.5 7.5t0 15t12.5 6.5q26 -1 39 -9t14 -31q0 -9 -2 -20.5t-3.5 -18.5t-6.5 -21t-6 -18q0 -1 -4.5 -14t-5.5 -20q-17 -32 19 -43q12 -18 31 -19z" />
    <glyph glyph-name="asciitilde" unicode="~" horiz-adv-x="516" 
d="M438 272q7 5 15.5 2t10 -10t-4.5 -13q-79 -64 -152 -61q-23 1 -57.5 12.5t-60 21.5t-59.5 13t-55 -12q-8 -4 -15 1t-7.5 12t7.5 13q24 13 52 14t47 -4t52 -17q63 -26 118.5 -20.5t108.5 48.5z" />
    <glyph glyph-name="nonbreakingspace" unicode="&#xa0;" horiz-adv-x="536" 
 />
    <glyph glyph-name="cent" unicode="&#xa2;" horiz-adv-x="308" 
d="M254 413q-4 -12 -19 -50q-1 -4 2 -7q6 -7 12 -17t-3 -18t-18 -2q-4 -1 -11 -4q-67 -173 -87 -225q7 2 13 5q39 17 83 59q6 6 14 3.5t10 -10t-4 -14.5q-72 -70 -124 -77q-5 0 -6 -4q-11 -30 -12 -31q-3 -8 -11.5 -9.5t-14 4t-2.5 13.5q2 5 9 23q2 7 -4 9q-43 21 -22 103
q6 26 26.5 71.5t54 90.5t62.5 46q5 1 7 5q15 38 17 44q3 8 11.5 9.5t14 -4t2.5 -13.5zM184 312q2 6 -3 9t-9 -1q-25 -28 -52 -84t-32 -75q-12 -45 2 -64q2 -3 6.5 -2.5t5.5 4.5q22 57 82 213z" />
    <glyph glyph-name="sterling" unicode="&#xa3;" horiz-adv-x="375" 
d="M308 416q9 0 12.5 -7t0 -14.5t-12.5 -8.5q-41 -2 -64.5 -26t-37.5 -65q-3 -10 3.5 -19.5t17.5 -9.5q22 0 42 -1q9 0 13 -7.5t0 -14.5t-13 -7q-29 1 -62 1q-17 0 -21 -17q-5 -22 -9 -35q-13 -44 -21 -63q-4 -10 1.5 -19.5t16.5 -10.5q15 -2 53 -9.5t54 -7.5q9 -1 13 -8.5
t0 -14.5t-13 -7q-11 1 -65 12t-82 10q-9 -1 -14 -7q-24 -24 -53 -23q-8 1 -12.5 8t0.5 14q16 25 48 32q8 2 13 9q21 34 38 107q3 11 -4.5 19.5t-18.5 7.5q-27 -1 -52 -4q-9 -1 -13 6t0 15t13 9q42 4 88 5q2 7 3 11q17 63 49 100t89 40z" />
    <glyph glyph-name="yen" unicode="&#xa5;" horiz-adv-x="383" 
d="M193 279q-2 -2 -3 -5q-1 -5 -4 -18q2 -2 3 -4q40 1 75 -1q9 0 13 -7.5t0 -14.5t-13 -7q-37 1 -79 1q-6 0 -8 -7q0 -1 -1 -4q0 -4 2.5 -7t6.5 -3q38 0 72 -1q9 0 13 -7.5t0 -15t-13 -6.5q-39 1 -80 0q-9 0 -11 -9q-13 -61 -23 -113q-1 -9 -9 -10.5t-14.5 4t-4.5 14.5
q8 45 20 99q1 5 -2.5 9.5t-9.5 3.5q-31 -1 -56 -4q-9 -1 -13 6t0 15t13 9q32 3 71 4q6 1 7 7q1 1 1 2v2q1 4 -1.5 7t-6.5 3q-35 -2 -64 -5q-9 0 -13 7t0 14.5t13 8.5q33 3 72 5q9 0 11 9l2 9q1 3 3 12q1 5 -1 8q-4 7 -70 130q-4 8 1 15t12.5 7t12.5 -7q4 -7 25 -47.5
t32 -61.5q3 -5 9 -5.5t10 3.5q7 9 112 124q6 7 14 4.5t10 -10t-3 -14.5q-116 -128 -133 -148z" />
    <glyph glyph-name="plusminus" unicode="&#xb1;" horiz-adv-x="416" 
d="M352 190q12 1 12 -10q-1 -15 -16 -19q-2 -1 -3 -1q-47 -5 -96 -7q-13 -1 -17 -14q-12 -39 -24 -86q-4 -15 -20 -14q-13 1 -10 14q13 46 24 83q1 6 -2 10.5t-9 4.5q-42 -1 -78 0q-14 0 -10 14q3 16 18 15q37 -1 80 0q14 1 18 14q15 50 30 90q5 15 20 14q14 -1 9 -14
q-14 -39 -29 -86q-2 -7 1.5 -11.5t10.5 -4.5q47 3 91 8zM302 4q12 2 12 -9q0 -14 -14 -19q-3 -1 -5 -1q-118 -13 -232 -10q-13 1 -10 15q4 15 18 15q73 -3 121 -1q59 2 110 10z" />
    <glyph glyph-name="multiply" unicode="&#xd7;" horiz-adv-x="347" 
d="M272 222q8 5 15.5 2t7.5 -10t-8 -13q-38 -26 -84 -60q-12 -8 -4 -17q27 -32 55 -61q5 -5 0.5 -13t-12.5 -10t-15 3q-28 29 -56 62q-6 7 -16 0q-36 -27 -80 -62q-8 -6 -15 -3t-7.5 10t7.5 14q42 33 78 60q11 8 4 17q-23 30 -42 57q-4 6 1 14.5t12.5 10t13.5 -3.5
q19 -28 42 -59q6 -7 16 0q48 35 87 62z" />
    <glyph glyph-name="divide" unicode="&#xf7;" horiz-adv-x="363" 
d="M299 146q14 1 11 -13q-4 -15 -19 -16q-116 -6 -228 3q-13 1 -10 15q4 15 18 14q112 -9 228 -3zM194.5 186q-9.5 0 -14 6.5t-2 16t10.5 15.5t17 6t14 -6t2.5 -15.5t-10.5 -16t-17.5 -6.5zM165 75q9 0 13.5 -6.5t2 -15.5t-10.5 -15.5t-17 -6.5t-14 6.5t-2.5 15.5t11 15.5
t17.5 6.5z" />
    <glyph glyph-name="Euro" unicode="&#x20ac;" horiz-adv-x="429" 
d="M351 117q6 6 14 3.5t10 -10t-3 -14.5q-128 -124 -211 -108q-25 4 -39 20t-17 39t-1 43.5t8 43.5v2q3 10 -4 18t-17 7q-13 -1 -24 -2q-9 -1 -13 6t0 15t13 9q22 2 49 3q14 1 18 14q4 11 -2.5 20t-17.5 8q-25 -1 -47 -4q-9 -1 -13 6t0 15t13 9q39 4 80 5q12 1 18 12
q23 46 50 80q16 21 36 37.5t42 25.5t43.5 0.5t37.5 -36.5q4 -7 -0.5 -14t-12 -7.5t-12.5 7.5q-45 79 -133 -73q-6 -10 0 -20.5t18 -10.5t23 -1q9 0 13 -7.5t0 -14.5t-13 -7q-28 1 -59 1q-13 0 -19 -12v-1q-5 -10 1 -19.5t17 -9.5q31 0 60 -1q9 0 13 -7.5t0 -15t-13 -6.5
q-44 1 -90 0q-14 0 -19 -14q-3 -7 -4 -11q-6 -20 -8.5 -38.5t-1 -38t10 -30t25 -15.5t43.5 6q64 22 138 93z" />
    <glyph glyph-name="notequal" unicode="&#x2260;" horiz-adv-x="390" 
d="M327 194q14 1 10 -13q-4 -15 -18 -16q-29 -2 -64 -2q-13 0 -24 -11q-26 -25 -54 -52q-3 -3 -2 -6.5t4 -3.5q62 -1 120 2q14 1 11 -13q-4 -15 -19 -16q-68 -4 -138 -2q-15 1 -26 -11l-45 -45q-13 -12 -24 -3q-8 7 2 18l34 34q3 3 2.5 6.5t-4.5 3.5q-17 1 -29 2
q-14 1 -10 16t18 13q11 0 23 -1q13 -1 27 -2q11 0 20 8q27 27 56 55q2 2 1.5 5t-3.5 3q-53 1 -105 5q-13 1 -10 15q4 15 18 14q60 -5 125 -5q13 0 24 10q31 29 58 53q8 7 15 4.5t7.5 -10t-6.5 -14.5q-15 -13 -37 -34q-3 -2 -2.5 -5.5t4.5 -2.5q22 0 41 1z" />
    <glyph glyph-name="lessequal" unicode="&#x2264;" horiz-adv-x="409" 
d="M301 31q14 0 10 -14q-4 -15 -18 -15q-147 0 -230 -1q-13 0 -10 14q4 15 18 15q83 1 230 1zM342 277q14 5 15 -8q1 -15 -14 -20q-46 -17 -118 -45q-35 -14 -59 -24q-5 -2 -7 -10t3 -10l30 -10q101 -35 122 -43q7 -4 7 -11.5t-7.5 -13.5t-14.5 -3q-28 10 -82.5 28.5
t-80.5 28.5q-2 0 -7.5 2t-9.5 3.5t-9.5 4t-9 5t-6 6.5t-1.5 8.5t4 9.5q8 10 27 19.5t47 18.5t30 10q83 33 141 54z" />
    <glyph glyph-name="greaterequal" unicode="&#x2265;" horiz-adv-x="404" 
d="M301 31q14 0 10 -14q-4 -15 -18 -15q-147 0 -230 -1q-13 0 -10 14q4 15 18 15q83 1 230 1zM351 175q2 -7 -2 -13.5t-13.5 -11t-16 -7t-19 -6t-13.5 -3.5q-28 -9 -91.5 -27t-96.5 -28q-14 -4 -15 8q-1 15 15 20q17 6 151 44q0 1 11 4t16 4q6 2 7.5 11.5t-2.5 11.5
q-19 10 -47 24q-54 27 -89 43q-7 4 -6.5 11.5t7.5 13.5t14 3q49 -22 116 -56q2 -1 24 -10t35.5 -17.5t14.5 -18.5z" />
    <glyph glyph-name="b.alt1" unicode="&#xf08b;" horiz-adv-x="598" 
d="M508 280q55 7 82.5 -16t3.5 -74q-5 -8 -12.5 -8t-12.5 7.5t-1 15.5q25 52 -42 48q-34 -3 -99 -22q-91 -29 -183 -74q-11 -6 -16 -19l-2 -6q-16 -37 -50 -69t-73 -54q-11 -6 -22 -10t-25 -6.5t-24 3t-12 20.5q-3 13 2.5 26.5t19 26.5t27.5 24t34.5 23t34 19t31.5 16.5
t22 10.5q2 1 3 2q12 6 9 19q-6 28 -54 20q-45 -8 -92.5 -57.5t-73.5 -100.5q0 -1 -1 -2q-17 -35 -18 -37q-4 -7 -11.5 -7.5t-12.5 7t-1 15.5q92 198 240 483q-8 -2 -14.5 5.5t-1.5 16.5q26 50 85 107q9 8 19 0.5t4 -18.5q-139 -264 -218 -424q-1 -3 1.5 -5t4.5 0
q42 34 83 45q32 9 56.5 -3t32.5 -37q2 -7 9 -4q156 78 268 93zM176 108q4 5 8 11q2 2 0 3.5t-4 0.5q-10 -5 -18 -10q-70 -41 -96 -66q-23 -24 -9 -23q18 2 49 22q42 27 70 62z" />
    </font>
</defs>
</svg>
